SplineFontDB: 3.0
FontName: Neuton-Light
FullName: Neuton Light
FamilyName: Neuton
Weight: Light
Copyright: Copyright (c) 2010, 2011 Brian M Zick (http://21326.info/), \nwith Reserved Font Name 'Neuton'.\n\nThis Font Software is licensed under the SIL Open Font License, Version 1.1.This license is available with a FAQ at: http://scripts.sil.org/OFL\n   WITHOUT WARRANTIES OR CONDITIONS OF ANY KIND, either express or implied.\n   See the License for the specific language governing permissions and\n   limitations under the License.
UComments: "2011-6-6: Created." 
Version: 1.43
ItalicAngle: 0
UnderlinePosition: -361
UnderlineWidth: 0
Ascent: 1638
Descent: 410
LayerCount: 2
Layer: 0 1 "Back"  1
Layer: 1 1 "Fore"  0
NeedsXUIDChange: 1
XUID: [1021 467 2011608612 1910391]
FSType: 1
OS2Version: 1
OS2_WeightWidthSlopeOnly: 0
OS2_UseTypoMetrics: 0
CreationTime: 1307389376
ModificationTime: 1320286521
PfmFamily: 17
TTFWeight: 300
TTFWidth: 5
LineGap: 0
VLineGap: 0
Panose: 2 0 3 3 0 0 0 0 0 0
OS2TypoAscent: 2106
OS2TypoAOffset: 0
OS2TypoDescent: -485
OS2TypoDOffset: 0
OS2TypoLinegap: 0
OS2WinAscent: 2106
OS2WinAOffset: 0
OS2WinDescent: 485
OS2WinDOffset: 0
HheadAscent: 2106
HheadAOffset: 0
HheadDescent: -485
HheadDOffset: 0
OS2Vendor: 'PfEd'
Lookup: 1 0 0 "'onum' Oldstyle Figures lookup 1"  {"'onum' Oldstyle Figures lookup 1-1" ("osf" ) } ['onum' ('DFLT' <'dflt' > 'hebr' <'dflt' > 'latn' <'dflt' > ) ]
MarkAttachClasses: 1
DEI: 91125
ShortTable: maxp 16
  0
  0
  0
  0
  0
  0
  0
  2
  1
  2
  22
  0
  256
  0
  0
  0
EndShort
TtTable: prep
PUSHW_1
 511
SCANCTRL
PUSHB_1
 4
SCANTYPE
EndTTInstrs
TtTable: fpgm
PUSHB_1
 0
FDEF
PUSHB_1
 0
SZP0
MPPEM
PUSHB_1
 42
LT
IF
PUSHB_1
 74
SROUND
EIF
PUSHB_1
 0
SWAP
MIAP[rnd]
RTG
PUSHB_1
 6
CALL
IF
RTDG
EIF
MPPEM
PUSHB_1
 42
LT
IF
RDTG
EIF
DUP
MDRP[rp0,rnd,grey]
PUSHB_1
 1
SZP0
MDAP[no-rnd]
RTG
ENDF
PUSHB_1
 1
FDEF
DUP
MDRP[rp0,min,white]
PUSHB_1
 12
CALL
ENDF
PUSHB_1
 2
FDEF
MPPEM
GT
IF
RCVT
SWAP
EIF
POP
ENDF
PUSHB_1
 3
FDEF
ROUND[Black]
RTG

StartChar: A
Encoding: 65 65 0
Width: 1326
VWidth: 0
Flags: HMW
LayerCount: 2
Fore
SplineSet
464 534 m 1,0,-1
 837 534 l 1,1,-1
 657 1060 l 1,2,-1
 464 534 l 1,0,-1
46 0 m 1,3,-1
 54 58 l 1,4,-1
 199 101 l 1,5,-1
 637 1246 l 1,6,-1
 739 1268 l 1,7,-1
 1141 95 l 1,8,-1
 1276 64 l 1,9,-1
 1268 0 l 1,10,-1
 806 0 l 1,11,-1
 816 58 l 1,12,-1
 985 101 l 1,13,-1
 861 455 l 1,14,-1
 436 455 l 1,15,-1
 305 95 l 1,16,-1
 490 63 l 1,17,-1
 480 0 l 1,18,-1
 46 0 l 1,3,-1
EndSplineSet
Colour: ffff00
EndChar

StartChar: AE
Encoding: 198 198 1
Width: 1740
VWidth: 0
Flags: HMW
LayerCount: 2
Fore
SplineSet
581 553 m 1,0,-1
 891 553 l 1,1,-1
 894 1075 l 1,2,-1
 581 553 l 1,0,-1
49 2 m 1,3,-1
 57 60 l 1,4,-1
 196 102 l 1,5,-1
 840 1154 l 1,6,-1
 616 1187 l 1,7,-1
 625 1244 l 1,8,-1
 1649 1244 l 1,9,-1
 1617 926 l 1,10,-1
 1552 936 l 1,11,-1
 1521 1173 l 1,12,-1
 1035 1173 l 1,13,-1
 1035 669 l 1,14,-1
 1334 669 l 1,15,-1
 1374 801 l 1,16,-1
 1446 808 l 1,17,-1
 1412 421 l 1,18,-1
 1346 409 l 1,19,-1
 1321 596 l 1,20,-1
 1035 596 l 1,21,-1
 1035 75 l 1,22,-1
 1549 75 l 1,23,-1
 1635 326 l 1,24,-1
 1695 313 l 1,25,-1
 1665 0 l 1,26,-1
 703 0 l 1,27,-1
 710 58 l 1,28,-1
 890 96 l 1,29,-1
 890 472 l 1,30,-1
 535 472 l 1,31,-1
 308 96 l 1,32,-1
 494 66 l 1,33,-1
 484 2 l 1,34,-1
 49 2 l 1,3,-1
EndSplineSet
Colour: ffff00
EndChar

StartChar: B
Encoding: 66 66 2
Width: 1097
VWidth: 0
Flags: HMW
LayerCount: 2
Fore
SplineSet
371 685 m 1,0,-1
 655 685 l 1,1,2
 720 719 720 719 761 779.5 c 128,-1,3
 802 840 802 840 802 922 c 0,4,5
 802 1045 802 1045 719.5 1118.5 c 128,-1,6
 637 1192 637 1192 471 1192 c 0,7,8
 403 1192 403 1192 371 1186 c 1,9,-1
 371 685 l 1,0,-1
371 75 m 1,10,-1
 603 75 l 2,11,12
 681 75 681 75 740 98.5 c 128,-1,13
 799 122 799 122 833 161.5 c 128,-1,14
 867 201 867 201 883.5 247.5 c 128,-1,15
 900 294 900 294 900 347 c 0,16,17
 900 396 900 396 884 442 c 128,-1,18
 868 488 868 488 835 528.5 c 128,-1,19
 802 569 802 569 744 593.5 c 128,-1,20
 686 618 686 618 610 618 c 2,21,-1
 371 618 l 1,22,-1
 371 75 l 1,10,-1
46 0 m 1,23,-1
 56 58 l 1,24,-1
 224 96 l 1,25,-1
 224 1129 l 1,26,-1
 53 1155 l 1,27,-1
 62 1211 l 1,28,29
 74 1213 74 1213 132.5 1221.5 c 128,-1,30
 191 1230 191 1230 211 1232.5 c 128,-1,31
 231 1235 231 1235 282 1241.5 c 128,-1,32
 333 1248 333 1248 364.5 1250 c 128,-1,33
 396 1252 396 1252 441.5 1254.5 c 128,-1,34
 487 1257 487 1257 530 1257 c 0,35,36
 733 1257 733 1257 840 1173.5 c 128,-1,37
 947 1090 947 1090 947 967 c 0,38,39
 947 875 947 875 894.5 800 c 128,-1,40
 842 725 842 725 741 679 c 1,41,-1
 741 672 l 1,42,43
 886 664 886 664 968.5 576.5 c 128,-1,44
 1051 489 1051 489 1051 380 c 0,45,46
 1051 320 1051 320 1035.5 266.5 c 128,-1,47
 1020 213 1020 213 981 163.5 c 128,-1,48
 942 114 942 114 883 78.5 c 128,-1,49
 824 43 824 43 730.5 21.5 c 128,-1,50
 637 0 637 0 518 0 c 2,51,-1
 46 0 l 1,23,-1
EndSplineSet
Colour: ffff00
EndChar

StartChar: C
Encoding: 67 67 3
Width: 1096
VWidth: 0
Flags: HMW
LayerCount: 2
Fore
SplineSet
50 599 m 0,0,1
 50 690 50 690 72 782 c 128,-1,2
 94 874 94 874 142 962.5 c 128,-1,3
 190 1051 190 1051 258.5 1119 c 128,-1,4
 327 1187 327 1187 429.5 1228.5 c 128,-1,5
 532 1270 532 1270 653 1270 c 0,6,7
 874 1270 874 1270 1004 1171 c 1,8,-1
 973 836 l 1,9,-1
 905 846 l 1,10,-1
 869 1086 l 1,11,12
 785 1195 785 1195 601 1195 c 0,13,14
 438 1195 438 1195 325.5 1043 c 128,-1,15
 213 891 213 891 213 651 c 0,16,17
 213 383 213 383 339.5 233.5 c 128,-1,18
 466 84 466 84 669 84 c 0,19,20
 769 84 769 84 862 132 c 128,-1,21
 955 180 955 180 1026 252 c 1,22,-1
 1055 195 l 1,23,24
 992 111 992 111 868.5 43 c 128,-1,25
 745 -25 745 -25 600 -25 c 0,26,27
 485 -25 485 -25 385 18 c 128,-1,28
 285 61 285 61 210.5 139.5 c 128,-1,29
 136 218 136 218 93 336.5 c 128,-1,30
 50 455 50 455 50 599 c 0,0,1
EndSplineSet
Colour: ffff00
EndChar

StartChar: D
Encoding: 68 68 4
Width: 1302
VWidth: 0
Flags: HMW
LayerCount: 2
Fore
SplineSet
373 79 m 1,0,-1
 535 79 l 2,1,2
 795 79 795 79 943 223.5 c 128,-1,3
 1091 368 1091 368 1091 599 c 0,4,5
 1091 726 1091 726 1054.5 831.5 c 128,-1,6
 1018 937 1018 937 948.5 1015.5 c 128,-1,7
 879 1094 879 1094 769.5 1137.5 c 128,-1,8
 660 1181 660 1181 521 1181 c 0,9,10
 414 1181 414 1181 373 1176 c 1,11,-1
 373 79 l 1,0,-1
45 0 m 1,12,-1
 56 58 l 1,13,-1
 227 101 l 1,14,-1
 227 1128 l 1,15,-1
 54 1154 l 1,16,-1
 64 1210 l 1,17,18
 375 1259 375 1259 557 1259 c 0,19,20
 712 1259 712 1259 834 1225 c 128,-1,21
 956 1191 956 1191 1034 1135 c 128,-1,22
 1112 1079 1112 1079 1162.5 999.5 c 128,-1,23
 1213 920 1213 920 1233.5 835.5 c 128,-1,24
 1254 751 1254 751 1254 654 c 0,25,26
 1254 550 1254 550 1226 454.5 c 128,-1,27
 1198 359 1198 359 1138.5 276 c 128,-1,28
 1079 193 1079 193 992.5 132 c 128,-1,29
 906 71 906 71 781.5 35.5 c 128,-1,30
 657 0 657 0 508 0 c 2,31,-1
 45 0 l 1,12,-1
EndSplineSet
Colour: ffff00
EndChar

StartChar: E
Encoding: 69 69 5
Width: 1098
VWidth: 0
Flags: HMW
LayerCount: 2
Fore
SplineSet
47 1185 m 1,0,-1
 56 1244 l 1,1,-1
 1007 1244 l 1,2,-1
 976 925 l 1,3,-1
 909 934 l 1,4,-1
 879 1173 l 1,5,-1
 376 1173 l 1,6,-1
 376 668 l 1,7,-1
 691 668 l 1,8,-1
 731 797 l 1,9,-1
 803 808 l 1,10,-1
 770 419 l 1,11,-1
 704 408 l 1,12,-1
 679 594 l 1,13,-1
 376 594 l 1,14,-1
 376 75 l 1,15,-1
 905 75 l 1,16,-1
 991 324 l 1,17,-1
 1053 313 l 1,18,-1
 1023 0 l 1,19,-1
 53 0 l 1,20,-1
 59 58 l 1,21,-1
 228 96 l 1,22,-1
 228 1151 l 1,23,-1
 47 1185 l 1,0,-1
EndSplineSet
Colour: ffff00
EndChar

StartChar: Ecircumflex
Encoding: 202 202 6
Width: 1098
VWidth: 0
Flags: HMW
LayerCount: 2
Fore
SplineSet
366 1402 m 1,0,-1
 534 1582 l 1,1,-1
 589 1596 l 1,2,-1
 767 1410 l 1,3,-1
 727 1373 l 1,4,-1
 554 1495 l 1,5,-1
 545 1495 l 1,6,-1
 396 1372 l 1,7,-1
 366 1402 l 1,0,-1
47 1185 m 1,8,-1
 56 1244 l 1,9,-1
 1007 1244 l 1,10,-1
 976 925 l 1,11,-1
 909 934 l 1,12,-1
 879 1173 l 1,13,-1
 376 1173 l 1,14,-1
 376 668 l 1,15,-1
 691 668 l 1,16,-1
 731 797 l 1,17,-1
 803 808 l 1,18,-1
 770 419 l 1,19,-1
 704 408 l 1,20,-1
 679 594 l 1,21,-1
 376 594 l 1,22,-1
 376 75 l 1,23,-1
 905 75 l 1,24,-1
 991 324 l 1,25,-1
 1053 313 l 1,26,-1
 1023 0 l 1,27,-1
 53 0 l 1,28,-1
 59 58 l 1,29,-1
 228 96 l 1,30,-1
 228 1151 l 1,31,-1
 47 1185 l 1,8,-1
EndSplineSet
Colour: ffff00
EndChar

StartChar: Eth
Encoding: 208 208 7
Width: 1314
VWidth: 0
Flags: HMW
LayerCount: 2
Fore
SplineSet
378 79 m 1,0,-1
 574 79 l 2,1,2
 740 79 740 79 861 148 c 128,-1,3
 982 217 982 217 1041.5 333.5 c 128,-1,4
 1101 450 1101 450 1101 599 c 0,5,6
 1101 726 1101 726 1064 831.5 c 128,-1,7
 1027 937 1027 937 956.5 1015.5 c 128,-1,8
 886 1094 886 1094 776 1138 c 128,-1,9
 666 1182 666 1182 526 1182 c 0,10,11
 427 1182 427 1182 378 1176 c 1,12,-1
 378 672 l 1,13,-1
 650 692 l 1,14,-1
 640 616 l 1,15,-1
 378 597 l 1,16,-1
 378 79 l 1,0,-1
51 574 m 1,17,-1
 61 650 l 1,18,-1
 232 662 l 1,19,-1
 232 1129 l 1,20,-1
 59 1155 l 1,21,-1
 69 1211 l 1,22,23
 380 1260 380 1260 562 1260 c 0,24,25
 718 1260 718 1260 840.5 1226.5 c 128,-1,26
 963 1193 963 1193 1041.5 1137 c 128,-1,27
 1120 1081 1120 1081 1171.5 1002 c 128,-1,28
 1223 923 1223 923 1244.5 838.5 c 128,-1,29
 1266 754 1266 754 1266 657 c 0,30,31
 1266 555 1266 555 1237.5 460 c 128,-1,32
 1209 365 1209 365 1148.5 281 c 128,-1,33
 1088 197 1088 197 1001.5 135 c 128,-1,34
 915 73 915 73 792 36.5 c 128,-1,35
 669 0 669 0 522 0 c 2,36,-1
 50 0 l 1,37,-1
 61 58 l 1,38,-1
 232 101 l 1,39,-1
 232 587 l 1,40,-1
 51 574 l 1,17,-1
EndSplineSet
Colour: ffff00
EndChar

StartChar: Euro
Encoding: 8364 8364 8
Width: 1174
VWidth: 0
Flags: HMW
LayerCount: 2
Fore
SplineSet
56 672 m 1,0,-1
 61 754 l 1,1,-1
 226 754 l 1,2,3
 240 838 240 838 270.5 913.5 c 128,-1,4
 301 989 301 989 350 1054.5 c 128,-1,5
 399 1120 399 1120 462 1167.5 c 128,-1,6
 525 1215 525 1215 609 1242.5 c 128,-1,7
 693 1270 693 1270 790 1270 c 0,8,9
 891 1270 891 1270 964 1247.5 c 128,-1,10
 1037 1225 1037 1225 1108 1171 c 1,11,-1
 1076 836 l 1,12,-1
 1011 846 l 1,13,-1
 974 1086 l 1,14,15
 938 1139 938 1139 891.5 1164.5 c 128,-1,16
 845 1190 845 1190 760 1190 c 0,17,18
 599 1190 599 1190 503 1074.5 c 128,-1,19
 407 959 407 959 386 754 c 1,20,-1
 925 754 l 1,21,-1
 908 672 l 1,22,-1
 381 672 l 1,23,24
 381 657 381 657 381 641 c 0,25,26
 381 608 381 608 383 576 c 1,27,-1
 878 576 l 1,28,-1
 861 493 l 1,29,-1
 391 493 l 1,30,31
 419 291 419 291 523 177 c 128,-1,32
 627 63 627 63 788 63 c 0,33,34
 840 63 840 63 895 90.5 c 128,-1,35
 950 118 950 118 990 173 c 1,36,-1
 1027 417 l 1,37,-1
 1093 426 l 1,38,-1
 1124 107 l 1,39,40
 1029 36 1029 36 942.5 5.5 c 128,-1,41
 856 -25 856 -25 737 -25 c 0,42,43
 528 -25 528 -25 389 114.5 c 128,-1,44
 250 254 250 254 221 493 c 1,45,-1
 47 493 l 1,46,-1
 53 576 l 1,47,-1
 215 576 l 1,48,49
 214 593 214 593 214 610 c 0,50,51
 214 641 214 641 216 672 c 1,52,-1
 56 672 l 1,0,-1
EndSplineSet
Colour: ffff00
EndChar

StartChar: F
Encoding: 70 70 9
Width: 1053
VWidth: 0
Flags: HMW
LayerCount: 2
Fore
SplineSet
48 1185 m 1,0,-1
 56 1244 l 1,1,-1
 1006 1244 l 1,2,-1
 969 923 l 1,3,-1
 901 933 l 1,4,-1
 873 1173 l 1,5,-1
 376 1173 l 1,6,-1
 376 652 l 1,7,-1
 687 652 l 1,8,-1
 728 782 l 1,9,-1
 799 792 l 1,10,-1
 770 402 l 1,11,-1
 701 391 l 1,12,-1
 677 579 l 1,13,-1
 376 579 l 1,14,-1
 375 96 l 1,15,-1
 616 68 l 1,16,-1
 604 0 l 1,17,-1
 53 0 l 1,18,-1
 58 58 l 1,19,-1
 227 96 l 1,20,-1
 227 1151 l 1,21,-1
 48 1185 l 1,0,-1
EndSplineSet
Colour: ffff00
EndChar

StartChar: G
Encoding: 71 71 10
Width: 1258
VWidth: 0
Flags: HMW
LayerCount: 2
Fore
SplineSet
50 591 m 0,0,1
 50 773 50 773 131.5 926.5 c 128,-1,2
 213 1080 213 1080 357.5 1171 c 128,-1,3
 502 1262 502 1262 677 1262 c 0,4,5
 796 1262 796 1262 902 1236.5 c 128,-1,6
 1008 1211 1008 1211 1080 1162 c 1,7,-1
 1052 841 l 1,8,-1
 986 852 l 1,9,-1
 953 1066 l 1,10,11
 913 1112 913 1112 828.5 1147 c 128,-1,12
 744 1182 744 1182 635 1182 c 0,13,14
 450 1182 450 1182 332 1037 c 128,-1,15
 214 892 214 892 214 640 c 0,16,17
 214 550 214 550 232.5 467 c 128,-1,18
 251 384 251 384 290.5 309.5 c 128,-1,19
 330 235 330 235 387 180 c 128,-1,20
 444 125 444 125 527 93 c 128,-1,21
 610 61 610 61 710 61 c 0,22,23
 840 61 840 61 926 119 c 1,24,-1
 927 463 l 1,25,-1
 688 495 l 1,26,-1
 698 556 l 1,27,-1
 1216 556 l 1,28,-1
 1206 499 l 1,29,-1
 1077 467 l 1,30,-1
 1077 79 l 1,31,32
 980 21 980 21 868 -2.5 c 128,-1,33
 756 -26 756 -26 601 -26 c 0,34,35
 349 -26 349 -26 199.5 145 c 128,-1,36
 50 316 50 316 50 591 c 0,0,1
EndSplineSet
Colour: ffff00
EndChar

StartChar: Germandbls
Encoding: 7838 7838 11
Width: 1264
VWidth: 0
Flags: HMW
LayerCount: 2
Fore
SplineSet
46 0 m 1,0,-1
 53 57 l 1,1,-1
 220 96 l 1,2,-1
 220 758 l 2,3,4
 220 1261 220 1261 699 1261 c 0,5,6
 773 1261 773 1261 850.5 1248.5 c 128,-1,7
 928 1236 928 1236 998.5 1211.5 c 128,-1,8
 1069 1187 1069 1187 1113.5 1144 c 128,-1,9
 1158 1101 1158 1101 1158 1048 c 0,10,11
 1158 1001 1158 1001 1133.5 975.5 c 128,-1,12
 1109 950 1109 950 1056 932 c 1,13,14
 998 1153 998 1153 845 1153 c 0,15,16
 775 1153 775 1153 715 1094.5 c 128,-1,17
 655 1036 655 1036 655 946 c 0,18,19
 655 892 655 892 679 846 c 128,-1,20
 703 800 703 800 743 767 c 128,-1,21
 783 734 783 734 833.5 701.5 c 128,-1,22
 884 669 884 669 937 642 c 128,-1,23
 990 615 990 615 1040.5 580.5 c 128,-1,24
 1091 546 1091 546 1131 510 c 128,-1,25
 1171 474 1171 474 1195 423 c 128,-1,26
 1219 372 1219 372 1219 312 c 0,27,28
 1219 159 1219 159 1106 67 c 128,-1,29
 993 -25 993 -25 814 -25 c 0,30,31
 708 -25 708 -25 619 14 c 128,-1,32
 530 53 530 53 484 118 c 1,33,-1
 505 388 l 1,34,-1
 577 377 l 1,35,-1
 608 179 l 1,36,37
 638 125 638 125 706.5 91 c 128,-1,38
 775 57 775 57 852 57 c 0,39,40
 946 57 946 57 1009.5 106 c 128,-1,41
 1073 155 1073 155 1073 256 c 0,42,43
 1073 310 1073 310 1042.5 356 c 128,-1,44
 1012 402 1012 402 963.5 436 c 128,-1,45
 915 470 915 470 856.5 502.5 c 128,-1,46
 798 535 798 535 739 570.5 c 128,-1,47
 680 606 680 606 631.5 646.5 c 128,-1,48
 583 687 583 687 552.5 745.5 c 128,-1,49
 522 804 522 804 522 874 c 0,50,51
 522 982 522 982 583.5 1071 c 128,-1,52
 645 1160 645 1160 747 1184 c 1,53,-1
 749 1188 l 1,54,55
 719 1191 719 1191 661 1191 c 0,56,57
 516 1191 516 1191 441 1083 c 128,-1,58
 366 975 366 975 366 780 c 2,59,-1
 366 0 l 1,60,-1
 46 0 l 1,0,-1
EndSplineSet
Colour: ff00ff
EndChar

StartChar: H
Encoding: 72 72 12
Width: 1435
VWidth: 0
Flags: HMW
LayerCount: 2
Fore
SplineSet
46 1187 m 1,0,-1
 53 1244 l 1,1,-1
 554 1244 l 1,2,-1
 546 1187 l 1,3,-1
 377 1156 l 1,4,-1
 377 672 l 1,5,-1
 1050 672 l 1,6,-1
 1050 1154 l 1,7,-1
 867 1187 l 1,8,-1
 876 1244 l 1,9,-1
 1376 1244 l 1,10,-1
 1367 1187 l 1,11,-1
 1200 1156 l 1,12,-1
 1200 90 l 1,13,-1
 1382 63 l 1,14,-1
 1374 0 l 1,15,-1
 875 0 l 1,16,-1
 885 58 l 1,17,-1
 1050 96 l 1,18,-1
 1050 592 l 1,19,-1
 377 591 l 1,20,-1
 377 90 l 1,21,-1
 563 63 l 1,22,-1
 551 0 l 1,23,-1
 54 0 l 1,24,-1
 60 58 l 1,25,-1
 228 96 l 1,26,-1
 228 1154 l 1,27,-1
 46 1187 l 1,0,-1
EndSplineSet
Colour: ffff00
EndChar

StartChar: I
Encoding: 73 73 13
Width: 614
VWidth: 0
Flags: HMW
LayerCount: 2
Fore
SplineSet
46 1187 m 1,0,-1
 54 1244 l 1,1,-1
 555 1244 l 1,2,-1
 546 1187 l 1,3,-1
 374 1156 l 1,4,-1
 374 90 l 1,5,-1
 561 63 l 1,6,-1
 551 0 l 1,7,-1
 54 0 l 1,8,-1
 61 58 l 1,9,-1
 223 96 l 1,10,-1
 223 1154 l 1,11,-1
 46 1187 l 1,0,-1
EndSplineSet
Colour: ffff00
EndChar

StartChar: J
Encoding: 74 74 14
Width: 656
VWidth: 0
Flags: HMW
LayerCount: 2
Fore
SplineSet
38 -259 m 1,0,1
 163 -146 163 -146 223 -36 c 128,-1,2
 283 74 283 74 283 209 c 2,3,-1
 283 1154 l 1,4,-1
 101 1187 l 1,5,-1
 109 1244 l 1,6,-1
 612 1244 l 1,7,-1
 603 1187 l 1,8,-1
 433 1156 l 1,9,-1
 431 372 l 2,10,11
 430 250 430 250 418 162.5 c 128,-1,12
 406 75 406 75 383.5 7 c 128,-1,13
 361 -61 361 -61 316 -117.5 c 128,-1,14
 271 -174 271 -174 217 -220.5 c 128,-1,15
 163 -267 163 -267 76 -325 c 1,16,-1
 38 -259 l 1,0,1
EndSplineSet
Colour: ffff00
EndChar

StartChar: K
Encoding: 75 75 15
Width: 1251
VWidth: 0
Flags: HMW
LayerCount: 2
Fore
SplineSet
417 623 m 1,0,1
 517 728 517 728 567 790 c 2,2,-1
 856 1151 l 1,3,-1
 691 1187 l 1,4,-1
 697 1244 l 1,5,-1
 1147 1244 l 1,6,-1
 1140 1187 l 1,7,-1
 975 1152 l 1,8,-1
 564 649 l 1,9,-1
 809 358 l 2,10,11
 937 206 937 206 1003 147 c 128,-1,12
 1069 88 1069 88 1154 68 c 1,13,-1
 1200 58 l 1,14,-1
 1189 2 l 1,15,16
 1123 -21 1123 -21 1070 -21 c 0,17,18
 1016 -21 1016 -21 966 -1.5 c 128,-1,19
 916 18 916 18 868.5 58 c 128,-1,20
 821 98 821 98 783.5 140 c 128,-1,21
 746 182 746 182 696 246 c 2,22,-1
 419 604 l 1,23,-1
 417 623 l 1,0,1
46 1187 m 1,24,-1
 56 1244 l 1,25,-1
 556 1244 l 1,26,-1
 549 1187 l 1,27,-1
 378 1152 l 1,28,-1
 378 95 l 1,29,-1
 565 63 l 1,30,-1
 555 0 l 1,31,-1
 55 0 l 1,32,-1
 63 58 l 1,33,-1
 227 101 l 1,34,-1
 227 1149 l 1,35,-1
 46 1187 l 1,24,-1
EndSplineSet
Colour: ffff00
EndChar

StartChar: L
Encoding: 76 76 16
Width: 1078
VWidth: 0
Flags: HMW
LayerCount: 2
Fore
SplineSet
52 0 m 1,0,-1
 60 58 l 1,1,-1
 227 96 l 1,2,-1
 227 1148 l 1,3,-1
 47 1186 l 1,4,-1
 56 1244 l 1,5,-1
 558 1244 l 1,6,-1
 551 1186 l 1,7,-1
 376 1152 l 1,8,-1
 376 75 l 1,9,-1
 863 75 l 1,10,-1
 968 341 l 1,11,-1
 1032 331 l 1,12,-1
 998 0 l 1,13,-1
 52 0 l 1,0,-1
EndSplineSet
Colour: ffff00
EndChar

StartChar: M
Encoding: 77 77 17
Width: 1711
VWidth: 0
Flags: HMW
LayerCount: 2
Fore
SplineSet
44 0 m 1,0,-1
 52 54 l 1,1,-1
 220 92 l 1,2,-1
 297 1151 l 1,3,-1
 113 1188 l 1,4,-1
 122 1244 l 1,5,-1
 482 1244 l 1,6,-1
 557 1053 l 1,7,-1
 844 268 l 1,8,-1
 1178 1092 l 1,9,-1
 1245 1244 l 1,10,-1
 1605 1244 l 1,11,-1
 1598 1188 l 1,12,-1
 1427 1154 l 1,13,-1
 1481 86 l 1,14,-1
 1662 60 l 1,15,-1
 1656 0 l 1,16,-1
 1157 0 l 1,17,-1
 1165 54 l 1,18,-1
 1334 92 l 1,19,-1
 1277 1087 l 1,20,-1
 854 55 l 1,21,-1
 765 41 l 1,22,-1
 389 1059 l 1,23,-1
 318 86 l 1,24,-1
 501 60 l 1,25,-1
 491 0 l 1,26,-1
 44 0 l 1,0,-1
EndSplineSet
Colour: ffff00
EndChar

StartChar: N
Encoding: 78 78 18
Width: 1368
VWidth: 0
Flags: HMW
LayerCount: 2
Fore
SplineSet
46 1188 m 1,0,-1
 56 1244 l 1,1,-1
 383 1244 l 1,2,-1
 1050 225 l 1,3,-1
 1050 1154 l 1,4,-1
 865 1187 l 1,5,-1
 874 1244 l 1,6,-1
 1324 1244 l 1,7,-1
 1313 1187 l 1,8,-1
 1147 1156 l 1,9,-1
 1147 -3 l 1,10,-1
 1043 -24 l 1,11,-1
 330 1047 l 1,12,-1
 330 90 l 1,13,-1
 514 63 l 1,14,-1
 504 0 l 1,15,-1
 56 0 l 1,16,-1
 62 58 l 1,17,-1
 229 96 l 1,18,-1
 229 1147 l 1,19,-1
 46 1188 l 1,0,-1
EndSplineSet
Colour: ffff00
EndChar

StartChar: O
Encoding: 79 79 19
Width: 1266
VWidth: 0
Flags: HMW
LayerCount: 2
Fore
SplineSet
217 678 m 0,0,1
 217 551 217 551 244 440.5 c 128,-1,2
 271 330 271 330 322.5 244 c 128,-1,3
 374 158 374 158 457.5 108 c 128,-1,4
 541 58 541 58 647 58 c 0,5,6
 733 58 733 58 803 88.5 c 128,-1,7
 873 119 873 119 918.5 169.5 c 128,-1,8
 964 220 964 220 994.5 287.5 c 128,-1,9
 1025 355 1025 355 1038.5 426.5 c 128,-1,10
 1052 498 1052 498 1052 574 c 0,11,12
 1052 744 1052 744 1005 883 c 128,-1,13
 958 1022 958 1022 858 1109.5 c 128,-1,14
 758 1197 758 1197 620 1197 c 0,15,16
 534 1197 534 1197 464.5 1168 c 128,-1,17
 395 1139 395 1139 349.5 1090 c 128,-1,18
 304 1041 304 1041 273.5 973.5 c 128,-1,19
 243 906 243 906 230 832.5 c 128,-1,20
 217 759 217 759 217 678 c 0,0,1
50 620 m 0,21,22
 50 812 50 812 124.5 960 c 128,-1,23
 199 1108 199 1108 340.5 1191 c 128,-1,24
 482 1274 482 1274 669 1274 c 0,25,26
 798 1274 798 1274 903 1223 c 128,-1,27
 1008 1172 1008 1172 1076 1083.5 c 128,-1,28
 1144 995 1144 995 1181 877.5 c 128,-1,29
 1218 760 1218 760 1218 624 c 0,30,31
 1218 525 1218 525 1193.5 431.5 c 128,-1,32
 1169 338 1169 338 1118 254.5 c 128,-1,33
 1067 171 1067 171 995 108.5 c 128,-1,34
 923 46 923 46 821 9.5 c 128,-1,35
 719 -27 719 -27 599 -27 c 0,36,37
 438 -27 438 -27 311.5 60.5 c 128,-1,38
 185 148 185 148 117.5 295 c 128,-1,39
 50 442 50 442 50 620 c 0,21,22
EndSplineSet
Colour: ffff00
EndChar

StartChar: Oslash
Encoding: 216 216 20
Width: 1264
VWidth: 0
Flags: HMW
LayerCount: 2
Fore
SplineSet
50 620 m 0,0,1
 50 812 50 812 124.5 960 c 128,-1,2
 199 1108 199 1108 340 1191 c 128,-1,3
 481 1274 481 1274 668 1274 c 128,-1,4
 855 1274 855 1274 989 1170 c 1,5,-1
 1037 1233 l 1,6,-1
 1158 1220 l 1,7,-1
 1060 1102 l 1,8,9
 1136 1014 1136 1014 1176 891 c 128,-1,10
 1216 768 1216 768 1216 624 c 0,11,12
 1216 525 1216 525 1191.5 431.5 c 128,-1,13
 1167 338 1167 338 1116 254.5 c 128,-1,14
 1065 171 1065 171 993.5 108.5 c 128,-1,15
 922 46 922 46 820 9.5 c 128,-1,16
 718 -27 718 -27 598 -27 c 0,17,18
 419 -27 419 -27 284 80 c 1,19,-1
 224 -5 l 1,20,-1
 108 8 l 1,21,-1
 212 148 l 1,22,23
 134 237 134 237 92 359 c 128,-1,24
 50 481 50 481 50 620 c 0,0,1
354 199 m 1,25,26
 468 58 468 58 647 58 c 0,27,28
 733 58 733 58 802.5 88.5 c 128,-1,29
 872 119 872 119 917.5 169.5 c 128,-1,30
 963 220 963 220 994 287.5 c 128,-1,31
 1025 355 1025 355 1038 426.5 c 128,-1,32
 1051 498 1051 498 1051 574 c 0,33,34
 1051 822 1051 822 954 991 c 1,35,-1
 354 199 l 1,25,26
316 255 m 1,36,-1
 916 1048 l 1,37,38
 801 1197 801 1197 619 1197 c 0,39,40
 533 1197 533 1197 463.5 1168 c 128,-1,41
 394 1139 394 1139 348.5 1090 c 128,-1,42
 303 1041 303 1041 272 973.5 c 128,-1,43
 241 906 241 906 228 832.5 c 128,-1,44
 215 759 215 759 215 678 c 0,45,46
 215 423 215 423 316 255 c 1,36,-1
EndSplineSet
Colour: ffff00
EndChar

StartChar: P
Encoding: 80 80 21
Width: 1039
VWidth: 0
Flags: HMW
LayerCount: 2
Fore
SplineSet
46 0 m 1,0,-1
 54 58 l 1,1,-1
 217 96 l 1,2,-1
 217 1129 l 1,3,-1
 51 1155 l 1,4,-1
 59 1211 l 1,5,6
 68 1212 68 1212 107 1218.5 c 128,-1,7
 146 1225 146 1225 159 1227 c 128,-1,8
 172 1229 172 1229 209 1234 c 128,-1,9
 246 1239 246 1239 265 1241 c 128,-1,10
 284 1243 284 1243 318.5 1246.5 c 128,-1,11
 353 1250 353 1250 378.5 1251.5 c 128,-1,12
 404 1253 404 1253 436.5 1254.5 c 128,-1,13
 469 1256 469 1256 500 1256 c 0,14,15
 582 1256 582 1256 652.5 1244.5 c 128,-1,16
 723 1233 723 1233 786.5 1206.5 c 128,-1,17
 850 1180 850 1180 895 1139 c 128,-1,18
 940 1098 940 1098 966.5 1035.5 c 128,-1,19
 993 973 993 973 993 893 c 0,20,21
 993 776 993 776 926 682 c 128,-1,22
 859 588 859 588 751 538 c 128,-1,23
 643 488 643 488 519 488 c 0,24,25
 480 488 480 488 445 491 c 1,26,-1
 430 553 l 1,27,-1
 483 555 l 2,28,29
 658 562 658 562 742.5 644 c 128,-1,30
 827 726 827 726 827 865 c 0,31,32
 827 931 827 931 806 988.5 c 128,-1,33
 785 1046 785 1046 743 1092 c 128,-1,34
 701 1138 701 1138 632 1165 c 128,-1,35
 563 1192 563 1192 474 1192 c 1,36,-1
 368 1186 l 1,37,-1
 368 94 l 1,38,-1
 603 65 l 1,39,-1
 592 0 l 1,40,-1
 46 0 l 1,0,-1
EndSplineSet
Colour: ffff00
EndChar

StartChar: Q
Encoding: 81 81 22
Width: 1273
VWidth: 0
Flags: HMW
LayerCount: 2
Fore
SplineSet
207 670 m 0,0,1
 207 578 207 578 226 490.5 c 128,-1,2
 245 403 245 403 285 324 c 128,-1,3
 325 245 325 245 382.5 185 c 128,-1,4
 440 125 440 125 521.5 88 c 128,-1,5
 603 51 603 51 699 47 c 1,6,7
 820 74 820 74 905 154.5 c 128,-1,8
 990 235 990 235 1029 341 c 128,-1,9
 1068 447 1068 447 1068 568 c 0,10,11
 1068 738 1068 738 1015 879.5 c 128,-1,12
 962 1021 962 1021 859 1107 c 128,-1,13
 756 1193 756 1193 623 1193 c 0,14,15
 427 1193 427 1193 317 1050.5 c 128,-1,16
 207 908 207 908 207 670 c 0,0,1
50 614 m 0,17,18
 50 805 50 805 127 955 c 128,-1,19
 204 1105 204 1105 347 1189.5 c 128,-1,20
 490 1274 490 1274 676 1274 c 0,21,22
 804 1274 804 1274 909 1223.5 c 128,-1,23
 1014 1173 1014 1173 1082.5 1085 c 128,-1,24
 1151 997 1151 997 1188 880 c 128,-1,25
 1225 763 1225 763 1225 629 c 0,26,27
 1225 485 1225 485 1172 354 c 128,-1,28
 1119 223 1119 223 1010 124 c 128,-1,29
 901 25 901 25 755 -9 c 1,30,31
 818 -149 818 -149 913 -209.5 c 128,-1,32
 1008 -270 1008 -270 1191 -294 c 1,33,34
 1188 -338 1188 -338 1181 -355 c 1,35,36
 1118 -385 1118 -385 1017 -385 c 0,37,38
 883 -385 883 -385 787.5 -283 c 128,-1,39
 692 -181 692 -181 672 -21 c 1,40,41
 638 -27 638 -27 600 -27 c 0,42,43
 443 -27 443 -27 316.5 58.5 c 128,-1,44
 190 144 190 144 120 290.5 c 128,-1,45
 50 437 50 437 50 614 c 0,17,18
EndSplineSet
Colour: ffff00
EndChar

StartChar: R
Encoding: 82 82 23
Width: 1223
VWidth: 0
Flags: HMW
LayerCount: 2
Fore
SplineSet
364 628 m 1,0,-1
 577 628 l 1,1,2
 669 661 669 661 731.5 736 c 128,-1,3
 794 811 794 811 794 910 c 0,4,5
 794 1039 794 1039 711.5 1114 c 128,-1,6
 629 1189 629 1189 485 1189 c 1,7,-1
 364 1184 l 1,8,-1
 364 628 l 1,0,-1
46 0 m 1,9,-1
 55 58 l 1,10,-1
 217 96 l 1,11,-1
 217 1127 l 1,12,-1
 51 1153 l 1,13,-1
 61 1209 l 1,14,15
 338 1254 338 1254 501 1254 c 0,16,17
 706 1254 706 1254 829 1179.5 c 128,-1,18
 952 1105 952 1105 952 952 c 0,19,20
 952 847 952 847 883 756.5 c 128,-1,21
 814 666 814 666 671 605 c 1,22,-1
 671 604 l 1,23,-1
 857 336 l 2,24,25
 958 191 958 191 1011 138.5 c 128,-1,26
 1064 86 1064 86 1134 64 c 2,27,-1
 1175 51 l 1,28,-1
 1164 -2 l 1,29,30
 1115 -19 1115 -19 1058 -19 c 0,31,32
 1008 -19 1008 -19 963.5 0 c 128,-1,33
 919 19 919 19 879.5 57 c 128,-1,34
 840 95 840 95 807.5 139 c 128,-1,35
 775 183 775 183 739 245 c 2,36,-1
 558 554 l 1,37,-1
 364 554 l 1,38,-1
 364 96 l 1,39,-1
 564 64 l 1,40,-1
 554 0 l 1,41,-1
 46 0 l 1,9,-1
EndSplineSet
Colour: ffff00
EndChar

StartChar: S
Encoding: 83 83 24
Width: 850
VWidth: 0
Flags: HMW
LayerCount: 2
Fore
SplineSet
48 119 m 1,0,-1
 70 395 l 1,1,-1
 145 384 l 1,2,-1
 178 181 l 1,3,4
 209 126 209 126 275.5 91.5 c 128,-1,5
 342 57 342 57 419 57 c 0,6,7
 514 57 514 57 586 113.5 c 128,-1,8
 658 170 658 170 658 274 c 0,9,10
 658 331 658 331 626.5 379.5 c 128,-1,11
 595 428 595 428 544 465.5 c 128,-1,12
 493 503 493 503 432 539 c 128,-1,13
 371 575 371 575 310 614 c 128,-1,14
 249 653 249 653 198 697 c 128,-1,15
 147 741 147 741 115.5 803 c 128,-1,16
 84 865 84 865 84 938 c 0,17,18
 84 1040 84 1040 137.5 1117.5 c 128,-1,19
 191 1195 191 1195 272 1232.5 c 128,-1,20
 353 1270 353 1270 445 1270 c 0,21,22
 622 1270 622 1270 732 1165 c 1,23,-1
 705 869 l 1,24,-1
 632 878 l 1,25,-1
 606 1096 l 1,26,27
 585 1136 585 1136 529 1168 c 128,-1,28
 473 1200 473 1200 415 1200 c 0,29,30
 331 1200 331 1200 275.5 1147.5 c 128,-1,31
 220 1095 220 1095 220 1001 c 0,32,33
 220 940 220 940 252.5 887.5 c 128,-1,34
 285 835 285 835 336.5 796.5 c 128,-1,35
 388 758 388 758 450 721 c 128,-1,36
 512 684 512 684 574.5 645.5 c 128,-1,37
 637 607 637 607 688.5 564 c 128,-1,38
 740 521 740 521 772.5 461.5 c 128,-1,39
 805 402 805 402 805 331 c 0,40,41
 805 176 805 176 683 75.5 c 128,-1,42
 561 -25 561 -25 381 -25 c 0,43,44
 277 -25 277 -25 188 16 c 128,-1,45
 99 57 99 57 48 119 c 1,0,-1
EndSplineSet
Colour: ffff00
EndChar

StartChar: T
Encoding: 84 84 25
Width: 1166
VWidth: 0
Flags: HMW
LayerCount: 2
Fore
SplineSet
46 1244 m 1,0,-1
 1118 1244 l 1,1,-1
 1084 909 l 1,2,-1
 1011 920 l 1,3,-1
 984 1173 l 1,4,-1
 646 1173 l 1,5,-1
 646 94 l 1,6,-1
 827 63 l 1,7,-1
 815 0 l 1,8,-1
 318 0 l 1,9,-1
 324 58 l 1,10,-1
 496 96 l 1,11,-1
 496 1173 l 1,12,-1
 171 1173 l 1,13,-1
 126 912 l 1,14,-1
 55 923 l 1,15,-1
 46 1244 l 1,0,-1
EndSplineSet
Colour: ffff00
EndChar

StartChar: Thorn
Encoding: 222 222 26
Width: 1045
VWidth: 0
Flags: HMW
LayerCount: 2
Fore
SplineSet
47 1187 m 1,0,-1
 55 1244 l 1,1,-1
 556 1244 l 1,2,-1
 548 1187 l 1,3,-1
 375 1156 l 1,4,-1
 375 1021 l 1,5,6
 436 1024 436 1024 506 1024 c 0,7,8
 610 1024 610 1024 695.5 1005 c 128,-1,9
 781 986 781 986 851 945 c 128,-1,10
 921 904 921 904 960 831.5 c 128,-1,11
 999 759 999 759 999 660 c 0,12,13
 999 542 999 542 934.5 448 c 128,-1,14
 870 354 870 354 764.5 304 c 128,-1,15
 659 254 659 254 535 254 c 0,16,17
 499 254 499 254 451 259 c 1,18,19
 437 301 437 301 437 322 c 1,20,21
 442 322 442 322 464 322.5 c 128,-1,22
 486 323 486 323 490 323 c 0,23,24
 664 327 664 327 749 409.5 c 128,-1,25
 834 492 834 492 834 632 c 0,26,27
 834 769 834 769 743.5 861 c 128,-1,28
 653 953 653 953 482 953 c 1,29,-1
 375 946 l 1,30,-1
 375 94 l 1,31,-1
 610 64 l 1,32,-1
 599 0 l 1,33,-1
 53 0 l 1,34,-1
 60 57 l 1,35,-1
 225 96 l 1,36,-1
 225 1154 l 1,37,-1
 47 1187 l 1,0,-1
EndSplineSet
Colour: ffff00
EndChar

StartChar: U
Encoding: 85 85 27
Width: 1398
VWidth: 0
Flags: HMW
LayerCount: 2
Fore
SplineSet
43 1187 m 1,0,-1
 52 1244 l 1,1,-1
 550 1244 l 1,2,-1
 543 1187 l 1,3,-1
 374 1156 l 1,4,-1
 374 503 l 2,5,6
 374 73 374 73 734 73 c 0,7,8
 898 73 898 73 987.5 172 c 128,-1,9
 1077 271 1077 271 1077 466 c 2,10,-1
 1078 1154 l 1,11,-1
 894 1187 l 1,12,-1
 902 1244 l 1,13,-1
 1353 1244 l 1,14,-1
 1344 1187 l 1,15,-1
 1178 1156 l 1,16,-1
 1173 503 l 2,17,18
 1171 239 1171 239 1057 106 c 128,-1,19
 943 -27 943 -27 693 -27 c 0,20,21
 226 -27 226 -27 226 465 c 2,22,-1
 226 1154 l 1,23,-1
 43 1187 l 1,0,-1
EndSplineSet
Colour: ffff00
EndChar

StartChar: Uacute
Encoding: 218 218 28
Width: 1398
VWidth: 0
Flags: HMW
LayerCount: 2
Fore
SplineSet
552 1402 m 1,0,-1
 680 1732 l 1,1,-1
 783 1693 l 1,2,-1
 601 1372 l 1,3,-1
 552 1402 l 1,0,-1
43 1187 m 1,4,-1
 52 1244 l 1,5,-1
 550 1244 l 1,6,-1
 543 1187 l 1,7,-1
 374 1156 l 1,8,-1
 374 503 l 2,9,10
 374 73 374 73 734 73 c 0,11,12
 898 73 898 73 987.5 172 c 128,-1,13
 1077 271 1077 271 1077 466 c 2,14,-1
 1078 1154 l 1,15,-1
 894 1187 l 1,16,-1
 902 1244 l 1,17,-1
 1353 1244 l 1,18,-1
 1344 1187 l 1,19,-1
 1178 1156 l 1,20,-1
 1173 503 l 2,21,22
 1171 239 1171 239 1057 106 c 128,-1,23
 943 -27 943 -27 693 -27 c 0,24,25
 226 -27 226 -27 226 465 c 2,26,-1
 226 1154 l 1,27,-1
 43 1187 l 1,4,-1
EndSplineSet
Colour: ffff00
EndChar

StartChar: Ugrave
Encoding: 217 217 29
Width: 1398
VWidth: 0
Flags: HMW
LayerCount: 2
Fore
SplineSet
462 1701 m 1,0,-1
 566 1738 l 1,1,-1
 699 1403 l 1,2,-1
 648 1372 l 1,3,-1
 462 1701 l 1,0,-1
43 1187 m 1,4,-1
 52 1244 l 1,5,-1
 550 1244 l 1,6,-1
 543 1187 l 1,7,-1
 374 1156 l 1,8,-1
 374 503 l 2,9,10
 374 73 374 73 734 73 c 0,11,12
 898 73 898 73 987.5 172 c 128,-1,13
 1077 271 1077 271 1077 466 c 2,14,-1
 1078 1154 l 1,15,-1
 894 1187 l 1,16,-1
 902 1244 l 1,17,-1
 1353 1244 l 1,18,-1
 1344 1187 l 1,19,-1
 1178 1156 l 1,20,-1
 1173 503 l 2,21,22
 1171 239 1171 239 1057 106 c 128,-1,23
 943 -27 943 -27 693 -27 c 0,24,25
 226 -27 226 -27 226 465 c 2,26,-1
 226 1154 l 1,27,-1
 43 1187 l 1,4,-1
EndSplineSet
Colour: ffff00
EndChar

StartChar: V
Encoding: 86 86 30
Width: 1325
VWidth: 0
Flags: HMW
LayerCount: 2
Fore
SplineSet
44 1188 m 1,0,-1
 51 1244 l 1,1,-1
 533 1244 l 1,2,-1
 526 1188 l 1,3,-1
 357 1156 l 1,4,-1
 687 206 l 1,5,-1
 1035 1152 l 1,6,-1
 850 1188 l 1,7,-1
 856 1244 l 1,8,-1
 1278 1244 l 1,9,-1
 1273 1188 l 1,10,-1
 1143 1156 l 1,11,-1
 709 -4 l 1,12,-1
 607 -25 l 1,13,-1
 191 1152 l 1,14,-1
 44 1188 l 1,0,-1
EndSplineSet
Colour: ffff00
EndChar

StartChar: W
Encoding: 87 87 31
Width: 1841
VWidth: 0
Flags: HMW
LayerCount: 2
Fore
SplineSet
44 1188 m 1,0,-1
 52 1244 l 1,1,-1
 506 1244 l 1,2,-1
 497 1190 l 1,3,-1
 331 1156 l 1,4,-1
 595 225 l 1,5,-1
 885 1199 l 1,6,-1
 996 1214 l 1,7,-1
 1262 233 l 1,8,-1
 1554 1151 l 1,9,-1
 1370 1189 l 1,10,-1
 1378 1244 l 1,11,-1
 1795 1244 l 1,12,-1
 1787 1188 l 1,13,-1
 1667 1154 l 1,14,-1
 1287 -4 l 1,15,-1
 1178 -25 l 1,16,-1
 913 971 l 1,17,-1
 623 -4 l 1,18,-1
 506 -24 l 1,19,-1
 175 1153 l 1,20,-1
 44 1188 l 1,0,-1
EndSplineSet
Colour: ffff00
EndChar

StartChar: X
Encoding: 88 88 32
Width: 1294
VWidth: 0
Flags: HMW
LayerCount: 2
Fore
SplineSet
46 0 m 1,0,-1
 55 56 l 1,1,-1
 181 92 l 1,2,-1
 572 620 l 1,3,-1
 208 1154 l 1,4,-1
 71 1189 l 1,5,-1
 79 1244 l 1,6,-1
 545 1244 l 1,7,-1
 538 1189 l 1,8,-1
 382 1152 l 1,9,-1
 671 727 l 1,10,-1
 985 1155 l 1,11,-1
 814 1187 l 1,12,-1
 823 1244 l 1,13,-1
 1225 1244 l 1,14,-1
 1221 1188 l 1,15,-1
 1095 1159 l 1,16,-1
 727 654 l 1,17,-1
 1105 84 l 1,18,-1
 1241 58 l 1,19,-1
 1231 0 l 1,20,-1
 766 0 l 1,21,-1
 775 51 l 1,22,-1
 937 90 l 1,23,-1
 628 550 l 1,24,-1
 295 89 l 1,25,-1
 461 62 l 1,26,-1
 449 0 l 1,27,-1
 46 0 l 1,0,-1
EndSplineSet
Colour: ffff00
EndChar

StartChar: Y
Encoding: 89 89 33
Width: 1214
VWidth: 0
Flags: HMW
LayerCount: 2
Fore
SplineSet
44 1188 m 1,0,-1
 53 1244 l 1,1,-1
 516 1244 l 1,2,-1
 508 1188 l 1,3,-1
 345 1156 l 1,4,-1
 641 605 l 1,5,-1
 928 1152 l 1,6,-1
 744 1188 l 1,7,-1
 750 1244 l 1,8,-1
 1167 1244 l 1,9,-1
 1161 1188 l 1,10,-1
 1034 1156 l 1,11,-1
 687 509 l 1,12,-1
 687 91 l 1,13,-1
 859 63 l 1,14,-1
 850 0 l 1,15,-1
 367 0 l 1,16,-1
 375 58 l 1,17,-1
 537 96 l 1,18,-1
 537 497 l 1,19,-1
 183 1152 l 1,20,-1
 44 1188 l 1,0,-1
EndSplineSet
Colour: ffff00
EndChar

StartChar: Yacute
Encoding: 221 221 34
Width: 1214
VWidth: 0
Flags: HMW
LayerCount: 2
Fore
SplineSet
409 1402 m 1,0,-1
 537 1732 l 1,1,-1
 640 1693 l 1,2,-1
 458 1372 l 1,3,-1
 409 1402 l 1,0,-1
44 1188 m 1,4,-1
 53 1244 l 1,5,-1
 516 1244 l 1,6,-1
 508 1188 l 1,7,-1
 345 1156 l 1,8,-1
 641 605 l 1,9,-1
 928 1152 l 1,10,-1
 744 1188 l 1,11,-1
 750 1244 l 1,12,-1
 1167 1244 l 1,13,-1
 1161 1188 l 1,14,-1
 1034 1156 l 1,15,-1
 687 509 l 1,16,-1
 687 91 l 1,17,-1
 859 63 l 1,18,-1
 850 0 l 1,19,-1
 367 0 l 1,20,-1
 375 58 l 1,21,-1
 537 96 l 1,22,-1
 537 497 l 1,23,-1
 183 1152 l 1,24,-1
 44 1188 l 1,4,-1
EndSplineSet
Colour: ffff00
EndChar

StartChar: Z
Encoding: 90 90 35
Width: 1070
VWidth: 0
Flags: HMW
LayerCount: 2
Fore
SplineSet
49 71 m 1,0,-1
 823 1170 l 1,1,-1
 236 1170 l 1,2,-1
 158 903 l 1,3,-1
 94 918 l 1,4,-1
 103 1244 l 1,5,-1
 1006 1244 l 1,6,-1
 1008 1188 l 1,7,-1
 223 79 l 1,8,-1
 841 79 l 1,9,-1
 956 347 l 1,10,-1
 1025 336 l 1,11,-1
 977 0 l 1,12,-1
 56 0 l 1,13,-1
 49 71 l 1,0,-1
EndSplineSet
Colour: ffff00
EndChar

StartChar: a
Encoding: 97 97 36
Width: 844
VWidth: 0
Flags: HMW
LayerCount: 2
Fore
SplineSet
184 207 m 0,0,1
 184 154 184 154 218.5 112.5 c 128,-1,2
 253 71 253 71 310 71 c 0,3,4
 368 71 368 71 421.5 104.5 c 128,-1,5
 475 138 475 138 508 186 c 1,6,-1
 508 430 l 1,7,8
 344 402 344 402 264 350.5 c 128,-1,9
 184 299 184 299 184 207 c 0,0,1
47 169 m 0,10,11
 47 293 47 293 160 376.5 c 128,-1,12
 273 460 273 460 508 481 c 1,13,-1
 508 529 l 2,14,15
 508 670 508 670 468 743 c 128,-1,16
 428 816 428 816 325 816 c 0,17,18
 294 816 294 816 273 807.5 c 128,-1,19
 252 799 252 799 239.5 786.5 c 128,-1,20
 227 774 227 774 217.5 742.5 c 128,-1,21
 208 711 208 711 203.5 684 c 128,-1,22
 199 657 199 657 191 601 c 1,23,24
 81 601 81 601 81 685 c 0,25,26
 81 736 81 736 131.5 784 c 128,-1,27
 182 832 182 832 255.5 860.5 c 128,-1,28
 329 889 329 889 397 889 c 0,29,30
 521 889 521 889 578 814.5 c 128,-1,31
 635 740 635 740 635 581 c 2,32,-1
 635 230 l 2,33,34
 635 153 635 153 653.5 118 c 128,-1,35
 672 83 672 83 735 73 c 1,36,-1
 793 62 l 1,37,-1
 784 2 l 1,38,39
 699 -18 699 -18 665 -18 c 0,40,41
 596 -18 596 -18 560.5 21.5 c 128,-1,42
 525 61 525 61 525 116 c 2,43,-1
 525 131 l 1,44,-1
 517 131 l 1,45,46
 494 76 494 76 422.5 25.5 c 128,-1,47
 351 -25 351 -25 249 -25 c 0,48,49
 165 -25 165 -25 106 27.5 c 128,-1,50
 47 80 47 80 47 169 c 0,10,11
EndSplineSet
Colour: ffff00
EndChar

StartChar: acute
Encoding: 180 180 37
Width: 387
VWidth: 0
Flags: HMW
LayerCount: 2
Fore
SplineSet
79 1376 m 1,0,-1
 207 1706 l 1,1,-1
 310 1667 l 1,2,-1
 128 1346 l 1,3,-1
 79 1376 l 1,0,-1
EndSplineSet
Colour: ffff00
EndChar

StartChar: ae
Encoding: 230 230 38
Width: 1203
VWidth: 0
Flags: HMW
LayerCount: 2
Fore
SplineSet
632 492 m 1,0,-1
 982 529 l 1,1,2
 992 561 992 561 992 611 c 0,3,4
 992 700 992 700 948 754.5 c 128,-1,5
 904 809 904 809 832 809 c 0,6,7
 750 809 750 809 693 723.5 c 128,-1,8
 636 638 636 638 632 492 c 1,0,-1
182 200 m 0,9,10
 182 138 182 138 215.5 100 c 128,-1,11
 249 62 249 62 309 62 c 0,12,13
 381 62 381 62 444.5 118.5 c 128,-1,14
 508 175 508 175 508 255 c 2,15,-1
 508 416 l 1,16,17
 335 390 335 390 258.5 341.5 c 128,-1,18
 182 293 182 293 182 200 c 0,9,10
46 163 m 0,19,20
 46 285 46 285 152 362 c 128,-1,21
 258 439 258 439 508 476 c 1,22,-1
 508 539 l 2,23,24
 508 678 508 678 469.5 745.5 c 128,-1,25
 431 813 431 813 329 813 c 0,26,27
 292 813 292 813 267 799.5 c 128,-1,28
 242 786 242 786 227.5 755.5 c 128,-1,29
 213 725 213 725 205.5 693.5 c 128,-1,30
 198 662 198 662 192 609 c 1,31,32
 84 609 84 609 84 693 c 0,33,34
 84 769 84 769 185.5 828.5 c 128,-1,35
 287 888 287 888 397 888 c 0,36,37
 564 888 564 888 605 748 c 1,38,39
 659 818 659 818 732 852 c 128,-1,40
 805 886 805 886 882 886 c 0,41,42
 996 886 996 886 1064.5 808.5 c 128,-1,43
 1133 731 1133 731 1133 578 c 0,44,45
 1133 518 1133 518 1115 448 c 1,46,-1
 632 428 l 1,47,48
 634 329 634 329 663 251 c 128,-1,49
 692 173 692 173 757.5 121.5 c 128,-1,50
 823 70 823 70 918 70 c 0,51,52
 1027 70 1027 70 1139 146 c 1,53,-1
 1158 104 l 1,54,55
 1105 42 1105 42 1025 6 c 128,-1,56
 945 -30 945 -30 849 -30 c 0,57,58
 763 -30 763 -30 668 26.5 c 128,-1,59
 573 83 573 83 546 172 c 1,60,61
 522 94 522 94 438 34 c 128,-1,62
 354 -26 354 -26 247 -26 c 0,63,64
 163 -26 163 -26 104.5 24.5 c 128,-1,65
 46 75 46 75 46 163 c 0,19,20
EndSplineSet
Colour: ffff00
EndChar

StartChar: agrave
Encoding: 224 224 39
Width: 844
VWidth: 0
Flags: HMW
LayerCount: 2
Fore
SplineSet
185 1319 m 1,0,-1
 289 1356 l 1,1,-1
 422 1021 l 1,2,-1
 371 990 l 1,3,-1
 185 1319 l 1,0,-1
184 207 m 0,4,5
 184 154 184 154 218.5 112.5 c 128,-1,6
 253 71 253 71 310 71 c 0,7,8
 368 71 368 71 421.5 104.5 c 128,-1,9
 475 138 475 138 508 186 c 1,10,-1
 508 430 l 1,11,12
 344 402 344 402 264 350.5 c 128,-1,13
 184 299 184 299 184 207 c 0,4,5
47 169 m 0,14,15
 47 293 47 293 160 376.5 c 128,-1,16
 273 460 273 460 508 481 c 1,17,-1
 508 529 l 2,18,19
 508 670 508 670 468 743 c 128,-1,20
 428 816 428 816 325 816 c 0,21,22
 294 816 294 816 273 807.5 c 128,-1,23
 252 799 252 799 239.5 786.5 c 128,-1,24
 227 774 227 774 217.5 742.5 c 128,-1,25
 208 711 208 711 203.5 684 c 128,-1,26
 199 657 199 657 191 601 c 1,27,28
 81 601 81 601 81 685 c 0,29,30
 81 736 81 736 131.5 784 c 128,-1,31
 182 832 182 832 255.5 860.5 c 128,-1,32
 329 889 329 889 397 889 c 0,33,34
 521 889 521 889 578 814.5 c 128,-1,35
 635 740 635 740 635 581 c 2,36,-1
 635 230 l 2,37,38
 635 153 635 153 653.5 118 c 128,-1,39
 672 83 672 83 735 73 c 1,40,-1
 793 62 l 1,41,-1
 784 2 l 1,42,43
 699 -18 699 -18 665 -18 c 0,44,45
 596 -18 596 -18 560.5 21.5 c 128,-1,46
 525 61 525 61 525 116 c 2,47,-1
 525 131 l 1,48,-1
 517 131 l 1,49,50
 494 76 494 76 422.5 25.5 c 128,-1,51
 351 -25 351 -25 249 -25 c 0,52,53
 165 -25 165 -25 106 27.5 c 128,-1,54
 47 80 47 80 47 169 c 0,14,15
EndSplineSet
Colour: ffff00
EndChar

StartChar: ampersand
Encoding: 38 38 40
Width: 1277
VWidth: 0
Flags: HMW
LayerCount: 2
Fore
SplineSet
326 1025 m 0,0,1
 326 908 326 908 478 752 c 1,2,3
 559 810 559 810 599.5 864 c 128,-1,4
 640 918 640 918 640 994 c 0,5,6
 640 1081 640 1081 596.5 1140.5 c 128,-1,7
 553 1200 553 1200 478 1200 c 0,8,9
 410 1200 410 1200 368 1148 c 128,-1,10
 326 1096 326 1096 326 1025 c 0,0,1
201 337 m 0,11,12
 201 231 201 231 260 158.5 c 128,-1,13
 319 86 319 86 419 86 c 0,14,15
 580 86 580 86 698 286 c 1,16,-1
 400 626 l 1,17,-1
 390 627 l 1,18,19
 303 564 303 564 252 494.5 c 128,-1,20
 201 425 201 425 201 337 c 0,11,12
51 278 m 0,21,22
 51 399 51 399 129 497.5 c 128,-1,23
 207 596 207 596 348 687 c 1,24,25
 288 749 288 749 247 824.5 c 128,-1,26
 206 900 206 900 206 975 c 0,27,28
 206 1093 206 1093 294.5 1182.5 c 128,-1,29
 383 1272 383 1272 502 1272 c 0,30,31
 630 1272 630 1272 702.5 1206 c 128,-1,32
 775 1140 775 1140 775 1016 c 0,33,34
 775 930 775 930 712.5 854 c 128,-1,35
 650 778 650 778 533 700 c 1,36,-1
 533 693 l 1,37,-1
 776 417 l 1,38,-1
 959 720 l 1,39,-1
 802 757 l 1,40,-1
 808 812 l 1,41,-1
 1233 812 l 1,42,-1
 1225 757 l 1,43,-1
 1056 723 l 1,44,-1
 837 356 l 1,45,46
 1048 107 1048 107 1181 64 c 1,47,-1
 1220 52 l 1,48,-1
 1210 -2 l 1,49,50
 1159 -20 1159 -20 1104 -20 c 0,51,52
 980 -20 980 -20 852 122 c 2,53,-1
 757 227 l 1,54,55
 719 172 719 172 684.5 132.5 c 128,-1,56
 650 93 650 93 602.5 55.5 c 128,-1,57
 555 18 555 18 495.5 -1 c 128,-1,58
 436 -20 436 -20 367 -20 c 0,59,60
 225 -20 225 -20 138 63.5 c 128,-1,61
 51 147 51 147 51 278 c 0,21,22
EndSplineSet
Colour: ffff00
EndChar

StartChar: asciicircum
Encoding: 94 94 41
Width: 743
VWidth: 0
Flags: HMW
LayerCount: 2
Fore
SplineSet
51 826 m 1,0,-1
 340 1238 l 1,1,-1
 396 1251 l 1,2,-1
 690 824 l 1,3,-1
 642 792 l 1,4,-1
 365 1098 l 1,5,-1
 355 1098 l 1,6,-1
 93 797 l 1,7,-1
 51 826 l 1,0,-1
EndSplineSet
Colour: ffff00
EndChar

StartChar: asciitilde
Encoding: 126 126 42
Width: 900
VWidth: 0
Flags: HMW
LayerCount: 2
Fore
SplineSet
59 417 m 1,0,1
 61 426 61 426 66.5 441 c 128,-1,2
 72 456 72 456 90.5 493.5 c 128,-1,3
 109 531 109 531 131.5 558 c 128,-1,4
 154 585 154 585 192.5 603.5 c 128,-1,5
 231 622 231 622 274 613 c 1,6,-1
 673 542 l 1,7,8
 704 535 704 535 733 555.5 c 128,-1,9
 762 576 762 576 776 600 c 2,10,-1
 790 624 l 1,11,-1
 845 623 l 1,12,13
 842 614 842 614 837 598 c 128,-1,14
 832 582 832 582 812 544 c 128,-1,15
 792 506 792 506 769 478 c 128,-1,16
 746 450 746 450 706.5 431.5 c 128,-1,17
 667 413 667 413 623 422 c 1,18,-1
 224 493 l 1,19,20
 195 500 195 500 165.5 478 c 128,-1,21
 136 456 136 456 121 430 c 2,22,-1
 106 404 l 1,23,-1
 59 417 l 1,0,1
EndSplineSet
Colour: ffff00
EndChar

StartChar: asterisk
Encoding: 42 42 43
Width: 801
VWidth: 0
Flags: HMW
LayerCount: 2
Fore
SplineSet
338 1291 m 1,0,-1
 461 1280 l 1,1,-1
 436 981 l 1,2,-1
 726 1106 l 1,3,-1
 753 990 l 1,4,-1
 462 923 l 1,5,-1
 674 686 l 1,6,-1
 569 623 l 1,7,-1
 413 882 l 1,8,-1
 252 604 l 1,9,-1
 159 685 l 1,10,-1
 357 912 l 1,11,-1
 47 978 l 1,12,-1
 95 1092 l 1,13,-1
 371 974 l 1,14,-1
 338 1291 l 1,0,-1
EndSplineSet
Colour: ffff00
EndChar

StartChar: at
Encoding: 64 64 44
Width: 1325
VWidth: 0
Flags: HMW
LayerCount: 2
Fore
SplineSet
480 369 m 0,0,1
 480 160 480 160 564 160 c 0,2,3
 602 160 602 160 653 188 c 128,-1,4
 704 216 704 216 732 248 c 1,5,-1
 786 703 l 1,6,7
 744 714 744 714 684 714 c 0,8,9
 596 714 596 714 538 611.5 c 128,-1,10
 480 509 480 509 480 369 c 0,0,1
56 329 m 0,11,12
 56 519 56 519 141.5 681.5 c 128,-1,13
 227 844 227 844 389 944.5 c 128,-1,14
 551 1045 551 1045 757 1045 c 0,15,16
 897 1045 897 1045 1014.5 987 c 128,-1,17
 1132 929 1132 929 1202 822.5 c 128,-1,18
 1272 716 1272 716 1272 582 c 0,19,20
 1272 481 1272 481 1236.5 387.5 c 128,-1,21
 1201 294 1201 294 1139.5 223.5 c 128,-1,22
 1078 153 1078 153 989.5 111 c 128,-1,23
 901 69 901 69 801 69 c 0,24,25
 724 69 724 69 730 187 c 1,26,-1
 721 187 l 1,27,28
 688 138 688 138 631 99 c 128,-1,29
 574 60 574 60 521 60 c 0,30,31
 445 60 445 60 401 129.5 c 128,-1,32
 357 199 357 199 357 325 c 0,33,34
 357 427 357 427 392.5 517 c 128,-1,35
 428 607 428 607 484 665 c 128,-1,36
 540 723 540 723 607 756.5 c 128,-1,37
 674 790 674 790 738 790 c 0,38,39
 814 790 814 790 890 773 c 1,40,-1
 908 752 l 1,41,-1
 866 385 l 2,42,43
 863 363 863 363 859 326 c 1,44,45
 845 230 845 230 847.5 191 c 128,-1,46
 850 152 850 152 878 152 c 0,47,48
 995 152 995 152 1079.5 264 c 128,-1,49
 1164 376 1164 376 1164 545 c 0,50,51
 1164 674 1164 674 1102 772.5 c 128,-1,52
 1040 871 1040 871 939.5 921.5 c 128,-1,53
 839 972 839 972 720 972 c 0,54,55
 564 972 564 972 439 888.5 c 128,-1,56
 314 805 314 805 246 664 c 128,-1,57
 178 523 178 523 178 355 c 0,58,59
 178 125 178 125 316 -12 c 128,-1,60
 454 -149 454 -149 697 -149 c 0,61,62
 798 -149 798 -149 905 -109 c 128,-1,63
 1012 -69 1012 -69 1056 -31 c 1,64,-1
 1085 -82 l 1,65,66
 984 -149 984 -149 928 -173 c 0,67,68
 806 -227 806 -227 660 -227 c 0,69,70
 567 -227 567 -227 480 -206.5 c 128,-1,71
 393 -186 393 -186 315.5 -141.5 c 128,-1,72
 238 -97 238 -97 180.5 -33 c 128,-1,73
 123 31 123 31 89.5 124 c 128,-1,74
 56 217 56 217 56 329 c 0,11,12
EndSplineSet
Colour: ffff00
EndChar

StartChar: b
Encoding: 98 98 45
Width: 978
VWidth: 0
Flags: HMW
LayerCount: 2
Fore
SplineSet
325 126 m 1,0,1
 389 62 389 62 533 62 c 0,2,3
 634 62 634 62 711 154.5 c 128,-1,4
 788 247 788 247 788 406 c 0,5,6
 788 488 788 488 775 554 c 128,-1,7
 762 620 762 620 734.5 673 c 128,-1,8
 707 726 707 726 658.5 755.5 c 128,-1,9
 610 785 610 785 545 785 c 0,10,11
 435 785 435 785 325 668 c 1,12,-1
 325 126 l 1,0,1
43 1191 m 1,13,-1
 52 1245 l 1,14,-1
 310 1265 l 1,15,-1
 325 1249 l 1,16,-1
 325 837 l 1,17,-1
 311 733 l 1,18,-1
 323 733 l 1,19,20
 459 886 459 886 612 886 c 0,21,22
 756 886 756 886 843 771 c 128,-1,23
 930 656 930 656 930 466 c 0,24,25
 930 350 930 350 891 256 c 128,-1,26
 852 162 852 162 785 101.5 c 128,-1,27
 718 41 718 41 630.5 8.5 c 128,-1,28
 543 -24 543 -24 445 -24 c 0,29,30
 309 -24 309 -24 196 49 c 1,31,-1
 196 1149 l 1,32,-1
 43 1191 l 1,13,-1
EndSplineSet
Colour: ffff00
EndChar

StartChar: backslash
Encoding: 92 92 46
Width: 651
VWidth: 0
Flags: HMW
LayerCount: 2
Fore
SplineSet
41 1259 m 1,0,-1
 149 1254 l 1,1,-1
 611 -367 l 1,2,-1
 507 -362 l 1,3,-1
 41 1259 l 1,0,-1
EndSplineSet
Colour: ffff00
EndChar

StartChar: bar
Encoding: 124 124 47
Width: 247
VWidth: 0
Flags: HMW
LayerCount: 2
Fore
SplineSet
75 -367 m 1,0,-1
 75 1261 l 1,1,-1
 171 1248 l 1,2,-1
 171 -380 l 1,3,-1
 75 -367 l 1,0,-1
EndSplineSet
Colour: ffff00
EndChar

StartChar: braceright
Encoding: 125 125 48
Width: 614
VWidth: 0
Flags: HMW
LayerCount: 2
Fore
SplineSet
41 -378 m 1,0,-1
 49 -303 l 1,1,-1
 136 -297 l 2,2,3
 178 -295 178 -295 199.5 -257 c 128,-1,4
 221 -219 221 -219 226.5 -158.5 c 128,-1,5
 232 -98 232 -98 233 -25 c 128,-1,6
 234 48 234 48 239 123.5 c 128,-1,7
 244 199 244 199 258 264 c 128,-1,8
 272 329 272 329 311.5 376.5 c 128,-1,9
 351 424 351 424 415 438 c 1,10,-1
 415 443 l 1,11,12
 351 459 351 459 312 507 c 128,-1,13
 273 555 273 555 259 619.5 c 128,-1,14
 245 684 245 684 240.5 759 c 128,-1,15
 236 834 236 834 236.5 906 c 128,-1,16
 237 978 237 978 232.5 1037.5 c 128,-1,17
 228 1097 228 1097 208 1134.5 c 128,-1,18
 188 1172 188 1172 148 1175 c 2,19,-1
 54 1182 l 1,20,-1
 46 1256 l 1,21,-1
 148 1256 l 2,22,23
 231 1256 231 1256 281 1215.5 c 128,-1,24
 331 1175 331 1175 349 1110 c 128,-1,25
 367 1045 367 1045 372 966 c 128,-1,26
 377 887 377 887 377.5 806 c 128,-1,27
 378 725 378 725 386.5 656.5 c 128,-1,28
 395 588 395 588 427 540.5 c 128,-1,29
 459 493 459 493 519 484 c 2,30,-1
 568 476 l 1,31,-1
 568 402 l 1,32,-1
 516 395 l 2,33,34
 457 387 457 387 425.5 340 c 128,-1,35
 394 293 394 293 386 224 c 128,-1,36
 378 155 378 155 377.5 74 c 128,-1,37
 377 -7 377 -7 372 -86.5 c 128,-1,38
 367 -166 367 -166 348.5 -231.5 c 128,-1,39
 330 -297 330 -297 279 -337.5 c 128,-1,40
 228 -378 228 -378 144 -378 c 2,41,-1
 41 -378 l 1,0,-1
EndSplineSet
Colour: ffff00
EndChar

StartChar: bracketright
Encoding: 93 93 49
Width: 485
VWidth: 0
Flags: HMW
LayerCount: 2
Fore
SplineSet
42 -306 m 1,0,-1
 279 -286 l 1,1,-1
 279 1164 l 1,2,-1
 44 1185 l 1,3,-1
 52 1256 l 1,4,-1
 409 1256 l 1,5,-1
 410 -375 l 1,6,-1
 50 -375 l 1,7,-1
 42 -306 l 1,0,-1
EndSplineSet
Colour: ffff00
EndChar

StartChar: brokenbar
Encoding: 166 166 50
Width: 241
VWidth: 0
Flags: HMW
LayerCount: 2
Fore
SplineSet
73 537 m 1,0,-1
 73 1257 l 1,1,-1
 167 1248 l 1,2,-1
 165 529 l 1,3,-1
 73 537 l 1,0,-1
73 -370 m 1,4,-1
 73 419 l 1,5,-1
 168 411 l 1,6,-1
 168 -380 l 1,7,-1
 73 -370 l 1,4,-1
EndSplineSet
Colour: ffff00
EndChar

StartChar: c
Encoding: 99 99 51
Width: 765
VWidth: 0
Flags: HMW
LayerCount: 2
Fore
SplineSet
52 405 m 0,0,1
 52 622 52 622 168 755 c 128,-1,2
 284 888 284 888 452 888 c 0,3,4
 569 888 569 888 626 840.5 c 128,-1,5
 683 793 683 793 683 726 c 0,6,7
 683 643 683 643 588 627 c 1,8,9
 557 714 557 714 514 762 c 128,-1,10
 471 810 471 810 404 810 c 0,11,12
 312 810 312 810 252 722 c 128,-1,13
 192 634 192 634 192 480 c 0,14,15
 192 301 192 301 270.5 185 c 128,-1,16
 349 69 349 69 484 69 c 0,17,18
 606 69 606 69 703 148 c 1,19,-1
 724 102 l 1,20,21
 684 48 684 48 597.5 9 c 128,-1,22
 511 -30 511 -30 418 -30 c 0,23,24
 250 -30 250 -30 151 94.5 c 128,-1,25
 52 219 52 219 52 405 c 0,0,1
EndSplineSet
Colour: ffff00
EndChar

StartChar: cedilla
Encoding: 184 184 52
Width: 334
VWidth: 0
Flags: HMW
LayerCount: 2
Fore
SplineSet
57 -339 m 1,0,1
 100 -324 100 -324 130 -297.5 c 128,-1,2
 160 -271 160 -271 160 -248 c 0,3,4
 160 -236 160 -236 156 -223.5 c 128,-1,5
 152 -211 152 -211 148 -203 c 128,-1,6
 144 -195 144 -195 132.5 -181.5 c 128,-1,7
 121 -168 121 -168 117.5 -164 c 128,-1,8
 114 -160 114 -160 98 -145 c 128,-1,9
 82 -130 82 -130 80 -128 c 1,10,-1
 171 3 l 1,11,-1
 238 3 l 1,12,-1
 184 -76 l 1,13,14
 273 -155 273 -155 273 -227 c 0,15,16
 273 -330 273 -330 73 -390 c 1,17,-1
 57 -339 l 1,0,1
EndSplineSet
Colour: ffff00
EndChar

StartChar: cent
Encoding: 162 162 53
Width: 767
VWidth: 0
Flags: HMW
LayerCount: 2
Fore
SplineSet
342 1135 m 1,0,-1
 469 1152 l 1,1,-1
 447 920 l 1,2,3
 450 920 450 920 454 920 c 0,4,5
 571 920 571 920 627.5 873 c 128,-1,6
 684 826 684 826 684 759 c 0,7,8
 684 676 684 676 589 660 c 1,9,10
 558 747 558 747 515.5 795 c 128,-1,11
 473 843 473 843 406 843 c 0,12,13
 316 843 316 843 255 743 c 128,-1,14
 194 643 194 643 194 486 c 0,15,16
 194 306 194 306 272.5 187.5 c 128,-1,17
 351 69 351 69 485 69 c 0,18,19
 607 69 607 69 704 148 c 1,20,-1
 725 102 l 1,21,22
 689 53 689 53 613 15.5 c 128,-1,23
 537 -22 537 -22 452 -29 c 1,24,-1
 481 -250 l 1,25,-1
 353 -267 l 1,26,-1
 376 -28 l 1,27,28
 277 -16 277 -16 203 46.5 c 128,-1,29
 129 109 129 109 91.5 204 c 128,-1,30
 54 299 54 299 54 412 c 0,31,32
 54 601 54 601 144 737.5 c 128,-1,33
 234 874 234 874 371 909 c 1,34,-1
 342 1135 l 1,0,-1
EndSplineSet
Colour: ffff00
EndChar

StartChar: circumflex
Encoding: 710 710 54
Width: 559
VWidth: 0
Flags: HMW
LayerCount: 2
Fore
SplineSet
79 1388 m 1,0,-1
 247 1568 l 1,1,-1
 302 1582 l 1,2,-1
 480 1396 l 1,3,-1
 440 1359 l 1,4,-1
 267 1481 l 1,5,-1
 258 1481 l 1,6,-1
 109 1358 l 1,7,-1
 79 1388 l 1,0,-1
EndSplineSet
Colour: ff00ff
EndChar

StartChar: colon
Encoding: 58 58 55
Width: 302
VWidth: 0
Flags: HMW
LayerCount: 2
Fore
SplineSet
63 426 m 0,0,1
 63 472 63 472 87.5 499.5 c 128,-1,2
 112 527 112 527 151 527 c 2,3,-1
 152 527 l 1,4,-1
 153 527 l 2,5,6
 192 527 192 527 216.5 498.5 c 128,-1,7
 241 470 241 470 241 424 c 0,8,9
 241 375 241 375 217 345 c 128,-1,10
 193 315 193 315 153 315 c 0,11,12
 124 315 124 315 103 332 c 0,13,14
 63 362 63 362 63 426 c 0,0,1
EndSplineSet
Colour: ffff00
EndChar

StartChar: comma
Encoding: 44 44 56
Width: 414
VWidth: 0
Flags: HMW
LayerCount: 2
Fore
SplineSet
55 -240 m 1,0,1
 235 -181 235 -181 235 -50 c 0,2,3
 235 3 235 3 203 38.5 c 128,-1,4
 171 74 171 74 123 74 c 0,5,6
 108 74 108 74 94 71 c 1,7,8
 86 95 86 95 86 112 c 0,9,10
 86 160 86 160 118.5 189 c 128,-1,11
 151 218 151 218 194 218 c 0,12,13
 256 218 256 218 304.5 164 c 128,-1,14
 353 110 353 110 353 9 c 0,15,16
 353 -31 353 -31 341.5 -70 c 128,-1,17
 330 -109 330 -109 302 -153 c 128,-1,18
 274 -197 274 -197 215.5 -235.5 c 128,-1,19
 157 -274 157 -274 73 -298 c 1,20,-1
 55 -240 l 1,0,1
EndSplineSet
Colour: ffff00
EndChar

StartChar: copyright
Encoding: 169 169 57
Width: 1352
VWidth: 0
Flags: HMW
LayerCount: 2
Fore
SplineSet
147 644 m 0,0,1
 147 391 147 391 293 226.5 c 128,-1,2
 439 62 439 62 666 62 c 0,3,4
 816 62 816 62 939.5 135 c 128,-1,5
 1063 208 1063 208 1133.5 337.5 c 128,-1,6
 1204 467 1204 467 1204 626 c 0,7,8
 1204 795 1204 795 1139 930 c 128,-1,9
 1074 1065 1074 1065 951 1143.5 c 128,-1,10
 828 1222 828 1222 668 1222 c 0,11,12
 521 1222 521 1222 401 1145 c 128,-1,13
 281 1068 281 1068 214 936 c 128,-1,14
 147 804 147 804 147 644 c 0,0,1
52 633 m 0,15,16
 52 776 52 776 101 901.5 c 128,-1,17
 150 1027 150 1027 233 1114 c 128,-1,18
 316 1201 316 1201 429 1251 c 128,-1,19
 542 1301 542 1301 667 1301 c 0,20,21
 857 1301 857 1301 1001 1216 c 128,-1,22
 1145 1131 1145 1131 1221.5 980.5 c 128,-1,23
 1298 830 1298 830 1298 636 c 0,24,25
 1298 451 1298 451 1216.5 301 c 128,-1,26
 1135 151 1135 151 988 65 c 128,-1,27
 841 -21 841 -21 657 -21 c 0,28,29
 385 -21 385 -21 218.5 161.5 c 128,-1,30
 52 344 52 344 52 633 c 0,15,16
324 627 m 0,31,32
 324 718 324 718 351 794.5 c 128,-1,33
 378 871 378 871 423.5 922 c 128,-1,34
 469 973 469 973 530 1001.5 c 128,-1,35
 591 1030 591 1030 658 1030 c 0,36,37
 756 1030 756 1030 803.5 990.5 c 128,-1,38
 851 951 851 951 851 895 c 0,39,40
 851 826 851 826 772 813 c 1,41,42
 746 885 746 885 710 925 c 128,-1,43
 674 965 674 965 618 965 c 0,44,45
 541 965 541 965 491 892 c 128,-1,46
 441 819 441 819 441 690 c 0,47,48
 441 540 441 540 507 443.5 c 128,-1,49
 573 347 573 347 685 347 c 0,50,51
 787 347 787 347 868 413 c 1,52,-1
 886 374 l 1,53,54
 853 329 853 329 780.5 296.5 c 128,-1,55
 708 264 708 264 630 264 c 0,56,57
 536 264 536 264 465.5 313.5 c 128,-1,58
 395 363 395 363 359.5 444.5 c 128,-1,59
 324 526 324 526 324 627 c 0,31,32
EndSplineSet
Colour: ffff00
EndChar

StartChar: currency
Encoding: 164 164 58
Width: 712
VWidth: 0
Flags: HMW
LayerCount: 2
Fore
SplineSet
183 495 m 0,0,1
 183 408 183 408 230 354.5 c 128,-1,2
 277 301 277 301 353 301 c 0,3,4
 432 301 432 301 481 353 c 128,-1,5
 530 405 530 405 530 488 c 0,6,7
 530 577 530 577 481 631 c 128,-1,8
 432 685 432 685 352 685 c 0,9,10
 276 685 276 685 229.5 632.5 c 128,-1,11
 183 580 183 580 183 495 c 0,0,1
49 723 m 1,12,-1
 117 789 l 1,13,-1
 195 701 l 1,14,15
 229 729 229 729 275 749.5 c 128,-1,16
 321 770 321 770 356 770 c 0,17,18
 395 770 395 770 443 752 c 128,-1,19
 491 734 491 734 523 710 c 1,20,-1
 600 790 l 1,21,-1
 659 720 l 1,22,-1
 575 646 l 1,23,24
 592 616 592 616 605.5 571 c 128,-1,25
 619 526 619 526 619 492 c 0,26,27
 619 454 619 454 604 408 c 128,-1,28
 589 362 589 362 568 334 c 1,29,-1
 661 248 l 1,30,-1
 592 184 l 1,31,-1
 513 274 l 1,32,33
 476 251 476 251 429 234.5 c 128,-1,34
 382 218 382 218 349 218 c 0,35,36
 288 218 288 218 206 268 c 1,37,-1
 129 179 l 1,38,-1
 62 247 l 1,39,-1
 146 325 l 1,40,41
 125 357 125 357 109 404.5 c 128,-1,42
 93 452 93 452 93 490 c 0,43,44
 93 523 93 523 107 566.5 c 128,-1,45
 121 610 121 610 140 638 c 1,46,-1
 49 723 l 1,12,-1
EndSplineSet
Colour: ffff00
EndChar

StartChar: d
Encoding: 100 100 59
Width: 983
VWidth: 0
Flags: HMW
LayerCount: 2
Fore
SplineSet
189 452 m 0,0,1
 189 275 189 275 253 176 c 128,-1,2
 317 77 317 77 433 77 c 0,3,4
 494 77 494 77 559.5 112 c 128,-1,5
 625 147 625 147 659 193 c 1,6,-1
 659 685 l 1,7,8
 618 744 618 744 554.5 777 c 128,-1,9
 491 810 491 810 428 810 c 0,10,11
 319 810 319 810 254 713.5 c 128,-1,12
 189 617 189 617 189 452 c 0,0,1
51 393 m 0,13,14
 51 501 51 501 87.5 596 c 128,-1,15
 124 691 124 691 184.5 754 c 128,-1,16
 245 817 245 817 321 853 c 128,-1,17
 397 889 397 889 477 889 c 0,18,19
 526 889 526 889 581 874.5 c 128,-1,20
 636 860 636 860 661 841 c 1,21,-1
 669 841 l 1,22,-1
 655 972 l 1,23,-1
 655 1151 l 1,24,-1
 503 1194 l 1,25,-1
 512 1247 l 1,26,-1
 770 1269 l 1,27,-1
 785 1252 l 1,28,-1
 785 222 l 2,29,30
 785 184 785 184 791 157 c 128,-1,31
 797 130 797 130 804.5 115 c 128,-1,32
 812 100 812 100 827.5 90.5 c 128,-1,33
 843 81 843 81 853.5 77.5 c 128,-1,34
 864 74 864 74 884 70 c 2,35,-1
 937 58 l 1,36,-1
 928 -2 l 1,37,38
 861 -22 861 -22 807 -22 c 0,39,40
 738 -22 738 -22 703.5 18.5 c 128,-1,41
 669 59 669 59 669 124 c 2,42,-1
 669 131 l 1,43,-1
 659 131 l 1,44,45
 548 -21 548 -21 370 -21 c 0,46,47
 231 -21 231 -21 141 88 c 128,-1,48
 51 197 51 197 51 393 c 0,13,14
EndSplineSet
Colour: ffff00
EndChar

StartChar: dagger
Encoding: 8224 8224 60
Width: 792
VWidth: 0
Flags: HMW
LayerCount: 2
Fore
SplineSet
42 723 m 1,0,-1
 51 819 l 1,1,-1
 348 811 l 1,2,-1
 340 1256 l 1,3,-1
 453 1244 l 1,4,-1
 442 811 l 1,5,-1
 748 819 l 1,6,-1
 742 718 l 1,7,-1
 442 728 l 1,8,-1
 458 -363 l 1,9,-1
 333 -351 l 1,10,-1
 348 730 l 1,11,-1
 42 723 l 1,0,-1
EndSplineSet
Colour: ff00ff
EndChar

StartChar: daggerdbl
Encoding: 8225 8225 61
Width: 799
VWidth: 0
Flags: HMW
LayerCount: 2
Fore
SplineSet
45 723 m 1,0,-1
 53 818 l 1,1,-1
 348 811 l 1,2,-1
 340 1256 l 1,3,-1
 454 1244 l 1,4,-1
 443 811 l 1,5,-1
 748 818 l 1,6,-1
 741 717 l 1,7,-1
 443 728 l 1,8,-1
 435 429 l 1,9,-1
 440 165 l 1,10,-1
 752 171 l 1,11,-1
 746 75 l 1,12,-1
 440 85 l 1,13,-1
 448 -363 l 1,14,-1
 335 -353 l 1,15,-1
 345 85 l 1,16,-1
 58 75 l 1,17,-1
 65 178 l 1,18,-1
 345 166 l 1,19,-1
 352 499 l 1,20,-1
 348 730 l 1,21,-1
 45 723 l 1,0,-1
EndSplineSet
Colour: ff00ff
EndChar

StartChar: degree
Encoding: 176 176 62
Width: 482
VWidth: 0
Flags: HMW
LayerCount: 2
Fore
SplineSet
134 1129 m 0,0,1
 134 1065 134 1065 163.5 1023 c 128,-1,2
 193 981 193 981 244 981 c 0,3,4
 288 981 288 981 316.5 1014.5 c 128,-1,5
 345 1048 345 1048 345 1105 c 0,6,7
 345 1166 345 1166 315 1208.5 c 128,-1,8
 285 1251 285 1251 236 1251 c 0,9,10
 188 1251 188 1251 161 1217 c 128,-1,11
 134 1183 134 1183 134 1129 c 0,0,1
58 1107 m 0,12,13
 58 1186 58 1186 114.5 1245 c 128,-1,14
 171 1304 171 1304 251 1304 c 0,15,16
 336 1304 336 1304 379 1258 c 128,-1,17
 422 1212 422 1212 422 1128 c 0,18,19
 422 1043 422 1043 365 985.5 c 128,-1,20
 308 928 308 928 227 928 c 0,21,22
 149 928 149 928 103.5 974.5 c 128,-1,23
 58 1021 58 1021 58 1107 c 0,12,13
EndSplineSet
Colour: ffff00
EndChar

StartChar: dieresis
Encoding: 168 168 63
Width: 537
VWidth: 0
Flags: HMW
LayerCount: 2
Fore
SplineSet
334 181 m 0,0,1
 334 217 334 217 353 237.5 c 128,-1,2
 372 258 372 258 403 258 c 0,3,4
 435 258 435 258 455.5 237.5 c 128,-1,5
 476 217 476 217 476 181 c 0,6,7
 476 143 476 143 456 121 c 128,-1,8
 436 99 436 99 403 99 c 0,9,10
 371 99 371 99 352.5 121.5 c 128,-1,11
 334 144 334 144 334 181 c 0,0,1
66 181 m 0,12,13
 66 217 66 217 85 237.5 c 128,-1,14
 104 258 104 258 135 258 c 0,15,16
 167 258 167 258 187 237.5 c 128,-1,17
 207 217 207 217 207 181 c 0,18,19
 207 143 207 143 187.5 121 c 128,-1,20
 168 99 168 99 136 99 c 128,-1,21
 104 99 104 99 85 121.5 c 128,-1,22
 66 144 66 144 66 181 c 0,12,13
EndSplineSet
Colour: ffff00
EndChar

StartChar: divide
Encoding: 247 247 64
Width: 918
VWidth: 0
Flags: HMW
LayerCount: 2
Fore
SplineSet
361 790 m 0,0,1
 361 838 361 838 385.5 866 c 128,-1,2
 410 894 410 894 451 894 c 128,-1,3
 492 894 492 894 518.5 865.5 c 128,-1,4
 545 837 545 837 545 790 c 0,5,6
 545 739 545 739 519.5 707.5 c 128,-1,7
 494 676 494 676 452 676 c 0,8,9
 411 676 411 676 386 708 c 128,-1,10
 361 740 361 740 361 790 c 0,0,1
361 226 m 0,11,12
 361 274 361 274 385.5 302 c 128,-1,13
 410 330 410 330 451 330 c 128,-1,14
 492 330 492 330 518.5 301 c 128,-1,15
 545 272 545 272 545 225 c 0,16,17
 545 175 545 175 519.5 143.5 c 128,-1,18
 494 112 494 112 452 112 c 0,19,20
 411 112 411 112 386 144 c 128,-1,21
 361 176 361 176 361 226 c 0,11,12
46 465 m 1,22,-1
 59 550 l 1,23,-1
 871 550 l 1,24,-1
 860 465 l 1,25,-1
 46 465 l 1,22,-1
EndSplineSet
Colour: ffff00
EndChar

StartChar: dollar
Encoding: 36 36 65
Width: 850
VWidth: 0
Flags: HMW
LayerCount: 2
Fore
SplineSet
47 119 m 1,0,-1
 69 395 l 1,1,-1
 144 384 l 1,2,-1
 177 181 l 1,3,4
 205 132 205 132 262.5 98.5 c 128,-1,5
 320 65 320 65 389 58 c 1,6,-1
 389 564 l 1,7,8
 348 588 348 588 324 603 c 128,-1,9
 300 618 300 618 263.5 643.5 c 128,-1,10
 227 669 227 669 205 689.5 c 128,-1,11
 183 710 183 710 157 739.5 c 128,-1,12
 131 769 131 769 117 797.5 c 128,-1,13
 103 826 103 826 93 862.5 c 128,-1,14
 83 899 83 899 83 938 c 0,15,16
 83 1004 83 1004 106 1061 c 128,-1,17
 129 1118 129 1118 168.5 1158 c 128,-1,18
 208 1198 208 1198 258 1224.5 c 128,-1,19
 308 1251 308 1251 365 1262 c 1,20,-1
 354 1395 l 1,21,-1
 491 1411 l 1,22,-1
 478 1269 l 1,23,24
 634 1258 634 1258 731 1165 c 1,25,-1
 704 869 l 1,26,-1
 631 878 l 1,27,-1
 605 1096 l 1,28,29
 587 1130 587 1130 543 1159 c 128,-1,30
 499 1188 499 1188 449 1197 c 1,31,-1
 449 721 l 1,32,33
 464 712 464 712 498 691.5 c 128,-1,34
 532 671 532 671 549 661 c 128,-1,35
 566 651 566 651 597 631 c 128,-1,36
 628 611 628 611 645 598 c 128,-1,37
 662 585 662 585 687.5 564 c 128,-1,38
 713 543 713 543 727 526 c 128,-1,39
 741 509 741 509 758 485 c 128,-1,40
 775 461 775 461 783.5 438.5 c 128,-1,41
 792 416 792 416 798 388 c 128,-1,42
 804 360 804 360 804 331 c 0,43,44
 804 200 804 200 715 106 c 128,-1,45
 626 12 626 12 483 -15 c 1,46,-1
 494 -164 l 1,47,-1
 349 -179 l 1,48,-1
 359 -25 l 1,49,50
 262 -21 262 -21 178.5 19.5 c 128,-1,51
 95 60 95 60 47 119 c 1,0,-1
393 756 m 1,52,-1
 393 1199 l 1,53,54
 317 1192 317 1192 268 1140.5 c 128,-1,55
 219 1089 219 1089 219 1001 c 0,56,57
 219 925 219 925 264.5 868 c 128,-1,58
 310 811 310 811 393 756 c 1,52,-1
451 527 m 1,59,-1
 451 59 l 1,60,61
 491 64 491 64 527.5 79.5 c 128,-1,62
 564 95 564 95 593 120.5 c 128,-1,63
 622 146 622 146 639.5 186 c 128,-1,64
 657 226 657 226 657 274 c 0,65,66
 657 315 657 315 641.5 351 c 128,-1,67
 626 387 626 387 595 418.5 c 128,-1,68
 564 450 564 450 531.5 474 c 128,-1,69
 499 498 499 498 451 527 c 1,59,-1
EndSplineSet
Colour: ffff00
EndChar

StartChar: dotaccent
Encoding: 729 729 66
Width: 296
VWidth: 0
Flags: HMW
LayerCount: 2
Fore
SplineSet
65 204 m 0,0,1
 65 250 65 250 88 278 c 128,-1,2
 111 306 111 306 149 306 c 128,-1,3
 187 306 187 306 211 278 c 128,-1,4
 235 250 235 250 235 204 c 0,5,6
 235 156 235 156 212 127 c 128,-1,7
 189 98 189 98 149 98 c 0,8,9
 110 98 110 98 87.5 127.5 c 128,-1,10
 65 157 65 157 65 204 c 0,0,1
EndSplineSet
Colour: ff00ff
EndChar

StartChar: e
Encoding: 101 101 67
Width: 765
VWidth: 0
Flags: HMW
LayerCount: 2
Fore
SplineSet
195 507 m 1,0,-1
 546 530 l 1,1,2
 553 550 553 550 553 610 c 0,3,4
 553 701 553 701 510.5 755 c 128,-1,5
 468 809 468 809 395 809 c 0,6,7
 312 809 312 809 255.5 730.5 c 128,-1,8
 199 652 199 652 195 507 c 1,0,-1
52 420 m 0,9,10
 52 528 52 528 86 618.5 c 128,-1,11
 120 709 120 709 176 766 c 128,-1,12
 232 823 232 823 301.5 854.5 c 128,-1,13
 371 886 371 886 444 886 c 0,14,15
 559 886 559 886 626.5 810 c 128,-1,16
 694 734 694 734 694 582 c 0,17,18
 694 517 694 517 677 451 c 1,19,-1
 193 445 l 1,20,21
 195 372 195 372 212.5 308 c 128,-1,22
 230 244 230 244 263.5 191.5 c 128,-1,23
 297 139 297 139 352.5 108.5 c 128,-1,24
 408 78 408 78 480 78 c 0,25,26
 543 78 543 78 594 94 c 128,-1,27
 645 110 645 110 701 148 c 1,28,-1
 720 104 l 1,29,30
 667 42 667 42 587 6 c 128,-1,31
 507 -30 507 -30 411 -30 c 0,32,33
 339 -30 339 -30 275 -1.5 c 128,-1,34
 211 27 211 27 161 81 c 128,-1,35
 111 135 111 135 81.5 222.5 c 128,-1,36
 52 310 52 310 52 420 c 0,9,10
EndSplineSet
Colour: ffff00
EndChar

StartChar: eacute
Encoding: 233 233 68
Width: 765
VWidth: 0
Flags: HMW
LayerCount: 2
Fore
SplineSet
301 1020 m 1,0,-1
 429 1350 l 1,1,-1
 532 1311 l 1,2,-1
 350 990 l 1,3,-1
 301 1020 l 1,0,-1
195 507 m 1,4,-1
 546 530 l 1,5,6
 553 550 553 550 553 610 c 0,7,8
 553 701 553 701 510.5 755 c 128,-1,9
 468 809 468 809 395 809 c 0,10,11
 312 809 312 809 255.5 730.5 c 128,-1,12
 199 652 199 652 195 507 c 1,4,-1
52 420 m 0,13,14
 52 528 52 528 86 618.5 c 128,-1,15
 120 709 120 709 176 766 c 128,-1,16
 232 823 232 823 301.5 854.5 c 128,-1,17
 371 886 371 886 444 886 c 0,18,19
 559 886 559 886 626.5 810 c 128,-1,20
 694 734 694 734 694 582 c 0,21,22
 694 517 694 517 677 451 c 1,23,-1
 193 445 l 1,24,25
 195 372 195 372 212.5 308 c 128,-1,26
 230 244 230 244 263.5 191.5 c 128,-1,27
 297 139 297 139 352.5 108.5 c 128,-1,28
 408 78 408 78 480 78 c 0,29,30
 543 78 543 78 594 94 c 128,-1,31
 645 110 645 110 701 148 c 1,32,-1
 720 104 l 1,33,34
 667 42 667 42 587 6 c 128,-1,35
 507 -30 507 -30 411 -30 c 0,36,37
 339 -30 339 -30 275 -1.5 c 128,-1,38
 211 27 211 27 161 81 c 128,-1,39
 111 135 111 135 81.5 222.5 c 128,-1,40
 52 310 52 310 52 420 c 0,13,14
EndSplineSet
Colour: ffff00
EndChar

StartChar: egrave
Encoding: 232 232 69
Width: 765
VWidth: 0
Flags: HMW
LayerCount: 2
Fore
SplineSet
211 1319 m 1,0,-1
 315 1356 l 1,1,-1
 448 1021 l 1,2,-1
 397 990 l 1,3,-1
 211 1319 l 1,0,-1
195 507 m 1,4,-1
 546 530 l 1,5,6
 553 550 553 550 553 610 c 0,7,8
 553 701 553 701 510.5 755 c 128,-1,9
 468 809 468 809 395 809 c 0,10,11
 312 809 312 809 255.5 730.5 c 128,-1,12
 199 652 199 652 195 507 c 1,4,-1
52 420 m 0,13,14
 52 528 52 528 86 618.5 c 128,-1,15
 120 709 120 709 176 766 c 128,-1,16
 232 823 232 823 301.5 854.5 c 128,-1,17
 371 886 371 886 444 886 c 0,18,19
 559 886 559 886 626.5 810 c 128,-1,20
 694 734 694 734 694 582 c 0,21,22
 694 517 694 517 677 451 c 1,23,-1
 193 445 l 1,24,25
 195 372 195 372 212.5 308 c 128,-1,26
 230 244 230 244 263.5 191.5 c 128,-1,27
 297 139 297 139 352.5 108.5 c 128,-1,28
 408 78 408 78 480 78 c 0,29,30
 543 78 543 78 594 94 c 128,-1,31
 645 110 645 110 701 148 c 1,32,-1
 720 104 l 1,33,34
 667 42 667 42 587 6 c 128,-1,35
 507 -30 507 -30 411 -30 c 0,36,37
 339 -30 339 -30 275 -1.5 c 128,-1,38
 211 27 211 27 161 81 c 128,-1,39
 111 135 111 135 81.5 222.5 c 128,-1,40
 52 310 52 310 52 420 c 0,13,14
EndSplineSet
Colour: ffff00
EndChar

StartChar: eight
Encoding: 56 56 70
Width: 810
VWidth: 0
Flags: HMW
LayerCount: 2
Fore
SplineSet
215 955 m 0,0,1
 215 880 215 880 273.5 812 c 128,-1,2
 332 744 332 744 469 656 c 1,3,4
 596 740 596 740 596 890 c 0,5,6
 596 995 596 995 537 1068 c 128,-1,7
 478 1141 478 1141 398 1141 c 0,8,9
 314 1141 314 1141 264.5 1088 c 128,-1,10
 215 1035 215 1035 215 955 c 0,0,1
189 312 m 0,11,12
 189 192 189 192 265 119.5 c 128,-1,13
 341 47 341 47 431 47 c 0,14,15
 523 47 523 47 577.5 96.5 c 128,-1,16
 632 146 632 146 632 233 c 0,17,18
 632 313 632 313 560 386 c 128,-1,19
 488 459 488 459 332 557 c 1,20,21
 263 506 263 506 226 451.5 c 128,-1,22
 189 397 189 397 189 312 c 0,11,12
49 281 m 0,23,24
 49 454 49 454 279 590 c 1,25,-1
 279 597 l 1,26,27
 95 722 95 722 95 897 c 0,28,29
 95 1023 95 1023 188.5 1112.5 c 128,-1,30
 282 1202 282 1202 424 1202 c 0,31,32
 562 1202 562 1202 641 1123.5 c 128,-1,33
 720 1045 720 1045 720 927 c 0,34,35
 720 830 720 830 664.5 749 c 128,-1,36
 609 668 609 668 526 625 c 1,37,-1
 523 619 l 1,38,39
 649 534 649 534 705.5 461.5 c 128,-1,40
 762 389 762 389 762 291 c 0,41,42
 762 152 762 152 654.5 62.5 c 128,-1,43
 547 -27 547 -27 377 -27 c 0,44,45
 237 -27 237 -27 143 59.5 c 128,-1,46
 49 146 49 146 49 281 c 0,23,24
EndSplineSet
Substitution2: "'onum' Oldstyle Figures lookup 1-1" eight.osf
Colour: ffff00
EndChar

StartChar: eight.osf
Encoding: 65536 -1 71
Width: 786
VWidth: 0
Flags: HMW
LayerCount: 2
Fore
SplineSet
208 967 m 0,0,1
 208 884 208 884 264.5 812 c 128,-1,2
 321 740 321 740 454 655 c 1,3,4
 572 758 572 758 572 899 c 0,5,6
 572 994 572 994 515.5 1067.5 c 128,-1,7
 459 1141 459 1141 381 1141 c 0,8,9
 307 1141 307 1141 257.5 1092 c 128,-1,10
 208 1043 208 1043 208 967 c 0,0,1
178 312 m 0,11,12
 178 204 178 204 249.5 126.5 c 128,-1,13
 321 49 321 49 405 49 c 0,14,15
 503 49 503 49 559.5 102.5 c 128,-1,16
 616 156 616 156 616 248 c 0,17,18
 616 328 616 328 549 397 c 128,-1,19
 482 466 482 466 320 568 c 1,20,21
 261 528 261 528 219.5 461 c 128,-1,22
 178 394 178 394 178 312 c 0,11,12
50 281 m 0,23,24
 50 453 50 453 272 597 c 1,25,-1
 272 604 l 1,26,27
 192 656 192 656 144 733 c 128,-1,28
 96 810 96 810 96 901 c 0,29,30
 96 1026 96 1026 184 1114 c 128,-1,31
 272 1202 272 1202 407 1202 c 0,32,33
 539 1202 539 1202 612 1127 c 128,-1,34
 685 1052 685 1052 685 935 c 0,35,36
 685 754 685 754 509 628 c 1,37,-1
 508 622 l 1,38,39
 625 548 625 548 682 468.5 c 128,-1,40
 739 389 739 389 739 295 c 0,41,42
 739 158 739 158 628 65.5 c 128,-1,43
 517 -27 517 -27 359 -27 c 0,44,45
 221 -27 221 -27 135.5 58.5 c 128,-1,46
 50 144 50 144 50 281 c 0,23,24
EndSplineSet
Colour: ff00ff
EndChar

StartChar: emdash
Encoding: 8212 8212 72
Width: 1261
VWidth: 0
Flags: HMW
LayerCount: 2
Fore
SplineSet
64 420 m 1,0,-1
 78 503 l 1,1,-1
 1198 509 l 1,2,-1
 1184 426 l 1,3,-1
 64 420 l 1,0,-1
EndSplineSet
Colour: ffff00
EndChar

StartChar: endash
Encoding: 8211 8211 73
Width: 752
VWidth: 0
Flags: HMW
LayerCount: 2
Fore
SplineSet
65 420 m 1,0,-1
 78 503 l 1,1,-1
 689 509 l 1,2,-1
 676 426 l 1,3,-1
 65 420 l 1,0,-1
EndSplineSet
Colour: ffff00
EndChar

StartChar: equal
Encoding: 61 61 74
Width: 754
VWidth: 0
Flags: HMW
LayerCount: 2
Fore
SplineSet
65 569 m 1,0,-1
 76 655 l 1,1,-1
 691 655 l 1,2,-1
 680 569 l 1,3,-1
 65 569 l 1,0,-1
62 330 m 1,4,-1
 73 415 l 1,5,-1
 688 415 l 1,6,-1
 677 330 l 1,7,-1
 62 330 l 1,4,-1
EndSplineSet
Colour: ffff00
EndChar

StartChar: eth
Encoding: 240 240 75
Width: 851
VWidth: 0
Flags: HMW
LayerCount: 2
Fore
SplineSet
190 499 m 0,0,1
 191 287 191 287 264 168.5 c 128,-1,2
 337 50 337 50 450 50 c 0,3,4
 525 50 525 50 574 100 c 128,-1,5
 623 150 623 150 644 231.5 c 128,-1,6
 665 313 665 313 665 425 c 0,7,8
 665 621 665 621 583 747 c 128,-1,9
 501 873 501 873 400 875 c 1,10,-1
 395 875 l 1,11,12
 324 874 324 874 276.5 821 c 128,-1,13
 229 768 229 768 209.5 687 c 128,-1,14
 190 606 190 606 190 499 c 0,0,1
51 451 m 0,15,16
 51 672 51 672 152 810.5 c 128,-1,17
 253 949 253 949 413 949 c 0,18,19
 474 949 474 949 531.5 912.5 c 128,-1,20
 589 876 589 876 611 820 c 1,21,-1
 618 821 l 1,22,23
 587 936 587 936 485 1086 c 1,24,-1
 253 1040 l 1,25,-1
 264 1103 l 1,26,-1
 451 1141 l 1,27,28
 382 1233 382 1233 305 1303 c 1,29,-1
 397 1303 l 1,30,31
 474 1255 474 1255 555 1164 c 1,32,-1
 711 1197 l 1,33,-1
 702 1133 l 1,34,-1
 599 1112 l 1,35,36
 802 843 802 843 802 465 c 0,37,38
 802 239 802 239 697 106 c 128,-1,39
 592 -27 592 -27 427 -27 c 0,40,41
 351 -27 351 -27 288 -0.5 c 128,-1,42
 225 26 225 26 182 71.5 c 128,-1,43
 139 117 139 117 109 178 c 128,-1,44
 79 239 79 239 65 308 c 128,-1,45
 51 377 51 377 51 451 c 0,15,16
EndSplineSet
Colour: ffff00
EndChar

StartChar: exclam
Encoding: 33 33 76
Width: 293
VWidth: 0
Flags: HMW
LayerCount: 2
Fore
SplineSet
71 1254 m 0,0,1
 71 1272 71 1272 104.5 1282.5 c 128,-1,2
 138 1293 138 1293 171 1293 c 0,3,4
 230 1293 230 1293 230 1254 c 0,5,6
 230 983 230 983 178 361 c 1,7,-1
 111 376 l 1,8,9
 71 1018 71 1018 71 1254 c 0,0,1
55 79 m 0,10,11
 55 124 55 124 81 154 c 128,-1,12
 107 184 107 184 145 184 c 0,13,14
 184 184 184 184 211 153.5 c 128,-1,15
 238 123 238 123 238 78 c 0,16,17
 238 29 238 29 213 -3 c 128,-1,18
 188 -35 188 -35 145 -35 c 0,19,20
 104 -35 104 -35 79.5 -2 c 128,-1,21
 55 31 55 31 55 79 c 0,10,11
EndSplineSet
Colour: ffff00
EndChar

StartChar: exclamdown
Encoding: 161 161 77
Width: 291
VWidth: 0
Flags: HMW
LayerCount: 2
Fore
SplineSet
55 797 m 0,0,1
 55 846 55 846 80 878 c 128,-1,2
 105 910 105 910 147 910 c 0,3,4
 188 910 188 910 213 877 c 128,-1,5
 238 844 238 844 238 796 c 0,6,7
 238 751 238 751 211.5 721.5 c 128,-1,8
 185 692 185 692 147 692 c 0,9,10
 108 692 108 692 81.5 722 c 128,-1,11
 55 752 55 752 55 797 c 0,0,1
63 -377 m 0,12,13
 63 -86 63 -86 114 524 c 1,14,-1
 117 529 l 1,15,-1
 181 515 l 1,16,-1
 181 512 l 1,17,18
 223 -158 223 -158 223 -375 c 2,19,-1
 223 -377 l 1,20,21
 217 -396 217 -396 185.5 -406.5 c 128,-1,22
 154 -417 154 -417 122 -417 c 0,23,24
 63 -417 63 -417 63 -377 c 0,12,13
EndSplineSet
Colour: ffff00
EndChar

StartChar: f
Encoding: 102 102 78
Width: 636
VWidth: 0
Flags: HMW
LayerCount: 2
Fore
SplineSet
43 0 m 1,0,-1
 55 51 l 1,1,-1
 207 87 l 1,2,-1
 207 791 l 1,3,-1
 58 791 l 1,4,-1
 70 845 l 1,5,-1
 208 867 l 1,6,7
 218 976 218 976 254 1062.5 c 128,-1,8
 290 1149 290 1149 339.5 1200.5 c 128,-1,9
 389 1252 389 1252 444.5 1278.5 c 128,-1,10
 500 1305 500 1305 555 1305 c 0,11,12
 635 1305 635 1305 684 1274 c 128,-1,13
 733 1243 733 1243 733 1192 c 0,14,15
 733 1161 733 1161 712 1135.5 c 128,-1,16
 691 1110 691 1110 664 1099 c 1,17,18
 579 1220 579 1220 487 1220 c 0,19,20
 425 1220 425 1220 384 1160 c 128,-1,21
 343 1100 343 1100 342 981 c 2,22,-1
 341 861 l 1,23,-1
 599 861 l 1,24,-1
 586 791 l 1,25,-1
 341 791 l 1,26,-1
 341 91 l 1,27,-1
 587 61 l 1,28,-1
 580 0 l 1,29,-1
 43 0 l 1,0,-1
EndSplineSet
Colour: ffff00
EndChar

StartChar: five
Encoding: 53 53 79
Width: 801
VWidth: 0
Flags: HMW
LayerCount: 2
Fore
SplineSet
49 88 m 1,0,-1
 77 369 l 1,1,-1
 144 355 l 1,2,-1
 162 155 l 1,3,4
 241 58 241 58 370 58 c 0,5,6
 477 58 477 58 540 126.5 c 128,-1,7
 603 195 603 195 603 308 c 0,8,9
 603 456 603 456 479.5 540.5 c 128,-1,10
 356 625 356 625 139 639 c 1,11,-1
 254 1171 l 1,12,-1
 703 1198 l 1,13,-1
 682 1049 l 1,14,-1
 297 1032 l 1,15,-1
 253 771 l 1,16,17
 382 763 382 763 479.5 728.5 c 128,-1,18
 577 694 577 694 635 639 c 128,-1,19
 693 584 693 584 721.5 516.5 c 128,-1,20
 750 449 750 449 750 368 c 0,21,22
 750 211 750 211 628.5 97.5 c 128,-1,23
 507 -16 507 -16 327 -16 c 0,24,25
 157 -16 157 -16 49 88 c 1,0,-1
EndSplineSet
Substitution2: "'onum' Oldstyle Figures lookup 1-1" five.osf
Colour: ffff00
EndChar

StartChar: five.osf
Encoding: 65537 -1 80
Width: 820
VWidth: 0
Flags: HMW
LayerCount: 2
Fore
SplineSet
41 -147 m 0,0,1
 41 -102 41 -102 70.5 -66.5 c 128,-1,2
 100 -31 100 -31 141 -26 c 1,3,4
 170 -107 170 -107 226.5 -164 c 128,-1,5
 283 -221 283 -221 364 -221 c 0,6,7
 470 -221 470 -221 545 -146.5 c 128,-1,8
 620 -72 620 -72 620 72 c 0,9,10
 620 220 620 220 509.5 307 c 128,-1,11
 399 394 399 394 193 413 c 1,12,-1
 288 923 l 1,13,-1
 733 961 l 1,14,-1
 712 821 l 1,15,-1
 345 796 l 1,16,-1
 303 537 l 1,17,18
 522 509 522 509 646.5 405 c 128,-1,19
 771 301 771 301 771 133 c 0,20,21
 771 21 771 21 713.5 -77 c 128,-1,22
 656 -175 656 -175 551 -236 c 128,-1,23
 446 -297 446 -297 318 -297 c 0,24,25
 199 -297 199 -297 120 -254.5 c 128,-1,26
 41 -212 41 -212 41 -147 c 0,0,1
EndSplineSet
Colour: ff00ff
EndChar

StartChar: four
Encoding: 52 52 81
Width: 1004
VWidth: 0
Flags: HMW
LayerCount: 2
Fore
SplineSet
193 462 m 1,0,-1
 555 462 l 1,1,-1
 555 948 l 1,2,-1
 193 462 l 1,0,-1
45 415 m 1,3,-1
 662 1191 l 1,4,-1
 711 1176 l 1,5,6
 702 998 702 998 702 683 c 2,7,-1
 702 462 l 1,8,-1
 957 462 l 1,9,-1
 941 357 l 1,10,-1
 702 357 l 1,11,-1
 702 89 l 1,12,-1
 908 64 l 1,13,-1
 897 0 l 1,14,-1
 305 0 l 1,15,-1
 312 57 l 1,16,-1
 559 95 l 1,17,-1
 559 361 l 1,18,-1
 64 361 l 1,19,-1
 45 415 l 1,3,-1
EndSplineSet
Substitution2: "'onum' Oldstyle Figures lookup 1-1" four.osf
Colour: ffff00
EndChar

StartChar: four.osf
Encoding: 65538 -1 82
Width: 988
VWidth: 0
Flags: HMW
LayerCount: 2
Fore
SplineSet
189 205 m 1,0,-1
 550 205 l 1,1,-1
 550 714 l 1,2,-1
 189 205 l 1,0,-1
43 159 m 1,3,-1
 652 978 l 1,4,-1
 701 963 l 1,5,6
 691 765 691 765 691 454 c 2,7,-1
 691 205 l 1,8,-1
 946 205 l 1,9,-1
 930 105 l 1,10,-1
 692 105 l 1,11,-1
 692 -269 l 1,12,-1
 552 -300 l 1,13,-1
 552 108 l 1,14,-1
 61 108 l 1,15,-1
 43 159 l 1,3,-1
EndSplineSet
Colour: ff00ff
EndChar

StartChar: g
Encoding: 103 103 83
Width: 902
VWidth: 0
Flags: HMW
LayerCount: 2
Fore
SplineSet
240 599 m 0,0,1
 240 503 240 503 294.5 431 c 128,-1,2
 349 359 349 359 423 359 c 0,3,4
 493 359 493 359 537 411.5 c 128,-1,5
 581 464 581 464 581 565 c 0,6,7
 581 668 581 668 532.5 746.5 c 128,-1,8
 484 825 484 825 408 825 c 0,9,10
 323 825 323 825 281.5 764 c 128,-1,11
 240 703 240 703 240 599 c 0,0,1
174 -116 m 0,12,13
 174 -299 174 -299 450 -299 c 0,14,15
 555 -299 555 -299 628 -250 c 128,-1,16
 701 -201 701 -201 701 -107 c 0,17,18
 701 -37 701 -37 657 -10 c 128,-1,19
 613 17 613 17 480 17 c 2,20,-1
 268 17 l 1,21,22
 264 16 264 16 258 13 c 128,-1,23
 252 10 252 10 235.5 -1 c 128,-1,24
 219 -12 219 -12 206.5 -25.5 c 128,-1,25
 194 -39 194 -39 184 -63.5 c 128,-1,26
 174 -88 174 -88 174 -116 c 0,12,13
38 -165 m 0,27,28
 38 -129 38 -129 54.5 -97.5 c 128,-1,29
 71 -66 71 -66 102 -41 c 128,-1,30
 133 -16 133 -16 154 -2.5 c 128,-1,31
 175 11 175 11 208 28 c 1,32,-1
 208 35 l 1,33,34
 165 55 165 55 138.5 88 c 128,-1,35
 112 121 112 121 112 162 c 0,36,37
 112 197 112 197 158.5 243.5 c 128,-1,38
 205 290 205 290 264 322 c 1,39,-1
 264 327 l 1,40,41
 215 345 215 345 164 416 c 128,-1,42
 113 487 113 487 113 578 c 0,43,44
 113 702 113 702 208 793.5 c 128,-1,45
 303 885 303 885 432 885 c 0,46,47
 534 885 534 885 623 822 c 1,48,-1
 842 838 l 1,49,-1
 858 820 l 1,50,-1
 823 725 l 1,51,-1
 811 723 l 1,52,-1
 670 764 l 1,53,-1
 667 753 l 1,54,55
 681 728 681 728 696 678.5 c 128,-1,56
 711 629 711 629 711 588 c 0,57,58
 711 506 711 506 662.5 436 c 128,-1,59
 614 366 614 366 542 328.5 c 128,-1,60
 470 291 470 291 396 291 c 0,61,62
 348 291 348 291 303 306 c 1,63,64
 279 283 279 283 270.5 274.5 c 128,-1,65
 262 266 262 266 249.5 246 c 128,-1,66
 237 226 237 226 237 210 c 0,67,68
 237 132 237 132 407 132 c 2,69,-1
 561 132 l 2,70,71
 629 132 629 132 672.5 125.5 c 128,-1,72
 716 119 716 119 755 100 c 128,-1,73
 794 81 794 81 812 42 c 128,-1,74
 830 3 830 3 829 -58 c 0,75,76
 827 -188 827 -188 692.5 -287.5 c 128,-1,77
 558 -387 558 -387 384 -387 c 0,78,79
 230 -387 230 -387 134 -329.5 c 128,-1,80
 38 -272 38 -272 38 -165 c 0,27,28
EndSplineSet
Colour: ffff00
EndChar

StartChar: germandbls
Encoding: 223 223 84
Width: 1101
VWidth: 0
Flags: HMW
LayerCount: 2
Fore
SplineSet
44 0 m 1,0,-1
 56 52 l 1,1,-1
 207 88 l 1,2,-1
 207 804 l 1,3,-1
 60 804 l 1,4,-1
 71 853 l 1,5,-1
 209 877 l 1,6,7
 216 994 216 994 259 1089.5 c 128,-1,8
 302 1185 302 1185 384.5 1244.5 c 128,-1,9
 467 1304 467 1304 575 1304 c 0,10,11
 690 1304 690 1304 767 1234.5 c 128,-1,12
 844 1165 844 1165 844 1054 c 0,13,14
 844 1005 844 1005 821.5 958.5 c 128,-1,15
 799 912 799 912 767.5 877 c 128,-1,16
 736 842 736 842 704 810 c 128,-1,17
 672 778 672 778 649.5 745 c 128,-1,18
 627 712 627 712 627 682 c 0,19,20
 627 630 627 630 671.5 585 c 128,-1,21
 716 540 716 540 779 504.5 c 128,-1,22
 842 469 842 469 905 431 c 128,-1,23
 968 393 968 393 1012.5 337.5 c 128,-1,24
 1057 282 1057 282 1057 214 c 0,25,26
 1057 106 1057 106 968.5 36.5 c 128,-1,27
 880 -33 880 -33 760 -33 c 128,-1,28
 640 -33 640 -33 560.5 21.5 c 128,-1,29
 481 76 481 76 481 158 c 0,30,31
 481 208 481 208 511.5 236 c 128,-1,32
 542 264 542 264 587 269 c 1,33,34
 628 41 628 41 791 41 c 0,35,36
 857 41 857 41 898.5 73.5 c 128,-1,37
 940 106 940 106 940 161 c 0,38,39
 940 197 940 197 909 231.5 c 128,-1,40
 878 266 878 266 832 292.5 c 128,-1,41
 786 319 786 319 732 353 c 128,-1,42
 678 387 678 387 632 421.5 c 128,-1,43
 586 456 586 456 555 508 c 128,-1,44
 524 560 524 560 524 620 c 0,45,46
 524 671 524 671 544 716.5 c 128,-1,47
 564 762 564 762 592.5 796 c 128,-1,48
 621 830 621 830 649.5 862.5 c 128,-1,49
 678 895 678 895 698 933 c 128,-1,50
 718 971 718 971 718 1012 c 0,51,52
 718 1099 718 1099 658 1159 c 128,-1,53
 598 1219 598 1219 515 1219 c 0,54,55
 431 1219 431 1219 386.5 1148.5 c 128,-1,56
 342 1078 342 1078 342 945 c 2,57,-1
 342 0 l 1,58,-1
 44 0 l 1,0,-1
EndSplineSet
Colour: ffff00
EndChar

StartChar: grave
Encoding: 96 96 85
Width: 393
VWidth: 0
Flags: HMW
LayerCount: 2
Fore
SplineSet
77 1661 m 1,0,-1
 181 1698 l 1,1,-1
 314 1363 l 1,2,-1
 263 1332 l 1,3,-1
 77 1661 l 1,0,-1
EndSplineSet
Colour: ffff00
EndChar

StartChar: greater
Encoding: 62 62 86
Width: 766
VWidth: 0
Flags: HMW
LayerCount: 2
Fore
SplineSet
42 -25 m 1,0,-1
 533 437 l 1,1,-1
 62 914 l 1,2,-1
 97 974 l 1,3,-1
 718 456 l 1,4,-1
 719 427 l 1,5,-1
 84 -82 l 1,6,-1
 42 -25 l 1,0,-1
EndSplineSet
Colour: ffff00
EndChar

StartChar: guilsinglleft
Encoding: 8249 8249 87
Width: 405
VWidth: 0
Flags: HMW
LayerCount: 2
Fore
SplineSet
49 469 m 1,0,-1
 317 821 l 1,1,-1
 353 774 l 1,2,-1
 177 461 l 1,3,-1
 354 128 l 1,4,-1
 312 77 l 1,5,-1
 51 449 l 1,6,-1
 49 469 l 1,0,-1
EndSplineSet
Colour: ffff00
EndChar

StartChar: h
Encoding: 104 104 88
Width: 1064
VWidth: 0
Flags: HMW
LayerCount: 2
Fore
SplineSet
46 0 m 1,0,-1
 57 57 l 1,1,-1
 211 87 l 1,2,-1
 211 1154 l 1,3,-1
 54 1196 l 1,4,-1
 63 1250 l 1,5,-1
 327 1271 l 1,6,-1
 343 1254 l 1,7,-1
 343 839 l 1,8,-1
 330 733 l 1,9,-1
 338 733 l 1,10,11
 402 803 402 803 481.5 847 c 128,-1,12
 561 891 561 891 642 891 c 0,13,14
 754 891 754 891 814.5 821 c 128,-1,15
 875 751 875 751 875 588 c 2,16,-1
 875 86 l 1,17,-1
 1017 58 l 1,18,-1
 1008 0 l 1,19,-1
 597 0 l 1,20,-1
 606 54 l 1,21,-1
 743 86 l 1,22,-1
 746 561 l 1,23,-1
 746 568 l 2,24,25
 746 681 746 681 697 732 c 128,-1,26
 648 783 648 783 572 783 c 0,27,28
 505 783 505 783 451 756 c 128,-1,29
 397 729 397 729 343 670 c 1,30,-1
 343 87 l 1,31,-1
 488 58 l 1,32,-1
 478 0 l 1,33,-1
 46 0 l 1,0,-1
EndSplineSet
Colour: ffff00
EndChar

StartChar: hyphen
Encoding: 45 45 89
Width: 545
VWidth: 0
Flags: HMW
LayerCount: 2
Fore
SplineSet
65 409 m 1,0,-1
 76 489 l 1,1,-1
 484 507 l 1,2,-1
 473 426 l 1,3,-1
 65 409 l 1,0,-1
EndSplineSet
Colour: ffff00
EndChar

StartChar: i
Encoding: 105 105 90
Width: 556
VWidth: 0
Flags: HMW
LayerCount: 2
Back
SplineSet
4.58008 -395.961 m 5,0,1
 49.3211 -362.489 49.3211 -362.489 84.7541 -327.597 c 0
 120.187 -292.705 120.187 -292.705 156.487 -240 c 0
 192.786 -187.295 192.786 -187.295 216.836 -126.787 c 0
 240.886 -66.2788 240.886 -66.2788 256.077 18.0973 c 0
 271.268 102.473 271.268 102.473 271.268 201.034 c 2,2,-1
 271.268 954.783 l 1,3,-1
 81.9395 1006.19 l 1,4,-1
 93.1367 1073.37 l 1,5,-1
 416.826 1099.32 l 1,6,-1
 437.693 1077.95 l 1,7,-1
 437.693 189.328 l 2,8,9
 437.693 -241.77 437.693 -241.77 111.968 -446.854 c 1,10,-1
 56.4932 -481.463 l 1,11,-1
 4.58008 -395.961 l 5,0,1
228.008 1495.79 m 4,12,13
 228.008 1556.85 228.008 1556.85 260.661 1594.01 c 0
 293.314 1631.17 293.314 1631.17 345.574 1631.17 c 0,14,15
 396.891 1631.17 396.891 1631.17 430.27 1593.46 c 0
 463.65 1555.74 463.65 1555.74 463.65 1495.28 c 0,16,17
 463.65 1432.01 463.65 1432.01 430.955 1392.39 c 0
 398.26 1352.78 398.26 1352.78 345.065 1352.78 c 0,18,19
 292.287 1352.78 292.287 1352.78 260.148 1392.95 c 0
 228.008 1433.13 228.008 1433.13 228.008 1495.79 c 4,12,13
EndSplineSet
Fore
SplineSet
45 0 m 1,0,-1
 57 55 l 1,1,-1
 208 87 l 1,2,-1
 208 772 l 1,3,-1
 56 814 l 1,4,-1
 64 865 l 1,5,-1
 323 887 l 1,6,-1
 339 871 l 1,7,-1
 339 87 l 1,8,-1
 499 57 l 1,9,-1
 488 0 l 1,10,-1
 45 0 l 1,0,-1
172 1199 m 0,11,12
 172 1245 172 1245 195 1273 c 128,-1,13
 218 1301 218 1301 256 1301 c 128,-1,14
 294 1301 294 1301 318 1273 c 128,-1,15
 342 1245 342 1245 342 1199 c 0,16,17
 342 1151 342 1151 319 1122 c 128,-1,18
 296 1093 296 1093 256 1093 c 0,19,20
 217 1093 217 1093 194.5 1122.5 c 128,-1,21
 172 1152 172 1152 172 1199 c 0,11,12
EndSplineSet
Colour: ffff00
EndChar

StartChar: igrave
Encoding: 236 236 91
Width: 547
VWidth: 0
Flags: HMW
LayerCount: 2
Fore
SplineSet
48 0 m 1,0,-1
 60 55 l 1,1,-1
 211 87 l 1,2,-1
 211 772 l 1,3,-1
 59 814 l 1,4,-1
 67 865 l 1,5,-1
 326 887 l 1,6,-1
 342 871 l 1,7,-1
 342 87 l 1,8,-1
 502 57 l 1,9,-1
 491 0 l 1,10,-1
 48 0 l 1,0,-1
17 1319 m 1,11,-1
 121 1356 l 1,12,-1
 254 1021 l 1,13,-1
 203 990 l 1,14,-1
 17 1319 l 1,11,-1
EndSplineSet
Colour: ffff00
EndChar

StartChar: j
Encoding: 106 106 92
Width: 463
VWidth: 0
Flags: HMW
LayerCount: 2
Fore
SplineSet
216 1191 m 0,0,1
 216 1240 216 1240 242 1269.5 c 128,-1,2
 268 1299 268 1299 309 1299 c 128,-1,3
 350 1299 350 1299 376.5 1269 c 128,-1,4
 403 1239 403 1239 403 1191 c 0,5,6
 403 1140 403 1140 377 1108.5 c 128,-1,7
 351 1077 351 1077 309 1077 c 128,-1,8
 267 1077 267 1077 241.5 1109 c 128,-1,9
 216 1141 216 1141 216 1191 c 0,0,1
38 -315 m 1,10,11
 83 -281 83 -281 117.5 -243.5 c 128,-1,12
 152 -206 152 -206 184 -150 c 128,-1,13
 216 -94 216 -94 233 -15.5 c 128,-1,14
 250 63 250 63 250 160 c 2,15,-1
 250 760 l 1,16,-1
 99 801 l 1,17,-1
 108 855 l 1,18,-1
 366 875 l 1,19,-1
 383 858 l 1,20,-1
 383 151 l 2,21,22
 383 -191 383 -191 123 -356 c 1,23,-1
 79 -383 l 1,24,-1
 38 -315 l 1,10,11
EndSplineSet
Colour: ffff00
EndChar

StartChar: k
Encoding: 107 107 93
Width: 1020
VWidth: 0
Flags: HMW
LayerCount: 2
Fore
SplineSet
370 429 m 1,0,-1
 370 447 l 1,1,-1
 656 781 l 1,2,-1
 522 818 l 1,3,-1
 530 873 l 1,4,-1
 923 873 l 1,5,-1
 913 819 l 1,6,-1
 763 782 l 1,7,-1
 498 473 l 1,8,-1
 598 355 l 2,9,10
 625 323 625 323 668.5 269.5 c 128,-1,11
 712 216 712 216 729 196 c 128,-1,12
 746 176 746 176 776 145 c 128,-1,13
 806 114 806 114 825 102.5 c 128,-1,14
 844 91 844 91 871.5 79.5 c 128,-1,15
 899 68 899 68 930 64 c 2,16,-1
 969 59 l 1,17,-1
 960 0 l 1,18,19
 900 -20 900 -20 849 -20 c 0,20,21
 805 -20 805 -20 771 -8.5 c 128,-1,22
 737 3 737 3 695.5 39.5 c 128,-1,23
 654 76 654 76 614 122 c 128,-1,24
 574 168 574 168 504 258 c 2,25,-1
 370 429 l 1,0,-1
47 0 m 1,26,-1
 57 55 l 1,27,-1
 211 87 l 1,28,-1
 211 1151 l 1,29,-1
 55 1192 l 1,30,-1
 61 1244 l 1,31,-1
 324 1266 l 1,32,-1
 340 1249 l 1,33,-1
 340 87 l 1,34,-1
 500 57 l 1,35,-1
 491 0 l 1,36,-1
 47 0 l 1,26,-1
EndSplineSet
Colour: ffff00
EndChar

StartChar: l
Encoding: 108 108 94
Width: 544
VWidth: 0
Flags: HMW
LayerCount: 2
Fore
SplineSet
46 0 m 1,0,-1
 56 55 l 1,1,-1
 210 87 l 1,2,-1
 210 1156 l 1,3,-1
 54 1197 l 1,4,-1
 60 1249 l 1,5,-1
 322 1270 l 1,6,-1
 339 1254 l 1,7,-1
 339 87 l 1,8,-1
 500 57 l 1,9,-1
 488 0 l 1,10,-1
 46 0 l 1,0,-1
EndSplineSet
Colour: ffff00
EndChar

StartChar: logicalnot
Encoding: 172 172 95
Width: 876
VWidth: 0
Flags: HMW
LayerCount: 2
Fore
SplineSet
53 584 m 1,0,-1
 65 664 l 1,1,-1
 810 664 l 1,2,-1
 811 351 l 1,3,-1
 722 332 l 1,4,-1
 722 584 l 1,5,-1
 53 584 l 1,0,-1
EndSplineSet
Colour: ffff00
EndChar

StartChar: m
Encoding: 109 109 96
Width: 1596
VWidth: 0
Flags: HMW
LayerCount: 2
Fore
SplineSet
48 0 m 1,0,-1
 57 54 l 1,1,-1
 209 86 l 1,2,-1
 209 753 l 1,3,-1
 52 793 l 1,4,-1
 58 845 l 1,5,-1
 327 875 l 1,6,-1
 339 861 l 1,7,-1
 328 728 l 1,8,-1
 336 728 l 1,9,10
 390 794 390 794 472.5 841.5 c 128,-1,11
 555 889 555 889 643 889 c 0,12,13
 722 889 722 889 780 846.5 c 128,-1,14
 838 804 838 804 856 723 c 1,15,-1
 867 723 l 1,16,17
 919 790 919 790 999.5 837.5 c 128,-1,18
 1080 885 1080 885 1168 885 c 0,19,20
 1294 885 1294 885 1349 810 c 128,-1,21
 1404 735 1404 735 1404 597 c 2,22,-1
 1404 87 l 1,23,-1
 1546 60 l 1,24,-1
 1533 2 l 1,25,-1
 1136 2 l 1,26,-1
 1142 54 l 1,27,-1
 1272 86 l 1,28,-1
 1272 573 l 2,29,30
 1272 672 1272 672 1226.5 726 c 128,-1,31
 1181 780 1181 780 1096 780 c 0,32,33
 985 780 985 780 872 660 c 1,34,-1
 872 86 l 1,35,-1
 1011 58 l 1,36,-1
 1003 0 l 1,37,-1
 605 0 l 1,38,-1
 613 54 l 1,39,-1
 746 86 l 1,40,-1
 746 573 l 2,41,42
 746 667 746 667 699.5 724 c 128,-1,43
 653 781 653 781 573 781 c 0,44,45
 506 781 506 781 444 749.5 c 128,-1,46
 382 718 382 718 340 666 c 1,47,-1
 340 86 l 1,48,-1
 483 58 l 1,49,-1
 473 0 l 1,50,-1
 48 0 l 1,0,-1
EndSplineSet
Colour: ffff00
EndChar

StartChar: macron
Encoding: 175 175 97
Width: 610
VWidth: 0
Flags: HMW
LayerCount: 2
Fore
SplineSet
79 1380 m 1,0,-1
 90 1456 l 1,1,-1
 531 1456 l 1,2,-1
 521 1380 l 1,3,-1
 79 1380 l 1,0,-1
EndSplineSet
Colour: ffff00
EndChar

StartChar: multiply
Encoding: 215 215 98
Width: 558
VWidth: 0
Flags: HMW
LayerCount: 2
Fore
SplineSet
51 302 m 1,0,-1
 221 462 l 1,1,-1
 52 625 l 1,2,-1
 123 681 l 1,3,-1
 281 514 l 1,4,-1
 450 686 l 1,5,-1
 506 615 l 1,6,-1
 338 458 l 1,7,-1
 511 292 l 1,8,-1
 441 236 l 1,9,-1
 277 407 l 1,10,-1
 108 232 l 1,11,-1
 51 302 l 1,0,-1
EndSplineSet
Colour: ffff00
EndChar

StartChar: n
Encoding: 110 110 99
Width: 1070
VWidth: 0
Flags: HMW
LayerCount: 2
Fore
SplineSet
48 0 m 1,0,-1
 56 52 l 1,1,-1
 209 86 l 1,2,-1
 209 755 l 1,3,-1
 54 794 l 1,4,-1
 61 846 l 1,5,-1
 326 876 l 1,6,-1
 338 862 l 1,7,-1
 328 730 l 1,8,-1
 336 730 l 1,9,10
 386 792 386 792 471 841 c 128,-1,11
 556 890 556 890 647 890 c 0,12,13
 754 890 754 890 816 817 c 128,-1,14
 878 744 878 744 878 600 c 2,15,-1
 878 86 l 1,16,-1
 1019 58 l 1,17,-1
 1012 0 l 1,18,-1
 599 0 l 1,19,-1
 607 52 l 1,20,-1
 747 86 l 1,21,-1
 747 568 l 2,22,23
 747 676 747 676 699.5 728.5 c 128,-1,24
 652 781 652 781 577 781 c 0,25,26
 507 781 507 781 453 755.5 c 128,-1,27
 399 730 399 730 339 670 c 1,28,-1
 339 86 l 1,29,-1
 485 58 l 1,30,-1
 475 0 l 1,31,-1
 48 0 l 1,0,-1
EndSplineSet
Colour: ffff00
EndChar

StartChar: nine
Encoding: 57 57 100
Width: 845
VWidth: 0
Flags: HMW
LayerCount: 2
Fore
SplineSet
206 853 m 0,0,1
 206 729 206 729 264 647 c 128,-1,2
 322 565 322 565 430 565 c 0,3,4
 493 565 493 565 545.5 590.5 c 128,-1,5
 598 616 598 616 621 651 c 1,6,7
 630 702 630 702 630 793 c 0,8,9
 630 945 630 945 568 1044.5 c 128,-1,10
 506 1144 506 1144 415 1144 c 0,11,12
 305 1144 305 1144 255.5 1070 c 128,-1,13
 206 996 206 996 206 853 c 0,0,1
48 818 m 0,14,15
 48 984 48 984 161 1096.5 c 128,-1,16
 274 1209 274 1209 430 1209 c 0,17,18
 505 1209 505 1209 566.5 1184.5 c 128,-1,19
 628 1160 628 1160 669.5 1118.5 c 128,-1,20
 711 1077 711 1077 739 1019 c 128,-1,21
 767 961 767 961 779.5 896.5 c 128,-1,22
 792 832 792 832 792 760 c 0,23,24
 792 575 792 575 718 409 c 128,-1,25
 644 243 644 243 502 125 c 128,-1,26
 360 7 360 7 178 -27 c 1,27,-1
 159 31 l 1,28,29
 254 59 254 59 329 104 c 128,-1,30
 404 149 404 149 453 200.5 c 128,-1,31
 502 252 502 252 537 316.5 c 128,-1,32
 572 381 572 381 590 443 c 128,-1,33
 608 505 608 505 618 576 c 1,34,-1
 608 576 l 1,35,36
 499 472 499 472 349 472 c 0,37,38
 208 472 208 472 128 568.5 c 128,-1,39
 48 665 48 665 48 818 c 0,14,15
EndSplineSet
Substitution2: "'onum' Oldstyle Figures lookup 1-1" nine.osf
Colour: ffff00
EndChar

StartChar: nine.osf
Encoding: 65539 -1 101
Width: 802
VWidth: 0
Flags: HMW
LayerCount: 2
Fore
SplineSet
202 602 m 0,0,1
 202 465 202 465 254 390 c 128,-1,2
 306 315 306 315 408 315 c 0,3,4
 469 315 469 315 515.5 339 c 128,-1,5
 562 363 562 363 586 398 c 1,6,7
 594 445 594 445 594 541 c 0,8,9
 594 694 594 694 536 793.5 c 128,-1,10
 478 893 478 893 388 893 c 0,11,12
 202 893 202 893 202 602 c 0,0,1
51 576 m 0,13,14
 51 735 51 735 154.5 847 c 128,-1,15
 258 959 258 959 407 959 c 0,16,17
 501 959 501 959 569 922.5 c 128,-1,18
 637 886 637 886 675 821.5 c 128,-1,19
 713 757 713 757 730.5 680.5 c 128,-1,20
 748 604 748 604 748 511 c 0,21,22
 748 346 748 346 670 185.5 c 128,-1,23
 592 25 592 25 456.5 -95.5 c 128,-1,24
 321 -216 321 -216 156 -271 c 1,25,-1
 134 -213 l 1,26,27
 218 -175 218 -175 286 -126 c 128,-1,28
 354 -77 354 -77 401.5 -26 c 128,-1,29
 449 25 449 25 485.5 85.5 c 128,-1,30
 522 146 522 146 544 202 c 128,-1,31
 566 258 566 258 582 322 c 1,32,-1
 573 322 l 1,33,34
 477 223 477 223 334 223 c 0,35,36
 198 223 198 223 124.5 320.5 c 128,-1,37
 51 418 51 418 51 576 c 0,13,14
EndSplineSet
Colour: ff00ff
EndChar

StartChar: numbersign
Encoding: 35 35 102
Width: 1095
VWidth: 0
Flags: HMW
LayerCount: 2
Back
SplineSet
261.599 313.002 m 1,0,-1
 229.535 350.154 l 1,1,-1
 414.791 909.487 l 1,2,-1
 482.48 1069.3 l 1,3,-1
 382.219 1069.3 l 1,4,-1
 390.871 1112.56 l 1,5,-1
 488.08 1112.56 l 1,6,-1
 508.946 1233.18 l 1,7,-1
 546.608 1239.79 l 1,8,-1
 526.25 1112.56 l 1,9,-1
 682.497 1112.56 l 1,10,-1
 701.837 1233.18 l 1,11,-1
 738.48 1238.27 l 1,12,-1
 718.633 1112.56 l 1,13,-1
 825.511 1112.56 l 1,14,-1
 815.841 1069.3 l 1,15,-1
 714.561 1069.3 l 1,16,-1
 690.131 915.594 l 1,17,-1
 789.376 915.594 l 1,18,-1
 781.232 873.861 l 1,19,-1
 683.006 873.861 l 1,20,-1
 666.211 747.642 l 1,21,-1
 625.495 743.062 l 1,22,-1
 646.361 873.861 l 1,23,-1
 491.642 873.861 l 1,24,-1
 472.302 747.642 l 1,25,-1
 431.078 743.062 l 1,26,-1
 451.945 873.861 l 1,27,-1
 261.599 313.002 l 1,0,-1
285.52 713.543 m 1,28,-1
 450.926 756.803 l 1,29,-1
 981.757 910.505 l 1,30,-1
 816.858 867.244 l 1,31,-1
 285.52 713.543 l 1,28,-1
EndSplineSet
Fore
SplineSet
666 -19 m 1,0,-1
 572 -26 l 1,1,-1
 625 326 l 1,2,-1
 400 326 l 1,3,-1
 348 -19 l 1,4,-1
 255 -26 l 1,5,-1
 308 326 l 1,6,-1
 43 326 l 1,7,-1
 70 427 l 1,8,-1
 323 427 l 1,9,-1
 366 712 l 1,10,-1
 114 712 l 1,11,-1
 142 813 l 1,12,-1
 381 813 l 1,13,-1
 432 1150 l 1,14,-1
 525 1160 l 1,15,-1
 473 813 l 1,16,-1
 698 813 l 1,17,-1
 749 1150 l 1,18,-1
 842 1159 l 1,19,-1
 790 813 l 1,20,-1
 1052 813 l 1,21,-1
 1027 712 l 1,22,-1
 775 712 l 1,23,-1
 733 427 l 1,24,-1
 978 427 l 1,25,-1
 952 326 l 1,26,-1
 718 326 l 1,27,-1
 666 -19 l 1,0,-1
640 427 m 1,28,-1
 683 712 l 1,29,-1
 458 712 l 1,30,-1
 415 427 l 1,31,-1
 640 427 l 1,28,-1
EndSplineSet
Colour: ffff00
EndChar

StartChar: o
Encoding: 111 111 103
Width: 893
VWidth: 0
Flags: HMW
LayerCount: 2
Fore
SplineSet
192 483 m 0,0,1
 192 369 192 369 223 273.5 c 128,-1,2
 254 178 254 178 320.5 116 c 128,-1,3
 387 54 387 54 479 54 c 0,4,5
 582 54 582 54 643 148.5 c 128,-1,6
 704 243 704 243 704 380 c 0,7,8
 704 457 704 457 686.5 531.5 c 128,-1,9
 669 606 669 606 635.5 668 c 128,-1,10
 602 730 602 730 547.5 768 c 128,-1,11
 493 806 493 806 426 806 c 0,12,13
 317 806 317 806 254.5 713.5 c 128,-1,14
 192 621 192 621 192 483 c 0,0,1
51 411 m 0,15,16
 51 630 51 630 172.5 760.5 c 128,-1,17
 294 891 294 891 469 891 c 0,18,19
 582 891 582 891 668.5 831 c 128,-1,20
 755 771 755 771 800 669 c 128,-1,21
 845 567 845 567 845 439 c 0,22,23
 845 234 845 234 728.5 103.5 c 128,-1,24
 612 -27 612 -27 444 -27 c 0,25,26
 266 -27 266 -27 158.5 94 c 128,-1,27
 51 215 51 215 51 411 c 0,15,16
EndSplineSet
Colour: ffff00
EndChar

StartChar: one
Encoding: 49 49 104
Width: 792
VWidth: 0
Flags: HMW
LayerCount: 2
Fore
SplineSet
45 1 m 1,0,-1
 49 61 l 1,1,-1
 323 103 l 1,2,-1
 323 1060 l 1,3,-1
 64 1060 l 1,4,-1
 69 1121 l 1,5,-1
 455 1185 l 1,6,-1
 482 1185 l 1,7,-1
 482 98 l 1,8,-1
 750 70 l 1,9,-1
 741 1 l 1,10,-1
 45 1 l 1,0,-1
EndSplineSet
Substitution2: "'onum' Oldstyle Figures lookup 1-1" one.osf
Colour: ffff00
EndChar

StartChar: one.osf
Encoding: 65540 -1 105
Width: 627
VWidth: 0
Flags: HMW
LayerCount: 2
Fore
SplineSet
45 1 m 1,0,-1
 51 61 l 1,1,-1
 249 103 l 1,2,-1
 249 820 l 1,3,-1
 69 821 l 1,4,-1
 76 882 l 1,5,-1
 362 946 l 1,6,-1
 389 946 l 1,7,-1
 389 98 l 1,8,-1
 585 69 l 1,9,-1
 577 1 l 1,10,-1
 45 1 l 1,0,-1
EndSplineSet
Colour: ff00ff
EndChar

StartChar: onehalf
Encoding: 189 189 106
Width: 1403
VWidth: 0
Flags: HMW
LayerCount: 2
Fore
SplineSet
232 -26 m 1,0,-1
 608 588 l 1,1,-1
 962 1211 l 1,2,-1
 1098 1207 l 1,3,-1
 1096 1190 l 1,4,-1
 730 591 l 1,5,-1
 382 -40 l 1,6,-1
 232 -26 l 1,0,-1
45 550 m 1,7,-1
 48 610 l 1,8,-1
 206 633 l 1,9,-1
 206 1163 l 1,10,-1
 56 1163 l 1,11,-1
 60 1224 l 1,12,-1
 328 1260 l 1,13,-1
 347 1260 l 1,14,-1
 347 630 l 1,15,-1
 502 620 l 1,16,-1
 497 550 l 1,17,-1
 45 550 l 1,7,-1
808 78 m 1,18,-1
 962 202 l 2,19,20
 1070 290 1070 290 1118.5 355.5 c 128,-1,21
 1167 421 1167 421 1167 492 c 0,22,23
 1167 558 1167 558 1137.5 602 c 128,-1,24
 1108 646 1108 646 1044 646 c 0,25,26
 959 646 959 646 929 606 c 1,27,-1
 905 467 l 1,28,-1
 850 472 l 1,29,-1
 845 636 l 1,30,31
 872 676 872 676 941.5 701 c 128,-1,32
 1011 726 1011 726 1090 726 c 0,33,34
 1197 726 1197 726 1258.5 675 c 128,-1,35
 1320 624 1320 624 1320 526 c 0,36,37
 1320 494 1320 494 1311 463 c 128,-1,38
 1302 432 1302 432 1289 406 c 128,-1,39
 1276 380 1276 380 1250 350 c 128,-1,40
 1224 320 1224 320 1201.5 297.5 c 128,-1,41
 1179 275 1179 275 1138.5 242.5 c 128,-1,42
 1098 210 1098 210 1068.5 187.5 c 128,-1,43
 1039 165 1039 165 988 128 c 1,44,-1
 953 104 l 1,45,-1
 1246 104 l 1,46,-1
 1308 254 l 1,47,-1
 1354 242 l 1,48,-1
 1334 1 l 1,49,-1
 806 1 l 1,50,-1
 808 78 l 1,18,-1
EndSplineSet
Colour: ffff00
EndChar

StartChar: onequarter
Encoding: 188 188 107
Width: 1329
VWidth: 0
Flags: HMW
LayerCount: 2
Fore
SplineSet
242 -26 m 1,0,-1
 618 588 l 1,1,-1
 972 1211 l 1,2,-1
 1108 1207 l 1,3,-1
 1106 1190 l 1,4,-1
 740 591 l 1,5,-1
 392 -40 l 1,6,-1
 242 -26 l 1,0,-1
45 550 m 1,7,-1
 48 610 l 1,8,-1
 206 633 l 1,9,-1
 206 1163 l 1,10,-1
 56 1163 l 1,11,-1
 60 1224 l 1,12,-1
 328 1260 l 1,13,-1
 347 1260 l 1,14,-1
 347 630 l 1,15,-1
 502 620 l 1,16,-1
 497 550 l 1,17,-1
 45 550 l 1,7,-1
808 274 m 1,18,-1
 1012 274 l 1,19,-1
 1012 532 l 1,20,-1
 808 274 l 1,18,-1
702 250 m 1,21,-1
 1098 730 l 1,22,-1
 1148 721 l 1,23,24
 1140 626 1140 626 1140 425 c 2,25,-1
 1140 274 l 1,26,-1
 1288 274 l 1,27,-1
 1279 188 l 1,28,-1
 1140 188 l 1,29,-1
 1140 74 l 1,30,-1
 1259 55 l 1,31,-1
 1253 0 l 1,32,-1
 859 0 l 1,33,-1
 864 50 l 1,34,-1
 1014 76 l 1,35,-1
 1014 192 l 1,36,-1
 712 192 l 1,37,-1
 702 250 l 1,21,-1
EndSplineSet
Colour: ffff00
EndChar

StartChar: one.superior
Encoding: 185 185 108
Width: 558
VWidth: 0
Flags: HMW
LayerCount: 2
Fore
SplineSet
51 548 m 1,0,-1
 54 608 l 1,1,-1
 212 631 l 1,2,-1
 212 1161 l 1,3,-1
 62 1161 l 1,4,-1
 66 1222 l 1,5,-1
 334 1258 l 1,6,-1
 353 1258 l 1,7,-1
 353 628 l 1,8,-1
 508 618 l 1,9,-1
 503 548 l 1,10,-1
 51 548 l 1,0,-1
EndSplineSet
Colour: ffff00
EndChar

StartChar: ordfeminine
Encoding: 170 170 109
Width: 718
VWidth: 0
Flags: HMW
LayerCount: 2
Fore
SplineSet
185 725 m 0,0,1
 185 681 185 681 207 653 c 128,-1,2
 229 625 229 625 276 625 c 0,3,4
 361 625 361 625 424 715 c 1,5,-1
 424 900 l 1,6,7
 303 881 303 881 244 840 c 128,-1,8
 185 799 185 799 185 725 c 0,0,1
53 690 m 0,9,10
 53 794 53 794 144.5 869 c 128,-1,11
 236 944 236 944 424 950 c 1,12,-1
 424 980 l 2,13,14
 424 1095 424 1095 397.5 1148.5 c 128,-1,15
 371 1202 371 1202 292 1202 c 0,16,17
 269 1202 269 1202 252.5 1194 c 128,-1,18
 236 1186 236 1186 226 1173.5 c 128,-1,19
 216 1161 216 1161 209 1135.5 c 128,-1,20
 202 1110 202 1110 198.5 1087 c 128,-1,21
 195 1064 195 1064 191 1023 c 1,22,23
 146 1020 146 1020 113.5 1043.5 c 128,-1,24
 81 1067 81 1067 81 1111 c 0,25,26
 81 1174 81 1174 166 1221 c 128,-1,27
 251 1268 251 1268 342 1268 c 0,28,29
 446 1268 446 1268 496.5 1208 c 128,-1,30
 547 1148 547 1148 547 1022 c 2,31,-1
 547 756 l 2,32,33
 547 692 547 692 559 666 c 128,-1,34
 571 640 571 640 621 631 c 2,35,-1
 669 622 l 1,36,-1
 662 574 l 1,37,38
 623 543 623 543 563 543 c 0,39,40
 505 543 505 543 471 576 c 128,-1,41
 437 609 437 609 437 651 c 2,42,-1
 437 662 l 1,43,-1
 431 662 l 1,44,45
 411 617 411 617 356.5 577 c 128,-1,46
 302 537 302 537 219 537 c 0,47,48
 150 537 150 537 101.5 578.5 c 128,-1,49
 53 620 53 620 53 690 c 0,9,10
EndSplineSet
Colour: ffff00
EndChar

StartChar: ordmasculine
Encoding: 186 186 110
Width: 770
VWidth: 0
Flags: HMW
LayerCount: 2
Fore
SplineSet
188 944 m 0,0,1
 188 873 188 873 201 813 c 128,-1,2
 214 753 214 753 240 705.5 c 128,-1,3
 266 658 266 658 309.5 631 c 128,-1,4
 353 604 353 604 411 604 c 0,5,6
 495 604 495 604 538.5 677 c 128,-1,7
 582 750 582 750 582 862 c 0,8,9
 582 950 582 950 561.5 1023.5 c 128,-1,10
 541 1097 541 1097 490.5 1147.5 c 128,-1,11
 440 1198 440 1198 367 1198 c 0,12,13
 278 1198 278 1198 233 1127 c 128,-1,14
 188 1056 188 1056 188 944 c 0,0,1
53 886 m 0,15,16
 53 1003 53 1003 102.5 1092 c 128,-1,17
 152 1181 152 1181 230.5 1225.5 c 128,-1,18
 309 1270 309 1270 402 1270 c 0,19,20
 544 1270 544 1270 630.5 1167.5 c 128,-1,21
 717 1065 717 1065 717 909 c 0,22,23
 717 745 717 745 619 640.5 c 128,-1,24
 521 536 521 536 382 536 c 0,25,26
 235 536 235 536 144 633 c 128,-1,27
 53 730 53 730 53 886 c 0,15,16
EndSplineSet
Colour: ffff00
EndChar

StartChar: oslash
Encoding: 248 248 111
Width: 946
VWidth: 0
Flags: HMW
LayerCount: 2
Fore
SplineSet
75 417 m 0,0,1
 75 529 75 529 109 621.5 c 128,-1,2
 143 714 143 714 200.5 775 c 128,-1,3
 258 836 258 836 334 869.5 c 128,-1,4
 410 903 410 903 494 903 c 0,5,6
 629 903 629 903 726 816 c 1,7,-1
 770 873 l 1,8,-1
 905 880 l 1,9,-1
 790 741 l 1,10,11
 870 618 870 618 870 445 c 0,12,13
 870 239 870 239 753 106 c 128,-1,14
 636 -27 636 -27 469 -27 c 0,15,16
 323 -27 323 -27 222 58 c 1,17,-1
 180 6 l 1,18,-1
 43 0 l 1,19,-1
 157 129 l 1,20,21
 75 246 75 246 75 417 c 0,0,1
296 176 m 1,22,23
 374 54 374 54 504 54 c 0,24,25
 607 54 607 54 667.5 151 c 128,-1,26
 728 248 728 248 728 386 c 128,-1,27
 728 524 728 524 679 638 c 1,28,-1
 296 176 l 1,22,23
268 230 m 1,29,-1
 650 695 l 1,30,31
 573 819 573 819 451 819 c 0,32,33
 342 819 342 819 280 723.5 c 128,-1,34
 218 628 218 628 218 489 c 0,35,36
 218 342 218 342 268 230 c 1,29,-1
EndSplineSet
Colour: ffff00
EndChar

StartChar: p
Encoding: 112 112 112
Width: 957
VWidth: 0
Flags: HMW
LayerCount: 2
Fore
SplineSet
40 -373 m 1,0,-1
 46 -315 l 1,1,-1
 198 -285 l 1,2,-1
 198 754 l 1,3,-1
 44 792 l 1,4,-1
 52 845 l 1,5,-1
 317 873 l 1,6,-1
 330 859 l 1,7,-1
 321 722 l 1,8,-1
 328 722 l 1,9,10
 376 788 376 788 447.5 837 c 128,-1,11
 519 886 519 886 608 886 c 0,12,13
 744 886 744 886 826 781 c 128,-1,14
 908 676 908 676 908 462 c 0,15,16
 908 249 908 249 784.5 114.5 c 128,-1,17
 661 -20 661 -20 470 -20 c 0,18,19
 428 -20 428 -20 368 -9 c 1,20,-1
 363 87 l 1,21,22
 422 64 422 64 524 64 c 0,23,24
 631 64 631 64 698.5 155 c 128,-1,25
 766 246 766 246 766 404 c 0,26,27
 766 585 766 585 710.5 683 c 128,-1,28
 655 781 655 781 542 781 c 0,29,30
 499 781 499 781 455.5 760 c 128,-1,31
 412 739 412 739 386 717 c 128,-1,32
 360 695 360 695 328 662 c 1,33,-1
 328 -286 l 1,34,-1
 484 -312 l 1,35,-1
 474 -373 l 1,36,-1
 40 -373 l 1,0,-1
EndSplineSet
Colour: ffff00
EndChar

StartChar: paragraph
Encoding: 182 182 113
Width: 1191
VWidth: 0
Flags: HMW
LayerCount: 2
Fore
SplineSet
840 0 m 1,0,-1
 840 1245 l 1,1,-1
 1142 1245 l 1,2,-1
 1135 1188 l 1,3,-1
 962 1157 l 1,4,-1
 962 89 l 1,5,-1
 1148 63 l 1,6,-1
 1139 -1 l 1,7,-1
 840 0 l 1,0,-1
48 836 m 0,8,9
 48 1011 48 1011 184 1128 c 128,-1,10
 320 1245 320 1245 508 1245 c 2,11,-1
 773 1245 l 1,12,-1
 773 0 l 1,13,-1
 408 0 l 1,14,-1
 414 58 l 1,15,-1
 643 97 l 1,16,-1
 643 1169 l 1,17,18
 602 1171 602 1171 553 1171 c 0,19,20
 380 1171 380 1171 298.5 1090.5 c 128,-1,21
 217 1010 217 1010 217 852 c 0,22,23
 217 717 217 717 303.5 627 c 128,-1,24
 390 537 390 537 546 537 c 1,25,-1
 528 463 l 1,26,27
 48 463 48 463 48 836 c 0,8,9
EndSplineSet
Colour: ffff00
EndChar

StartChar: parenright
Encoding: 41 41 114
Width: 477
VWidth: 0
Flags: HMW
LayerCount: 2
Fore
SplineSet
47 1201 m 1,0,-1
 84 1256 l 1,1,2
 421 970 421 970 421 450 c 0,3,4
 421 344 421 344 404.5 244 c 128,-1,5
 388 144 388 144 364.5 69 c 128,-1,6
 341 -6 341 -6 306 -77 c 128,-1,7
 271 -148 271 -148 242 -193 c 128,-1,8
 213 -238 213 -238 176.5 -281.5 c 128,-1,9
 140 -325 140 -325 124 -341.5 c 128,-1,10
 108 -358 108 -358 89 -375 c 1,11,-1
 41 -330 l 1,12,13
 276 51 276 51 276 456 c 0,14,15
 276 606 276 606 254 732 c 128,-1,16
 232 858 232 858 192 949.5 c 128,-1,17
 152 1041 152 1041 121 1093 c 128,-1,18
 90 1145 90 1145 47 1201 c 1,0,-1
EndSplineSet
Colour: ffff00
EndChar

StartChar: percent
Encoding: 37 37 115
Width: 1177
VWidth: 0
Flags: HMW
LayerCount: 2
Fore
SplineSet
771 277 m 0,0,1
 771 215 771 215 783.5 157 c 128,-1,2
 796 99 796 99 823 57.5 c 128,-1,3
 850 16 850 16 886 16 c 0,4,5
 926 16 926 16 953 58 c 128,-1,6
 980 100 980 100 991 157 c 128,-1,7
 1002 214 1002 214 1002 280 c 0,8,9
 1002 379 1002 379 969.5 462.5 c 128,-1,10
 937 546 937 546 884 546 c 0,11,12
 854 546 854 546 831 520.5 c 128,-1,13
 808 495 808 495 795.5 453.5 c 128,-1,14
 783 412 783 412 777 367.5 c 128,-1,15
 771 323 771 323 771 277 c 0,0,1
642 277 m 0,16,17
 642 402 642 402 716.5 496.5 c 128,-1,18
 791 591 791 591 884 591 c 0,19,20
 990 591 990 591 1059 500 c 128,-1,21
 1128 409 1128 409 1128 274 c 0,22,23
 1128 150 1128 150 1052.5 57 c 128,-1,24
 977 -36 977 -36 886 -36 c 0,25,26
 787 -36 787 -36 714.5 51.5 c 128,-1,27
 642 139 642 139 642 277 c 0,16,17
154 -26 m 1,28,-1
 530 588 l 1,29,-1
 846 1143 l 1,30,-1
 469 1150 l 1,31,32
 496 1119 496 1119 514 1033.5 c 128,-1,33
 532 948 532 948 532 899 c 0,34,35
 532 773 532 773 455 678.5 c 128,-1,36
 378 584 378 584 287 584 c 0,37,38
 188 584 188 584 117 671.5 c 128,-1,39
 46 759 46 759 46 899 c 0,40,41
 46 1024 46 1024 120.5 1118.5 c 128,-1,42
 195 1213 195 1213 288 1213 c 0,43,44
 312 1213 312 1213 324 1209 c 1,45,-1
 324 1153 l 1,46,47
 304 1168 304 1168 284 1168 c 0,48,49
 255 1168 255 1168 232.5 1142.5 c 128,-1,50
 210 1117 210 1117 198 1075.5 c 128,-1,51
 186 1034 186 1034 180 989.5 c 128,-1,52
 174 945 174 945 174 899 c 0,53,54
 174 800 174 800 204.5 718.5 c 128,-1,55
 235 637 235 637 287 637 c 0,56,57
 327 637 327 637 354.5 678.5 c 128,-1,58
 382 720 382 720 393 777 c 128,-1,59
 404 834 404 834 404 899 c 0,60,61
 404 1083 404 1083 358 1196 c 1,62,-1
 885 1211 l 1,63,-1
 1015 1207 l 1,64,-1
 1013 1191 l 1,65,-1
 647 591 l 1,66,-1
 300 -40 l 1,67,-1
 154 -26 l 1,28,-1
EndSplineSet
Colour: ffff00
EndChar

StartChar: period
Encoding: 46 46 116
Width: 309
VWidth: 0
Flags: HMW
LayerCount: 2
Fore
SplineSet
64 81 m 0,0,1
 64 129 64 129 88.5 157.5 c 128,-1,2
 113 186 113 186 154 186 c 128,-1,3
 195 186 195 186 221 157 c 128,-1,4
 247 128 247 128 247 80 c 0,5,6
 247 30 247 30 222 -1 c 128,-1,7
 197 -32 197 -32 155 -32 c 0,8,9
 114 -32 114 -32 89 -0.5 c 128,-1,10
 64 31 64 31 64 81 c 0,0,1
EndSplineSet
Colour: ffff00
EndChar

StartChar: periodcentered
Encoding: 183 183 117
Width: 307
VWidth: 0
Flags: HMW
LayerCount: 2
Fore
SplineSet
62 503 m 0,0,1
 62 551 62 551 87.5 579.5 c 128,-1,2
 113 608 113 608 154 608 c 128,-1,3
 195 608 195 608 220.5 579.5 c 128,-1,4
 246 551 246 551 246 503 c 0,5,6
 246 453 246 453 221 422 c 128,-1,7
 196 391 196 391 154 391 c 128,-1,8
 112 391 112 391 87 422 c 128,-1,9
 62 453 62 453 62 503 c 0,0,1
EndSplineSet
Colour: ffff00
EndChar

StartChar: plus
Encoding: 43 43 118
Width: 637
VWidth: 0
Flags: HMW
LayerCount: 2
Fore
SplineSet
54 417 m 1,0,-1
 66 503 l 1,1,-1
 275 503 l 1,2,-1
 275 742 l 1,3,-1
 363 730 l 1,4,-1
 364 503 l 1,5,-1
 584 503 l 1,6,-1
 573 417 l 1,7,-1
 364 417 l 1,8,-1
 366 173 l 1,9,-1
 275 186 l 1,10,-1
 275 417 l 1,11,-1
 54 417 l 1,0,-1
EndSplineSet
Colour: ffff00
EndChar

StartChar: q
Encoding: 113 113 119
Width: 976
VWidth: 0
Flags: HMW
LayerCount: 2
Fore
SplineSet
52 407 m 0,0,1
 52 506 52 506 89 596.5 c 128,-1,2
 126 687 126 687 185.5 750.5 c 128,-1,3
 245 814 245 814 322 851.5 c 128,-1,4
 399 889 399 889 477 889 c 0,5,6
 576 889 576 889 658 845 c 1,7,-1
 752 878 l 1,8,-1
 775 878 l 1,9,-1
 775 -280 l 1,10,-1
 936 -306 l 1,11,-1
 927 -367 l 1,12,-1
 483 -367 l 1,13,-1
 491 -308 l 1,14,-1
 642 -280 l 1,15,-1
 642 691 l 1,16,17
 611 739 611 739 556 774 c 128,-1,18
 501 809 501 809 428 809 c 0,19,20
 328 809 328 809 259.5 713.5 c 128,-1,21
 191 618 191 618 191 468 c 0,22,23
 191 275 191 275 254.5 176.5 c 128,-1,24
 318 78 318 78 429 78 c 0,25,26
 468 78 468 78 522.5 91 c 128,-1,27
 577 104 577 104 611 127 c 1,28,-1
 615 71 l 1,29,30
 570 28 570 28 501.5 3.5 c 128,-1,31
 433 -21 433 -21 369 -21 c 0,32,33
 228 -21 228 -21 140 86 c 128,-1,34
 52 193 52 193 52 407 c 0,0,1
EndSplineSet
Colour: ffff00
EndChar

StartChar: question
Encoding: 63 63 120
Width: 617
VWidth: 0
Flags: HMW
LayerCount: 2
Fore
SplineSet
194 79 m 0,0,1
 194 124 194 124 220.5 154 c 128,-1,2
 247 184 247 184 285 184 c 0,3,4
 324 184 324 184 350.5 153.5 c 128,-1,5
 377 123 377 123 377 78 c 0,6,7
 377 29 377 29 352 -3 c 128,-1,8
 327 -35 327 -35 285 -35 c 0,9,10
 244 -35 244 -35 219 -2 c 128,-1,11
 194 31 194 31 194 79 c 0,0,1
43 1159 m 0,12,13
 43 1207 43 1207 98.5 1247 c 128,-1,14
 154 1287 154 1287 241 1287 c 0,15,16
 369 1287 369 1287 469.5 1170 c 128,-1,17
 570 1053 570 1053 570 893 c 0,18,19
 570 829 570 829 539 780.5 c 128,-1,20
 508 732 508 732 464 703 c 128,-1,21
 420 674 420 674 376.5 648 c 128,-1,22
 333 622 333 622 302 587 c 128,-1,23
 271 552 271 552 271 508 c 0,24,25
 271 457 271 457 306 371 c 1,26,-1
 248 354 l 1,27,28
 217 389 217 389 192 449 c 128,-1,29
 167 509 167 509 167 565 c 0,30,31
 167 626 167 626 199 671 c 128,-1,32
 231 716 231 716 276.5 743 c 128,-1,33
 322 770 322 770 367 795.5 c 128,-1,34
 412 821 412 821 444 857.5 c 128,-1,35
 476 894 476 894 476 943 c 0,36,37
 476 1022 476 1022 421 1084.5 c 128,-1,38
 366 1147 366 1147 294 1147 c 0,39,40
 237 1147 237 1147 185.5 1127 c 128,-1,41
 134 1107 134 1107 102 1073 c 1,42,43
 78 1084 78 1084 60.5 1107.5 c 128,-1,44
 43 1131 43 1131 43 1159 c 0,12,13
EndSplineSet
Colour: ffff00
EndChar

StartChar: quotedbl
Encoding: 34 34 121
Width: 453
VWidth: 0
Flags: HMW
LayerCount: 2
Fore
SplineSet
246 1303 m 1,0,-1
 393 1291 l 1,1,-1
 357 899 l 1,2,-1
 283 891 l 1,3,-1
 246 1303 l 1,0,-1
60 1303 m 1,4,-1
 205 1291 l 1,5,-1
 169 899 l 1,6,-1
 96 891 l 1,7,-1
 60 1303 l 1,4,-1
EndSplineSet
Colour: ffff00
EndChar

StartChar: quotesingle
Encoding: 39 39 122
Width: 265
VWidth: 0
Flags: HMW
LayerCount: 2
Fore
SplineSet
59 1303 m 1,0,-1
 205 1291 l 1,1,-1
 169 899 l 1,2,-1
 96 891 l 1,3,-1
 59 1303 l 1,0,-1
EndSplineSet
Colour: ffff00
EndChar

StartChar: r
Encoding: 114 114 123
Width: 733
VWidth: 0
Flags: HMW
LayerCount: 2
Back
SplineSet
474.94 422.059 m 1,0,1
 468.19 427.845 468.19 427.845 453.492 443.012 c 0
 438.793 458.18 438.793 458.18 428.67 465.325 c 0
 418.546 472.47 418.546 472.47 408.603 472.47 c 1,2,3
 454.493 472.47 454.493 472.47 449.905 458.197 c 0
 449.129 455.782 449.129 455.782 446.758 453.016 c 0,4,5
 440.89 446.171 440.89 446.171 434.951 486.654 c 0
 430.214 518.949 430.214 518.949 412.925 761.52 c 0
 409.272 812.769 409.272 812.769 407.345 813.131 c 0
 406.821 813.229 406.821 813.229 406.366 810.095 c 2,6,-1
 308.14 587.098 l 1,7,-1
 455.174 583.688 l 1,8,-1
 595.026 541.52 l 1,9,-1
 254.7 535.92 l 1,10,-1
 256.859 419.665 l 1,11,-1
 357.234 444.522 l 1,12,13
 358.979 455.199 358.979 455.199 364.507 491.341 c 0
 370.034 527.484 370.034 527.484 375.145 559.109 c 0
 380.256 590.735 380.256 590.735 388.237 637.831 c 0
 396.217 684.927 396.217 684.927 404.366 724.566 c 0
 412.515 764.206 412.515 764.206 422.522 808.851 c 0
 432.53 853.496 432.53 853.496 443.289 887.745 c 0
 454.049 921.994 454.049 921.994 465.655 950.784 c 0
 477.261 979.573 477.261 979.573 490.204 995.027 c 0
 503.147 1010.48 503.147 1010.48 516.025 1010.48 c 1,14,15
 525.48 1011.49 l 1
 509.628 1014.43 509.628 1014.43 494.714 1003.76 c 0
 484.762 996.641 484.762 996.641 484.762 984.531 c 1,16,17
 483.94 978.12 l 1
 483.303 979.29 l 2
 476.034 993.283 476.034 993.283 463.528 984.841 c 1,18,19
 453.894 1002.77 453.894 1002.77 505.806 1027.67 c 0
 521.316 1035.11 521.316 1035.11 551.372 1046.94 c 0
 574.941 1056.23 574.941 1056.23 575.042 1057.78 c 0
 575.091 1058.54 575.091 1058.54 571.961 1058.54 c 0,20,21
 552.384 1058.54 552.384 1058.54 536.315 1047.68 c 0
 520.247 1036.82 520.247 1036.82 508.964 1014.99 c 0
 497.681 993.161 497.681 993.161 489.598 971.523 c 0
 481.515 949.885 481.515 949.885 475.364 916.737 c 0
 469.212 883.588 469.212 883.588 466.122 862.455 c 0
 463.032 841.322 463.032 841.322 459.189 808.907 c 1,22,-1
 448.831 433.355 l 1,23,-1
 604.782 421.141 l 1,24,25
 615.635 458.412 615.635 458.412 628 478.141 c 0
 640.366 497.87 640.366 497.87 664.416 524.076 c 0,26,27
 704.811 568.094 704.811 568.094 747.274 568.092 c 0,28,29
 781.45 568.093 781.45 568.093 802.166 546.862 c 0,30,31
 822.881 525.629 822.881 525.629 822.879 496.63 c 0,32,33
 822.879 484.808 822.879 484.808 743.471 470.984 c 0
 664.062 457.16 664.062 457.16 575.984 444.023 c 0
 487.905 430.886 487.905 430.886 474.94 422.059 c 1,0,1
EndSplineSet
Fore
SplineSet
48 0 m 1,0,-1
 56 52 l 1,1,-1
 211 86 l 1,2,-1
 211 757 l 1,3,-1
 51 796 l 1,4,-1
 60 848 l 1,5,-1
 319 877 l 1,6,-1
 335 860 l 1,7,-1
 321 615 l 1,8,-1
 335 615 l 1,9,10
 371 744 371 744 436.5 819.5 c 128,-1,11
 502 895 502 895 575 895 c 0,12,13
 626 895 626 895 656 867 c 128,-1,14
 686 839 686 839 686 799 c 0,15,16
 686 747 686 747 624 704 c 1,17,18
 573 756 573 756 517 756 c 0,19,20
 457 756 457 756 407.5 672 c 128,-1,21
 358 588 358 588 341 464 c 1,22,-1
 341 88 l 1,23,-1
 571 61 l 1,24,-1
 563 0 l 1,25,-1
 48 0 l 1,0,-1
EndSplineSet
Colour: ffff00
EndChar

StartChar: registered
Encoding: 174 174 124
Width: 1065
VWidth: 0
Flags: HMW
LayerCount: 2
Fore
SplineSet
121 1036 m 0,0,1
 121 842 121 842 233 723 c 128,-1,2
 345 604 345 604 522 604 c 128,-1,3
 699 604 699 604 821.5 719 c 128,-1,4
 944 834 944 834 944 1016 c 0,5,6
 944 1217 944 1217 825 1337 c 128,-1,7
 706 1457 706 1457 524 1459 c 0,8,9
 349 1461 349 1461 235 1350 c 128,-1,10
 121 1239 121 1239 121 1036 c 0,0,1
49 1022 m 0,11,12
 49 1252 49 1252 184 1386 c 128,-1,13
 319 1520 319 1520 524 1520 c 0,14,15
 664 1520 664 1520 774 1464 c 128,-1,16
 884 1408 884 1408 950 1294.5 c 128,-1,17
 1016 1181 1016 1181 1016 1026 c 0,18,19
 1016 878 1016 878 947 766.5 c 128,-1,20
 878 655 878 655 765 598.5 c 128,-1,21
 652 542 652 542 514 542 c 0,22,23
 385 542 385 542 279.5 600.5 c 128,-1,24
 174 659 174 659 111.5 769.5 c 128,-1,25
 49 880 49 880 49 1022 c 0,11,12
446 1062 m 1,26,-1
 537 1062 l 1,27,28
 622 1108 622 1108 622 1181 c 0,29,30
 622 1285 622 1285 491 1285 c 2,31,32
 481.5 1285 l 2,33,34
 472 1285 472 1285 466.5 1284.5 c 128,-1,35
 461 1284 461 1284 459.5 1284 c 2,36,-1
 449 1284 l 1,37,-1
 446 1284 l 1,38,-1
 446 1062 l 1,26,-1
270 774 m 1,39,-1
 275 813 l 1,40,-1
 350 834 l 1,41,-1
 350 1266 l 1,42,-1
 273 1279 l 1,43,-1
 278 1317 l 1,44,45
 404 1338 404 1338 506 1338 c 0,46,47
 606 1338 606 1338 665.5 1303.5 c 128,-1,48
 725 1269 725 1269 725 1198 c 0,49,50
 725 1149 725 1149 689.5 1104.5 c 128,-1,51
 654 1060 654 1060 594 1034 c 1,52,-1
 593 1033 l 1,53,-1
 677 926 l 1,54,55
 718 872 718 872 740 853.5 c 128,-1,56
 762 835 762 835 794 821 c 1,57,-1
 813 814 l 1,58,-1
 807 773 l 1,59,60
 785 765 785 765 745 765 c 0,61,62
 692 765 692 765 655.5 795.5 c 128,-1,63
 619 826 619 826 580 899 c 2,64,-1
 519 1010 l 1,65,-1
 446 1010 l 1,66,-1
 446 835 l 1,67,-1
 531 817 l 1,68,-1
 526 774 l 1,69,-1
 270 774 l 1,39,-1
EndSplineSet
Colour: ffff00
EndChar

StartChar: ring
Encoding: 730 730 125
Width: 482
VWidth: 0
Flags: HMW
LayerCount: 2
Fore
SplineSet
146 1540 m 0,0,1
 146 1488 146 1488 172.5 1447.5 c 128,-1,2
 199 1407 199 1407 245 1407 c 0,3,4
 287 1407 287 1407 311 1437.5 c 128,-1,5
 335 1468 335 1468 335 1524 c 0,6,7
 335 1576 335 1576 307.5 1616 c 128,-1,8
 280 1656 280 1656 235 1656 c 0,9,10
 191 1656 191 1656 168.5 1622 c 128,-1,11
 146 1588 146 1588 146 1540 c 0,0,1
79 1528 m 0,12,13
 79 1598 79 1598 127.5 1649 c 128,-1,14
 176 1700 176 1700 246 1700 c 0,15,16
 317 1700 317 1700 360 1654.5 c 128,-1,17
 403 1609 403 1609 403 1537 c 0,18,19
 403 1467 403 1467 355.5 1414.5 c 128,-1,20
 308 1362 308 1362 234 1362 c 0,21,22
 164 1362 164 1362 121.5 1407 c 128,-1,23
 79 1452 79 1452 79 1528 c 0,12,13
EndSplineSet
Colour: ff00ff
EndChar

StartChar: s
Encoding: 115 115 126
Width: 667
VWidth: 0
Flags: HMW
LayerCount: 2
Fore
SplineSet
46 154 m 0,0,1
 46 199 46 199 76 229 c 128,-1,2
 106 259 106 259 152 264 c 1,3,4
 177 146 177 146 226 93 c 128,-1,5
 275 40 275 40 355 40 c 0,6,7
 420 40 420 40 462 74 c 128,-1,8
 504 108 504 108 504 160 c 0,9,10
 504 208 504 208 460.5 251 c 128,-1,11
 417 294 417 294 355.5 330 c 128,-1,12
 294 366 294 366 232 406 c 128,-1,13
 170 446 170 446 126.5 505.5 c 128,-1,14
 83 565 83 565 83 637 c 0,15,16
 83 682 83 682 100 726 c 128,-1,17
 117 770 117 770 149.5 807 c 128,-1,18
 182 844 182 844 237 866.5 c 128,-1,19
 292 889 292 889 360 889 c 0,20,21
 458 889 458 889 524 839 c 128,-1,22
 590 789 590 789 590 713 c 0,23,24
 590 658 590 658 561.5 629.5 c 128,-1,25
 533 601 533 601 485 597 c 1,26,-1
 477 636 l 1,27,28
 453 742 453 742 413.5 783.5 c 128,-1,29
 374 825 374 825 322 825 c 0,30,31
 261 825 261 825 225 790.5 c 128,-1,32
 189 756 189 756 189 700 c 0,33,34
 189 659 189 659 213 623 c 128,-1,35
 237 587 237 587 275 558.5 c 128,-1,36
 313 530 313 530 359.5 502.5 c 128,-1,37
 406 475 406 475 452 445 c 128,-1,38
 498 415 498 415 536 382.5 c 128,-1,39
 574 350 574 350 598 306 c 128,-1,40
 622 262 622 262 622 212 c 0,41,42
 622 104 622 104 532.5 34.5 c 128,-1,43
 443 -35 443 -35 323 -35 c 128,-1,44
 203 -35 203 -35 124.5 18.5 c 128,-1,45
 46 72 46 72 46 154 c 0,0,1
EndSplineSet
Colour: ffff00
EndChar

StartChar: section
Encoding: 167 167 127
Width: 850
VWidth: 0
Flags: HMW
LayerCount: 2
Back
SplineSet
75 -238 m 5,0,-1
 96 39 l 1,1,-1
 172 29 l 1,2,-1
 204 -176 l 1,3,4
 235 -230 235 -230 302 -264.5 c 0
 369 -299 369 -299 446 -299 c 0,5,6
 541 -299 541 -299 613.5 -242 c 0
 686 -185 686 -185 686 -81 c 0,7,8
 686 -26 686 -26 653.5 22.5 c 0
 621 71 621 71 570 108 c 0
 519 145 519 145 457 181 c 0
 395 217 395 217 334 256 c 0
 273 295 273 295 223 338.5 c 0
 173 382 173 382 143.5 443 c 0
 114 504 114 504 118 576 c 1,9,-1
 464 369 l 2,10,11
 481 359 481 359 520 337 c 0
 559 315 559 315 578.5 303 c 0
 598 291 598 291 632.5 269.5 c 0
 667 248 667 248 686.5 232 c 0
 706 216 706 216 732.5 192.5 c 0
 759 169 759 169 773.5 146.5 c 0
 788 124 788 124 803 97 c 0
 818 70 818 70 824.5 39.5 c 0
 831 9 831 9 831 -25 c 0,12,13
 831 -180 831 -180 710 -280.5 c 0
 589 -381 589 -381 409 -381 c 0,14,15
 305 -381 305 -381 215 -340.5 c 0
 125 -300 125 -300 75 -238 c 5,0,-1
113 938 m 4,16,17
 113 1040 113 1040 166.5 1117.5 c 0
 220 1195 220 1195 300.5 1232.5 c 0
 381 1270 381 1270 473 1270 c 0,18,19
 650 1270 650 1270 760 1165 c 1,20,21
 733 869 l 1,22,-1
 660 878 l 1,23,-1
 634 1096 l 1,24,25
 613 1136 613 1136 557.5 1168 c 0
 502 1200 502 1200 444 1200 c 0,26,27
 360 1200 360 1200 304 1147.5 c 0
 248 1095 248 1095 248 1001 c 0,28,29
 248 940 248 940 281 887.5 c 0
 314 835 314 835 367 796.5 c 0
 420 758 420 758 483.5 720.5 c 0
 547 683 547 683 609.5 644 c 0
 672 605 672 605 723 561 c 0
 774 517 774 517 804 454.5 c 0
 834 392 834 392 830 318 c 1,30,-1
 453 546 l 2,31,32
 441 553 441 553 417.843 567.171 c 0
 358 603 358 603 327 623 c 0
 296 643 296 643 248 681.5 c 0
 200 720 200 720 175.5 753 c 0
 151 786 151 786 132 835 c 0
 113 884 113 884 113 938 c 4,16,17
EndSplineSet
Fore
SplineSet
81 938 m 0,0,1
 81 1040 81 1040 134.5 1117.5 c 128,-1,2
 188 1195 188 1195 268.5 1232.5 c 128,-1,3
 349 1270 349 1270 441 1270 c 0,4,5
 618 1270 618 1270 728 1165 c 1,6,-1
 701 869 l 1,7,-1
 628 878 l 1,8,-1
 602 1096 l 1,9,10
 581 1136 581 1136 525.5 1168 c 128,-1,11
 470 1200 470 1200 412 1200 c 0,12,13
 328 1200 328 1200 272 1147.5 c 128,-1,14
 216 1095 216 1095 216 1001 c 0,15,16
 216 940 216 940 249 887.5 c 128,-1,17
 282 835 282 835 335 796.5 c 128,-1,18
 388 758 388 758 451.5 720.5 c 128,-1,19
 515 683 515 683 577.5 644 c 128,-1,20
 640 605 640 605 691 561 c 128,-1,21
 742 517 742 517 772 454.5 c 128,-1,22
 802 392 802 392 798 318 c 1,23,-1
 421 546 l 2,24,25
 409 553 409 553 386 567 c 0,26,27
 326 603 326 603 295 623 c 128,-1,28
 264 643 264 643 216 681.5 c 128,-1,29
 168 720 168 720 143.5 753 c 128,-1,30
 119 786 119 786 100 835 c 128,-1,31
 81 884 81 884 81 938 c 0,0,1
43 -238 m 1,32,-1
 64 39 l 1,33,-1
 140 29 l 1,34,-1
 172 -176 l 1,35,36
 203 -230 203 -230 270 -264.5 c 128,-1,37
 337 -299 337 -299 414 -299 c 0,38,39
 509 -299 509 -299 581.5 -242 c 128,-1,40
 654 -185 654 -185 654 -81 c 0,41,42
 654 -26 654 -26 621.5 22.5 c 128,-1,43
 589 71 589 71 538 108 c 128,-1,44
 487 145 487 145 425 181 c 128,-1,45
 363 217 363 217 302 256 c 128,-1,46
 241 295 241 295 191 338.5 c 128,-1,47
 141 382 141 382 111.5 443 c 128,-1,48
 82 504 82 504 86 576 c 1,49,-1
 432 369 l 2,50,51
 449 359 449 359 488 337 c 128,-1,52
 527 315 527 315 546.5 303 c 128,-1,53
 566 291 566 291 600.5 269.5 c 128,-1,54
 635 248 635 248 654.5 232 c 128,-1,55
 674 216 674 216 700.5 192.5 c 128,-1,56
 727 169 727 169 741.5 146.5 c 128,-1,57
 756 124 756 124 771 97 c 128,-1,58
 786 70 786 70 792.5 39.5 c 128,-1,59
 799 9 799 9 799 -25 c 0,60,61
 799 -180 799 -180 678 -280.5 c 128,-1,62
 557 -381 557 -381 377 -381 c 0,63,64
 273 -381 273 -381 183 -340.5 c 128,-1,65
 93 -300 93 -300 43 -238 c 1,32,-1
EndSplineSet
Colour: ffff00
EndChar

StartChar: seven
Encoding: 55 55 128
Width: 879
VWidth: 0
Flags: HMW
LayerCount: 2
Fore
SplineSet
46 829 m 1,0,-1
 74 1182 l 1,1,-1
 837 1182 l 1,2,-1
 837 1130 l 1,3,-1
 404 -33 l 1,4,-1
 245 -16 l 1,5,-1
 719 1047 l 1,6,-1
 168 1047 l 1,7,-1
 100 820 l 1,8,-1
 46 829 l 1,0,-1
EndSplineSet
Substitution2: "'onum' Oldstyle Figures lookup 1-1" seven.osf
Colour: ffff00
EndChar

StartChar: seven.osf
Encoding: 65541 -1 129
Width: 774
VWidth: 0
Flags: HMW
LayerCount: 2
Fore
SplineSet
47 607 m 1,0,-1
 79 933 l 1,1,-1
 723 933 l 1,2,-1
 729 859 l 1,3,4
 657 729 657 729 621.5 663.5 c 128,-1,5
 586 598 586 598 530 486.5 c 128,-1,6
 474 375 474 375 445 298.5 c 128,-1,7
 416 222 416 222 382.5 119 c 128,-1,8
 349 16 349 16 331 -86 c 128,-1,9
 313 -188 313 -188 305 -299 c 1,10,11
 300 -299 300 -299 289 -301.5 c 128,-1,12
 278 -304 278 -304 274 -304 c 0,13,14
 155 -304 155 -304 155 -185 c 0,15,16
 155 37 155 37 613 806 c 1,17,-1
 162 806 l 1,18,-1
 99 597 l 1,19,-1
 47 607 l 1,0,-1
EndSplineSet
Colour: ff00ff
EndChar

StartChar: six
Encoding: 54 54 130
Width: 862
VWidth: 0
Flags: HMW
LayerCount: 2
Fore
SplineSet
218 407 m 0,0,1
 218 251 218 251 280 147.5 c 128,-1,2
 342 44 342 44 434 44 c 0,3,4
 647 44 647 44 647 327 c 0,5,6
 647 450 647 450 587 534.5 c 128,-1,7
 527 619 527 619 419 619 c 0,8,9
 355 619 355 619 300.5 594.5 c 128,-1,10
 246 570 246 570 225 540 c 1,11,12
 218 492 218 492 218 407 c 0,0,1
55 422 m 0,13,14
 55 673 55 673 221.5 902 c 128,-1,15
 388 1131 388 1131 629 1214 c 1,16,-1
 658 1164 l 1,17,18
 308 1008 308 1008 228 609 c 1,19,-1
 237 609 l 1,20,21
 345 709 345 709 492 709 c 0,22,23
 636 709 636 709 723 612 c 128,-1,24
 810 515 810 515 810 362 c 0,25,26
 810 197 810 197 696.5 88 c 128,-1,27
 583 -21 583 -21 419 -21 c 0,28,29
 324 -21 324 -21 252 15 c 128,-1,30
 180 51 180 51 138 113.5 c 128,-1,31
 96 176 96 176 75.5 253.5 c 128,-1,32
 55 331 55 331 55 422 c 0,13,14
EndSplineSet
Substitution2: "'onum' Oldstyle Figures lookup 1-1" six.osf
Colour: ffff00
EndChar

StartChar: six.osf
Encoding: 65542 -1 131
Width: 801
VWidth: 0
Flags: HMW
LayerCount: 2
Fore
SplineSet
213 407 m 0,0,1
 213 250 213 250 268.5 149 c 128,-1,2
 324 48 324 48 413 48 c 0,3,4
 501 48 501 48 549 127.5 c 128,-1,5
 597 207 597 207 597 327 c 0,6,7
 597 455 597 455 547 537 c 128,-1,8
 497 619 497 619 391 619 c 0,9,10
 340 619 340 619 294.5 596.5 c 128,-1,11
 249 574 249 574 223 544 c 1,12,13
 213 476 213 476 213 407 c 0,0,1
55 422 m 0,14,15
 55 580 55 580 128 743 c 128,-1,16
 201 906 201 906 333.5 1035.5 c 128,-1,17
 466 1165 466 1165 625 1218 c 1,18,-1
 653 1167 l 1,19,20
 557 1126 557 1126 480 1061.5 c 128,-1,21
 403 997 403 997 353.5 921 c 128,-1,22
 304 845 304 845 273.5 769.5 c 128,-1,23
 243 694 243 694 227 614 c 1,24,-1
 235 614 l 1,25,26
 281 658 281 658 342.5 684.5 c 128,-1,27
 404 711 404 711 468 711 c 0,28,29
 598 711 598 711 673.5 614 c 128,-1,30
 749 517 749 517 749 372 c 0,31,32
 749 270 749 270 700.5 179 c 128,-1,33
 652 88 652 88 569.5 33.5 c 128,-1,34
 487 -21 487 -21 392 -21 c 0,35,36
 300 -21 300 -21 232.5 14.5 c 128,-1,37
 165 50 165 50 127.5 113.5 c 128,-1,38
 90 177 90 177 72.5 253.5 c 128,-1,39
 55 330 55 330 55 422 c 0,14,15
EndSplineSet
Colour: ff00ff
EndChar

StartChar: slash
Encoding: 47 47 132
Width: 651
VWidth: 0
Flags: HMW
LayerCount: 2
Fore
SplineSet
40 -361 m 1,0,-1
 503 1238 l 1,1,-1
 610 1244 l 1,2,-1
 144 -355 l 1,3,-1
 40 -361 l 1,0,-1
EndSplineSet
Colour: ffff00
EndChar

StartChar: softhyphen
Encoding: 173 173 133
Width: 538
VWidth: 0
Flags: HMW
LayerCount: 2
Fore
SplineSet
61 420 m 1,0,-1
 69 509 l 1,1,-1
 477 570 l 1,2,-1
 469 480 l 1,3,-1
 61 420 l 1,0,-1
EndSplineSet
Colour: ffff00
EndChar

StartChar: sterling
Encoding: 163 163 135
Width: 1072
VWidth: 0
Flags: HMW
LayerCount: 2
Fore
SplineSet
43 0 m 1,0,-1
 50 58 l 1,1,-1
 218 96 l 1,2,3
 253 221 253 221 258 461 c 1,4,-1
 259 561 l 1,5,-1
 81 552 l 1,6,-1
 92 631 l 1,7,-1
 262 641 l 1,8,-1
 265 786 l 1,9,10
 277 1251 277 1251 633 1251 c 0,11,12
 769 1251 769 1251 865 1211 c 1,13,-1
 834 892 l 1,14,-1
 767 902 l 1,15,-1
 736 1141 l 1,16,17
 718 1150 718 1150 680.5 1160.5 c 128,-1,18
 643 1171 643 1171 618 1171 c 0,19,20
 568 1171 568 1171 535.5 1159 c 128,-1,21
 503 1147 503 1147 479 1118 c 128,-1,22
 455 1089 455 1089 442 1033.5 c 128,-1,23
 429 978 429 978 423 900 c 128,-1,24
 417 822 417 822 416 702 c 1,25,-1
 416 648 l 1,26,-1
 635 661 l 1,27,-1
 625 581 l 1,28,-1
 414 568 l 1,29,-1
 414 516 l 1,30,31
 411 215 411 215 352 78 c 1,32,-1
 851 77 l 1,33,-1
 962 336 l 1,34,-1
 1025 322 l 1,35,-1
 991 0 l 1,36,-1
 43 0 l 1,0,-1
EndSplineSet
Colour: ffff00
EndChar

StartChar: t
Encoding: 116 116 136
Width: 650
VWidth: 0
Flags: HMW
LayerCount: 2
Fore
SplineSet
40 771 m 1,0,-1
 40 811 l 1,1,2
 175 872 175 872 254 1068 c 1,3,-1
 301 1068 l 1,4,-1
 301 840 l 1,5,-1
 584 840 l 1,6,-1
 576 768 l 1,7,-1
 300 768 l 1,8,-1
 297 310 l 2,9,10
 297 188 297 188 329 143 c 128,-1,11
 361 98 361 98 435 98 c 0,12,13
 468 98 468 98 507 114 c 128,-1,14
 546 130 546 130 568 146 c 2,15,-1
 590 163 l 1,16,-1
 609 119 l 1,17,18
 563 53 563 53 495.5 14.5 c 128,-1,19
 428 -24 428 -24 354 -24 c 0,20,21
 259 -24 259 -24 210.5 41.5 c 128,-1,22
 162 107 162 107 163 251 c 2,23,-1
 167 771 l 1,24,-1
 40 771 l 1,0,-1
EndSplineSet
Colour: ffff00
EndChar

StartChar: thorn
Encoding: 254 254 137
Width: 955
VWidth: 0
Flags: HMW
LayerCount: 2
Fore
SplineSet
41 -370 m 1,0,-1
 47 -311 l 1,1,-1
 199 -282 l 1,2,-1
 196 1154 l 1,3,-1
 46 1196 l 1,4,-1
 54 1250 l 1,5,-1
 315 1270 l 1,6,-1
 331 1254 l 1,7,-1
 331 849 l 1,8,-1
 319 740 l 1,9,-1
 328 740 l 1,10,11
 456 898 456 898 605 898 c 0,12,13
 738 898 738 898 822.5 785.5 c 128,-1,14
 907 673 907 673 907 468 c 0,15,16
 907 257 907 257 787.5 120 c 128,-1,17
 668 -17 668 -17 485 -17 c 0,18,19
 427 -17 427 -17 379 -4 c 1,20,-1
 375 82 l 1,21,22
 426 66 426 66 503 66 c 0,23,24
 629 66 629 66 695.5 162 c 128,-1,25
 762 258 762 258 762 411 c 0,26,27
 762 592 762 592 706.5 692 c 128,-1,28
 651 792 651 792 539 792 c 0,29,30
 477 792 477 792 427 760.5 c 128,-1,31
 377 729 377 729 328 678 c 1,32,-1
 328 -283 l 1,33,-1
 484 -309 l 1,34,-1
 474 -370 l 1,35,-1
 41 -370 l 1,0,-1
EndSplineSet
Colour: ffff00
EndChar

StartChar: three
Encoding: 51 51 138
Width: 835
VWidth: 0
Flags: HMW
LayerCount: 2
Fore
SplineSet
47 90 m 1,0,-1
 92 353 l 1,1,-1
 159 342 l 1,2,-1
 169 138 l 1,3,4
 192 98 192 98 246.5 67 c 128,-1,5
 301 36 301 36 364 36 c 0,6,7
 479 36 479 36 549.5 105.5 c 128,-1,8
 620 175 620 175 620 292 c 0,9,10
 620 406 620 406 525 479 c 128,-1,11
 430 552 430 552 284 555 c 1,12,-1
 278 605 l 1,13,14
 303 616 303 616 323 625.5 c 128,-1,15
 343 635 343 635 375.5 653.5 c 128,-1,16
 408 672 408 672 432.5 690.5 c 128,-1,17
 457 709 457 709 485 735.5 c 128,-1,18
 513 762 513 762 531 790 c 128,-1,19
 549 818 549 818 561 854 c 128,-1,20
 573 890 573 890 573 929 c 0,21,22
 573 1011 573 1011 525.5 1074 c 128,-1,23
 478 1137 478 1137 391 1137 c 0,24,25
 292 1137 292 1137 222 1057 c 1,26,-1
 179 833 l 1,27,-1
 115 844 l 1,28,-1
 108 1092 l 1,29,30
 154 1136 154 1136 243.5 1173.5 c 128,-1,31
 333 1211 333 1211 442 1211 c 0,32,33
 570 1211 570 1211 655 1142 c 128,-1,34
 740 1073 740 1073 740 959 c 0,35,36
 740 901 740 901 715.5 848 c 128,-1,37
 691 795 691 795 650.5 756 c 128,-1,38
 610 717 610 717 564.5 689 c 128,-1,39
 519 661 519 661 471 643 c 1,40,-1
 471 633 l 1,41,42
 610 613 610 613 698 537 c 128,-1,43
 786 461 786 461 786 345 c 0,44,45
 786 239 786 239 724 151.5 c 128,-1,46
 662 64 662 64 561 15.5 c 128,-1,47
 460 -33 460 -33 345 -33 c 0,48,49
 244 -33 244 -33 160 3.5 c 128,-1,50
 76 40 76 40 47 90 c 1,0,-1
EndSplineSet
Substitution2: "'onum' Oldstyle Figures lookup 1-1" three.osf
Colour: ffff00
EndChar

StartChar: three.osf
Encoding: 65543 -1 139
Width: 771
VWidth: 0
Flags: HMW
LayerCount: 2
Fore
SplineSet
41 -135 m 0,0,1
 41 -97 41 -97 73.5 -62.5 c 128,-1,2
 106 -28 106 -28 154 -24 c 1,3,4
 169 -106 169 -106 216 -163 c 128,-1,5
 263 -220 263 -220 341 -220 c 0,6,7
 457 -220 457 -220 516 -149 c 128,-1,8
 575 -78 575 -78 575 24 c 0,9,10
 575 147 575 147 487.5 223.5 c 128,-1,11
 400 300 400 300 257 305 c 1,12,-1
 252 355 l 1,13,14
 302 374 302 374 346.5 400.5 c 128,-1,15
 391 427 391 427 434.5 466 c 128,-1,16
 478 505 478 505 504 559.5 c 128,-1,17
 530 614 530 614 530 676 c 0,18,19
 530 760 530 760 492.5 817.5 c 128,-1,20
 455 875 455 875 376 875 c 0,21,22
 240 875 240 875 173 686 c 1,23,-1
 106 708 l 1,24,25
 131 809 131 809 220 894 c 128,-1,26
 309 979 309 979 432 979 c 0,27,28
 542 979 542 979 612.5 906 c 128,-1,29
 683 833 683 833 683 722 c 0,30,31
 683 666 683 666 659 611 c 128,-1,32
 635 556 635 556 597.5 514 c 128,-1,33
 560 472 560 472 519 441.5 c 128,-1,34
 478 411 478 411 438 394 c 1,35,-1
 438 386 l 1,36,37
 551 376 551 376 637.5 286 c 128,-1,38
 724 196 724 196 724 75 c 0,39,40
 724 -19 724 -19 669 -104.5 c 128,-1,41
 614 -190 614 -190 519 -242.5 c 128,-1,42
 424 -295 424 -295 315 -295 c 0,43,44
 202 -295 202 -295 121.5 -248.5 c 128,-1,45
 41 -202 41 -202 41 -135 c 0,0,1
EndSplineSet
Colour: ff00ff
EndChar

StartChar: threequarters
Encoding: 190 190 140
Width: 1322
VWidth: 0
Flags: HMW
LayerCount: 2
Fore
SplineSet
801 274 m 1,0,-1
 1005 274 l 1,1,-1
 1005 532 l 1,2,-1
 801 274 l 1,0,-1
695 250 m 1,3,-1
 1091 730 l 1,4,-1
 1141 721 l 1,5,6
 1133 626 1133 626 1133 425 c 2,7,-1
 1133 274 l 1,8,-1
 1281 274 l 1,9,-1
 1272 188 l 1,10,-1
 1133 188 l 1,11,-1
 1133 74 l 1,12,-1
 1252 55 l 1,13,-1
 1246 0 l 1,14,-1
 852 0 l 1,15,-1
 857 50 l 1,16,-1
 1007 76 l 1,17,-1
 1007 192 l 1,18,-1
 705 192 l 1,19,-1
 695 250 l 1,3,-1
242 -26 m 1,20,-1
 619 588 l 1,21,-1
 972 1211 l 1,22,-1
 1109 1207 l 1,23,-1
 1106 1190 l 1,24,-1
 740 591 l 1,25,-1
 393 -40 l 1,26,-1
 242 -26 l 1,20,-1
45 595 m 1,27,-1
 79 766 l 1,28,-1
 138 759 l 1,29,-1
 144 632 l 1,30,31
 159 609 159 609 192 592.5 c 128,-1,32
 225 576 225 576 263 576 c 0,33,34
 332 576 332 576 374.5 617.5 c 128,-1,35
 417 659 417 659 417 726 c 0,36,37
 417 790 417 790 350 832 c 128,-1,38
 283 874 283 874 193 876 c 1,39,-1
 185 915 l 1,40,41
 289 956 289 956 332 998 c 0,42,43
 375 1041 375 1041 375 1092 c 0,44,45
 375 1139 375 1139 346.5 1176.5 c 128,-1,46
 318 1214 318 1214 269 1214 c 0,47,48
 199 1214 199 1214 175 1188 c 1,49,-1
 147 1046 l 1,50,-1
 85 1052 l 1,51,-1
 81 1208 l 1,52,53
 107 1239 107 1239 173 1262.5 c 128,-1,54
 239 1286 239 1286 316 1286 c 0,55,56
 404 1286 404 1286 463.5 1242 c 128,-1,57
 523 1198 523 1198 523 1126 c 0,58,59
 523 1055 523 1055 472.5 1008 c 128,-1,60
 422 961 422 961 345 937 c 1,61,-1
 345 930 l 1,62,63
 448 918 448 918 505.5 867.5 c 128,-1,64
 563 817 563 817 563 742 c 0,65,66
 563 643 563 643 469.5 575.5 c 128,-1,67
 376 508 376 508 251 508 c 0,68,69
 178 508 178 508 121.5 532 c 128,-1,70
 65 556 65 556 45 595 c 1,27,-1
EndSplineSet
Colour: ffff00
EndChar

StartChar: three.superior
Encoding: 179 179 141
Width: 620
VWidth: 0
Flags: HMW
LayerCount: 2
Fore
SplineSet
50 598 m 1,0,-1
 83 768 l 1,1,-1
 142 762 l 1,2,-1
 148 634 l 1,3,4
 163 612 163 612 196.5 595.5 c 128,-1,5
 230 579 230 579 268 579 c 0,6,7
 337 579 337 579 379 620 c 128,-1,8
 421 661 421 661 421 728 c 0,9,10
 421 792 421 792 354.5 834 c 128,-1,11
 288 876 288 876 198 878 c 1,12,-1
 190 918 l 1,13,14
 287 956 287 956 329 993 c 0,15,16
 380 1038 380 1038 380 1094 c 0,17,18
 380 1141 380 1141 351 1179 c 128,-1,19
 322 1217 322 1217 273 1217 c 0,20,21
 205 1217 205 1217 180 1190 c 1,22,-1
 152 1049 l 1,23,-1
 89 1055 l 1,24,-1
 85 1210 l 1,25,26
 111 1241 111 1241 177 1264.5 c 128,-1,27
 243 1288 243 1288 320 1288 c 0,28,29
 408 1288 408 1288 467.5 1244.5 c 128,-1,30
 527 1201 527 1201 527 1129 c 0,31,32
 527 1058 527 1058 476.5 1011 c 128,-1,33
 426 964 426 964 349 940 c 1,34,-1
 349 933 l 1,35,36
 452 921 452 921 510 870.5 c 128,-1,37
 568 820 568 820 568 745 c 0,38,39
 568 646 568 646 474.5 578.5 c 128,-1,40
 381 511 381 511 256 511 c 0,41,42
 183 511 183 511 126.5 535 c 128,-1,43
 70 559 70 559 50 598 c 1,0,-1
EndSplineSet
Colour: ffff00
EndChar

StartChar: tilde
Encoding: 732 732 142
Width: 625
VWidth: 0
Flags: HMW
LayerCount: 2
Fore
SplineSet
79 1381 m 1,0,1
 83 1395 l 2,2,3
 87 1409 87 1409 99 1436 c 128,-1,4
 111 1463 111 1463 126.5 1482 c 128,-1,5
 142 1501 142 1501 168.5 1514 c 128,-1,6
 195 1527 195 1527 226 1520 c 2,7,-1
 429 1478 l 1,8,9
 451 1472 451 1472 470 1486 c 128,-1,10
 489 1500 489 1500 497 1516 c 2,11,-1
 505 1532 l 1,12,-1
 547 1530 l 1,13,14
 545 1523 545 1523 541.5 1512.5 c 128,-1,15
 538 1502 538 1502 524.5 1475 c 128,-1,16
 511 1448 511 1448 495 1428.5 c 128,-1,17
 479 1409 479 1409 451 1396.5 c 128,-1,18
 423 1384 423 1384 392 1391 c 2,19,-1
 191 1433 l 2,20,21
 171 1438 171 1438 151.5 1422.5 c 128,-1,22
 132 1407 132 1407 122 1389 c 2,23,-1
 112 1371 l 1,24,-1
 79 1381 l 1,0,1
EndSplineSet
Colour: ff00ff
EndChar

StartChar: two
Encoding: 50 50 143
Width: 910
VWidth: 0
Flags: HMW
LayerCount: 2
Back
SplineSet
874.37 0 m 5,0,-1
 96.7002 0 l 1,1,-1
 90.5918 103.824 l 1,2,-1
 330.815 312.493 l 2,3,4
 394.941 367.459 394.941 367.459 435.658 405.121 c 128,-1,5
 476.374 442.783 476.374 442.783 529.813 500.803 c 128,-1,6
 583.252 558.821 583.252 558.821 613.789 606.663 c 128,-1,7
 644.326 654.505 644.326 654.505 666.72 715.069 c 128,-1,8
 689.114 775.633 689.114 775.633 689.112 835.689 c 0,9,10
 689.113 1093.23 689.113 1093.23 480.445 1092.2 c 0,11,12
 313.51 1092.2 313.51 1092.2 211.722 833.654 c 1,13,-1
 128.255 864.191 l 1,14,15
 143.522 929.336 143.522 929.336 180.676 993.972 c 128,-1,16
 217.828 1058.6 217.828 1058.6 270.25 1111.54 c 128,-1,17
 322.672 1164.47 322.672 1164.47 393.924 1197.55 c 128,-1,18
 465.177 1230.64 465.177 1230.64 541.52 1230.63 c 0,19,20
 705.398 1230.63 705.398 1230.63 789.885 1140.04 c 128,-1,21
 874.371 1049.44 874.371 1049.44 874.37 880.477 c 0,22,23
 874.37 827.547 874.37 827.547 859.102 774.617 c 128,-1,24
 843.832 721.685 843.832 721.685 821.439 676.898 c 128,-1,25
 799.042 632.105 799.042 632.105 762.402 583.252 c 128,-1,26
 725.757 534.394 725.757 534.394 692.167 498.259 c 128,-1,27
 658.576 462.122 658.576 462.122 610.735 417.337 c 128,-1,28
 562.894 372.548 562.894 372.548 529.813 345.065 c 128,-1,29
 496.725 317.584 496.725 317.584 447.872 276.867 c 128,-1,30
 399.014 236.15 399.014 236.15 376.62 216.811 c 2,31,-1
 283.992 136.397 l 1,32,-1
 763.42 136.397 l 1,33,-1
 861.137 317.583 l 1,34,-1
 931.372 307.404 l 1,35,-1
 874.37 0 l 5,0,-1
EndSplineSet
Fore
SplineSet
45 74 m 1,0,-1
 283 278 l 2,1,2
 376 358 376 358 437.5 420.5 c 128,-1,3
 499 483 499 483 548.5 552.5 c 128,-1,4
 598 622 598 622 621 692.5 c 128,-1,5
 644 763 644 763 644 842 c 0,6,7
 644 965 644 965 592.5 1046.5 c 128,-1,8
 541 1128 541 1128 430 1128 c 0,9,10
 355 1128 355 1128 301.5 1097 c 128,-1,11
 248 1066 248 1066 224 1021 c 1,12,-1
 183 780 l 1,13,-1
 126 788 l 1,14,-1
 116 1057 l 1,15,16
 159 1115 159 1115 263 1162 c 128,-1,17
 367 1209 367 1209 476 1209 c 0,18,19
 634 1209 634 1209 726 1120 c 128,-1,20
 818 1031 818 1031 818 860 c 0,21,22
 818 821 818 821 811.5 783 c 128,-1,23
 805 745 805 745 789 707 c 128,-1,24
 773 669 773 669 757.5 637.5 c 128,-1,25
 742 606 742 606 711.5 567.5 c 128,-1,26
 681 529 681 529 659.5 502 c 128,-1,27
 638 475 638 475 596 435.5 c 128,-1,28
 554 396 554 396 529 373 c 128,-1,29
 504 350 504 350 453 308 c 128,-1,30
 402 266 402 266 376.5 245.5 c 128,-1,31
 351 225 351 225 295 180 c 2,32,-1
 216 118 l 1,33,-1
 715 118 l 1,34,-1
 810 361 l 1,35,-1
 865 353 l 1,36,-1
 818 0 l 1,37,-1
 51 0 l 1,38,-1
 45 74 l 1,0,-1
EndSplineSet
Substitution2: "'onum' Oldstyle Figures lookup 1-1" two.osf
Colour: ffff00
EndChar

StartChar: two.osf
Encoding: 65544 -1 144
Width: 806
VWidth: 0
Flags: HMW
LayerCount: 2
Fore
SplineSet
46 74 m 1,0,-1
 293 278 l 2,1,2
 413 377 413 377 471 471.5 c 128,-1,3
 529 566 529 566 529 679 c 0,4,5
 529 771 529 771 485.5 826.5 c 128,-1,6
 442 882 442 882 367 882 c 0,7,8
 293 882 293 882 228.5 817.5 c 128,-1,9
 164 753 164 753 138 662 c 1,10,-1
 73 686 l 1,11,12
 82 735 82 735 112 785.5 c 128,-1,13
 142 836 142 836 186 879.5 c 128,-1,14
 230 923 230 923 291.5 951 c 128,-1,15
 353 979 353 979 418 980 c 0,16,17
 547 981 547 981 619.5 903.5 c 128,-1,18
 692 826 692 826 692 697 c 0,19,20
 692 654 692 654 679.5 611 c 128,-1,21
 667 568 667 568 649.5 532.5 c 128,-1,22
 632 497 632 497 598.5 455.5 c 128,-1,23
 565 414 565 414 538 385.5 c 128,-1,24
 511 357 511 357 462 315 c 128,-1,25
 413 273 413 273 383.5 249 c 128,-1,26
 354 225 354 225 298 181 c 2,27,-1
 215 116 l 1,28,-1
 628 116 l 1,29,-1
 706 295 l 1,30,-1
 761 287 l 1,31,-1
 715 0 l 1,32,-1
 52 0 l 1,33,-1
 46 74 l 1,0,-1
EndSplineSet
Colour: ff00ff
EndChar

StartChar: two.superior
Encoding: 178 178 145
Width: 655
VWidth: 0
Flags: HMW
LayerCount: 2
Fore
SplineSet
53 626 m 1,0,-1
 207 750 l 2,1,2
 315 838 315 838 363.5 903.5 c 128,-1,3
 412 969 412 969 412 1040 c 0,4,5
 412 1106 412 1106 382.5 1150 c 128,-1,6
 353 1194 353 1194 289 1194 c 0,7,8
 204 1194 204 1194 174 1154 c 1,9,-1
 150 1014 l 1,10,-1
 95 1019 l 1,11,-1
 90 1184 l 1,12,13
 117 1224 117 1224 186.5 1249 c 128,-1,14
 256 1274 256 1274 335 1274 c 0,15,16
 442 1274 442 1274 503.5 1223 c 128,-1,17
 565 1172 565 1172 565 1074 c 0,18,19
 565 1037 565 1037 555 1002.5 c 128,-1,20
 545 968 545 968 521.5 934 c 128,-1,21
 498 900 498 900 473.5 872 c 128,-1,22
 449 844 449 844 405 807.5 c 128,-1,23
 361 771 361 771 327 744.5 c 128,-1,24
 293 718 293 718 233 675 c 1,25,-1
 198 652 l 1,26,-1
 491 652 l 1,27,-1
 553 802 l 1,28,-1
 599 790 l 1,29,-1
 579 548 l 1,30,-1
 51 548 l 1,31,-1
 53 626 l 1,0,-1
EndSplineSet
Colour: ffff00
EndChar

StartChar: u
Encoding: 117 117 146
Width: 1026
VWidth: 0
Flags: HMW
LayerCount: 2
Fore
SplineSet
41 800 m 1,0,-1
 49 853 l 1,1,-1
 298 874 l 1,2,-1
 314 857 l 1,3,-1
 314 317 l 2,4,5
 314 86 314 86 486 86 c 0,6,7
 601 86 601 86 692 187 c 1,8,-1
 692 754 l 1,9,-1
 535 790 l 1,10,-1
 541 850 l 1,11,-1
 807 874 l 1,12,-1
 821 857 l 1,13,-1
 821 223 l 2,14,15
 821 148 821 148 842 114.5 c 128,-1,16
 863 81 863 81 920 70 c 1,17,-1
 974 58 l 1,18,-1
 967 -1 l 1,19,20
 899 -21 899 -21 841 -21 c 0,21,22
 776 -21 776 -21 740 19 c 128,-1,23
 704 59 704 59 704 120 c 2,24,-1
 704 132 l 1,25,-1
 692 132 l 1,26,27
 641 56 641 56 568.5 16 c 128,-1,28
 496 -24 496 -24 414 -24 c 0,29,30
 186 -24 186 -24 186 275 c 2,31,-1
 186 757 l 1,32,-1
 41 800 l 1,0,-1
EndSplineSet
Colour: ffff00
EndChar

StartChar: underscore
Encoding: 95 95 147
Width: 985
VWidth: 0
Flags: HMW
LayerCount: 2
Fore
SplineSet
73 -133 m 1,0,-1
 85 -47 l 1,1,-1
 913 -47 l 1,2,-1
 903 -133 l 1,3,-1
 73 -133 l 1,0,-1
EndSplineSet
Colour: ffff00
EndChar

StartChar: v
Encoding: 118 118 148
Width: 978
VWidth: 0
Flags: HMW
LayerCount: 2
Fore
SplineSet
42 806 m 1,0,-1
 49 861 l 1,1,-1
 455 861 l 1,2,-1
 450 808 l 1,3,-1
 304 771 l 1,4,-1
 513 161 l 1,5,-1
 725 769 l 1,6,-1
 565 806 l 1,7,-1
 576 861 l 1,8,-1
 935 861 l 1,9,-1
 926 808 l 1,10,-1
 817 771 l 1,11,-1
 536 -11 l 1,12,-1
 446 -26 l 1,13,-1
 164 769 l 1,14,-1
 42 806 l 1,0,-1
EndSplineSet
Colour: ffff00
EndChar

StartChar: w
Encoding: 119 119 149
Width: 1311
VWidth: 0
Flags: HMW
LayerCount: 2
Fore
SplineSet
42 808 m 1,0,-1
 49 863 l 1,1,-1
 432 863 l 1,2,-1
 425 809 l 1,3,-1
 290 777 l 1,4,-1
 411 360 l 1,5,-1
 448 203 l 1,6,-1
 611 798 l 1,7,-1
 725 817 l 1,8,-1
 863 345 l 1,9,-1
 895 193 l 1,10,-1
 1056 775 l 1,11,-1
 905 808 l 1,12,-1
 912 863 l 1,13,-1
 1268 863 l 1,14,-1
 1260 809 l 1,15,-1
 1152 777 l 1,16,-1
 930 -9 l 1,17,-1
 845 -25 l 1,18,-1
 654 630 l 1,19,-1
 482 -9 l 1,20,-1
 395 -25 l 1,21,-1
 158 775 l 1,22,-1
 42 808 l 1,0,-1
EndSplineSet
Colour: ffff00
EndChar

StartChar: x
Encoding: 120 120 150
Width: 1011
VWidth: 0
Flags: HMW
LayerCount: 2
Fore
SplineSet
47 0 m 1,0,-1
 56 52 l 1,1,-1
 164 86 l 1,2,-1
 430 431 l 1,3,-1
 184 783 l 1,4,-1
 66 815 l 1,5,-1
 73 870 l 1,6,-1
 467 870 l 1,7,-1
 457 817 l 1,8,-1
 342 785 l 1,9,-1
 526 527 l 1,10,-1
 723 781 l 1,11,-1
 585 815 l 1,12,-1
 597 870 l 1,13,-1
 946 870 l 1,14,-1
 935 816 l 1,15,-1
 831 783 l 1,16,-1
 580 459 l 1,17,-1
 842 84 l 1,18,-1
 956 52 l 1,19,-1
 948 0 l 1,20,-1
 543 0 l 1,21,-1
 555 51 l 1,22,-1
 682 84 l 1,23,-1
 486 362 l 1,24,-1
 274 86 l 1,25,-1
 416 54 l 1,26,-1
 407 0 l 1,27,-1
 47 0 l 1,0,-1
EndSplineSet
Colour: ffff00
EndChar

StartChar: y
Encoding: 121 121 151
Width: 992
VWidth: 0
Flags: HMW
LayerCount: 2
Fore
SplineSet
40 -274 m 0,0,1
 40 -215 40 -215 85 -176 c 1,2,3
 154 -229 154 -229 243 -229 c 0,4,5
 354 -229 354 -229 425 -49 c 1,6,-1
 448 12 l 1,7,-1
 170 772 l 1,8,-1
 46 805 l 1,9,-1
 55 861 l 1,10,-1
 438 861 l 1,11,-1
 432 808 l 1,12,-1
 305 775 l 1,13,-1
 520 195 l 1,14,-1
 750 771 l 1,15,-1
 620 806 l 1,16,-1
 631 861 l 1,17,-1
 948 861 l 1,18,-1
 943 808 l 1,19,-1
 842 772 l 1,20,-1
 512 -53 l 2,21,22
 440 -233 440 -233 369 -306 c 128,-1,23
 298 -379 298 -379 185 -379 c 0,24,25
 123 -379 123 -379 81.5 -348.5 c 128,-1,26
 40 -318 40 -318 40 -274 c 0,0,1
EndSplineSet
Colour: ffff00
EndChar

StartChar: yacute
Encoding: 253 253 152
Width: 992
VWidth: 0
Flags: HMW
LayerCount: 2
Fore
SplineSet
323 1020 m 1,0,-1
 451 1350 l 1,1,-1
 554 1311 l 1,2,-1
 372 990 l 1,3,-1
 323 1020 l 1,0,-1
40 -274 m 0,4,5
 40 -215 40 -215 85 -176 c 1,6,7
 154 -229 154 -229 243 -229 c 0,8,9
 354 -229 354 -229 425 -49 c 1,10,-1
 448 12 l 1,11,-1
 170 772 l 1,12,-1
 46 805 l 1,13,-1
 55 861 l 1,14,-1
 438 861 l 1,15,-1
 432 808 l 1,16,-1
 305 775 l 1,17,-1
 520 195 l 1,18,-1
 750 771 l 1,19,-1
 620 806 l 1,20,-1
 631 861 l 1,21,-1
 948 861 l 1,22,-1
 943 808 l 1,23,-1
 842 772 l 1,24,-1
 512 -53 l 2,25,26
 440 -233 440 -233 369 -306 c 128,-1,27
 298 -379 298 -379 185 -379 c 0,28,29
 123 -379 123 -379 81.5 -348.5 c 128,-1,30
 40 -318 40 -318 40 -274 c 0,4,5
EndSplineSet
Colour: ffff00
EndChar

StartChar: ydieresis
Encoding: 255 255 153
Width: 992
VWidth: 0
Flags: HMW
LayerCount: 2
Fore
SplineSet
825 1072 m 0,0,1
 825 1108 825 1108 844 1128.5 c 128,-1,2
 863 1149 863 1149 894 1149 c 0,3,4
 926 1149 926 1149 946.5 1128.5 c 128,-1,5
 967 1108 967 1108 967 1072 c 0,6,7
 967 1034 967 1034 947 1012 c 128,-1,8
 927 990 927 990 894 990 c 0,9,10
 862 990 862 990 843.5 1012.5 c 128,-1,11
 825 1035 825 1035 825 1072 c 0,0,1
557 1072 m 0,12,13
 557 1108 557 1108 576 1128.5 c 128,-1,14
 595 1149 595 1149 626 1149 c 0,15,16
 658 1149 658 1149 678 1128.5 c 128,-1,17
 698 1108 698 1108 698 1072 c 0,18,19
 698 1034 698 1034 678.5 1012 c 128,-1,20
 659 990 659 990 627 990 c 128,-1,21
 595 990 595 990 576 1012.5 c 128,-1,22
 557 1035 557 1035 557 1072 c 0,12,13
40 -274 m 0,23,24
 40 -215 40 -215 85 -176 c 1,25,26
 154 -229 154 -229 243 -229 c 0,27,28
 354 -229 354 -229 425 -49 c 1,29,-1
 448 12 l 1,30,-1
 170 772 l 1,31,-1
 46 805 l 1,32,-1
 55 861 l 1,33,-1
 438 861 l 1,34,-1
 432 808 l 1,35,-1
 305 775 l 1,36,-1
 520 195 l 1,37,-1
 750 771 l 1,38,-1
 620 806 l 1,39,-1
 631 861 l 1,40,-1
 948 861 l 1,41,-1
 943 808 l 1,42,-1
 842 772 l 1,43,-1
 512 -53 l 2,44,45
 440 -233 440 -233 369 -306 c 128,-1,46
 298 -379 298 -379 185 -379 c 0,47,48
 123 -379 123 -379 81.5 -348.5 c 128,-1,49
 40 -318 40 -318 40 -274 c 0,23,24
EndSplineSet
Colour: ffff00
EndChar

StartChar: yen
Encoding: 165 165 154
Width: 1067
VWidth: 0
Flags: HMW
LayerCount: 2
Fore
SplineSet
42 1188 m 1,0,-1
 50 1244 l 1,1,-1
 489 1244 l 1,2,-1
 481 1188 l 1,3,-1
 331 1156 l 1,4,-1
 570 638 l 1,5,-1
 797 1151 l 1,6,-1
 626 1188 l 1,7,-1
 632 1244 l 1,8,-1
 1026 1244 l 1,9,-1
 1019 1188 l 1,10,-1
 893 1155 l 1,11,-1
 626 578 l 1,12,-1
 956 578 l 1,13,-1
 945 505 l 1,14,-1
 607 505 l 1,15,-1
 607 338 l 1,16,-1
 953 338 l 1,17,-1
 942 265 l 1,18,-1
 607 265 l 1,19,-1
 607 90 l 1,20,-1
 781 62 l 1,21,-1
 772 0 l 1,22,-1
 291 0 l 1,23,-1
 299 56 l 1,24,-1
 461 96 l 1,25,-1
 461 265 l 1,26,-1
 135 265 l 1,27,-1
 146 338 l 1,28,-1
 461 338 l 1,29,-1
 461 505 l 1,30,-1
 138 505 l 1,31,-1
 149 578 l 1,32,-1
 442 578 l 1,33,-1
 179 1152 l 1,34,-1
 42 1188 l 1,0,-1
EndSplineSet
Colour: ffff00
EndChar

StartChar: z
Encoding: 122 122 155
Width: 796
VWidth: 0
Flags: HMW
LayerCount: 2
Fore
SplineSet
56 63 m 1,0,-1
 572 788 l 1,1,-1
 187 788 l 1,2,-1
 131 583 l 1,3,-1
 75 592 l 1,4,-1
 85 861 l 1,5,-1
 732 861 l 1,6,-1
 734 809 l 1,7,-1
 211 78 l 1,8,-1
 624 78 l 1,9,-1
 699 275 l 1,10,-1
 750 269 l 1,11,-1
 720 0 l 1,12,-1
 60 0 l 1,13,-1
 56 63 l 1,0,-1
EndSplineSet
Colour: ffff00
EndChar

StartChar: zero
Encoding: 48 48 156
Width: 917
VWidth: 0
Flags: HMW
LayerCount: 2
Fore
SplineSet
223 584 m 0,0,1
 223 48 223 48 465 48 c 0,2,3
 583 48 583 48 637 180.5 c 128,-1,4
 691 313 691 313 691 587 c 0,5,6
 691 1125 691 1125 461 1125 c 0,7,8
 223 1125 223 1125 223 584 c 0,0,1
55 587 m 0,9,10
 55 734 55 734 87.5 852.5 c 128,-1,11
 120 971 120 971 176.5 1046.5 c 128,-1,12
 233 1122 233 1122 306.5 1162.5 c 128,-1,13
 380 1203 380 1203 464 1203 c 0,14,15
 649 1203 649 1203 754.5 1045 c 128,-1,16
 860 887 860 887 860 587 c 0,17,18
 860 459 860 459 837.5 354 c 128,-1,19
 815 249 815 249 777.5 179.5 c 128,-1,20
 740 110 740 110 688.5 62.5 c 128,-1,21
 637 15 637 15 581 -6 c 128,-1,22
 525 -27 525 -27 463 -27 c 0,23,24
 375 -27 375 -27 303.5 6 c 128,-1,25
 232 39 232 39 175 109 c 128,-1,26
 118 179 118 179 86.5 300.5 c 128,-1,27
 55 422 55 422 55 587 c 0,9,10
EndSplineSet
Substitution2: "'onum' Oldstyle Figures lookup 1-1" zero.osf
Colour: ffff00
EndChar

StartChar: zero.osf
Encoding: 65545 -1 157
Width: 887
VWidth: 0
Flags: HMW
LayerCount: 2
Fore
SplineSet
213 479 m 0,0,1
 213 261 213 261 274.5 155.5 c 128,-1,2
 336 50 336 50 445 50 c 0,3,4
 552 50 552 50 613 153 c 128,-1,5
 674 256 674 256 674 478 c 0,6,7
 674 692 674 692 614.5 800 c 128,-1,8
 555 908 555 908 443 908 c 0,9,10
 326 908 326 908 269.5 802 c 128,-1,11
 213 696 213 696 213 479 c 0,0,1
55 475 m 0,12,13
 55 602 55 602 102 716 c 128,-1,14
 149 830 149 830 239.5 903 c 128,-1,15
 330 976 330 976 443 976 c 0,16,17
 564 976 564 976 653.5 909 c 128,-1,18
 743 842 743 842 788 730.5 c 128,-1,19
 833 619 833 619 833 481 c 0,20,21
 833 366 833 366 800.5 269.5 c 128,-1,22
 768 173 768 173 713.5 109.5 c 128,-1,23
 659 46 659 46 589 11 c 128,-1,24
 519 -24 519 -24 444 -24 c 0,25,26
 278 -24 278 -24 166.5 112 c 128,-1,27
 55 248 55 248 55 475 c 0,12,13
EndSplineSet
Colour: ff00ff
EndChar

StartChar: Germandbls.alt
Encoding: 65546 -1 158
Width: 1277
VWidth: 0
Flags: HMW
LayerCount: 2
Fore
SplineSet
43 0 m 1,0,-1
 50 58 l 1,1,-1
 219 97 l 1,2,-1
 219 727 l 2,3,4
 219 1002 219 1002 337.5 1138 c 128,-1,5
 456 1274 456 1274 703 1274 c 0,6,7
 835 1274 835 1274 954 1262.5 c 128,-1,8
 1073 1251 1073 1251 1128 1235 c 1,9,-1
 1129 1184 l 1,10,-1
 802 751 l 1,11,12
 826 737 826 737 884 706.5 c 128,-1,13
 942 676 942 676 980 655 c 128,-1,14
 1018 634 1018 634 1069.5 596 c 128,-1,15
 1121 558 1121 558 1152 522 c 128,-1,16
 1183 486 1183 486 1205.5 433.5 c 128,-1,17
 1228 381 1228 381 1228 323 c 0,18,19
 1228 166 1228 166 1114.5 70.5 c 128,-1,20
 1001 -25 1001 -25 819 -25 c 0,21,22
 713 -25 713 -25 622.5 16.5 c 128,-1,23
 532 58 532 58 486 123 c 1,24,-1
 507 400 l 1,25,-1
 583 389 l 1,26,-1
 616 185 l 1,27,28
 647 129 647 129 714 93 c 128,-1,29
 781 57 781 57 857 57 c 0,30,31
 954 57 954 57 1017 112 c 128,-1,32
 1080 167 1080 167 1080 267 c 0,33,34
 1080 315 1080 315 1056 360.5 c 128,-1,35
 1032 406 1032 406 1000 439 c 128,-1,36
 968 472 968 472 913.5 509 c 128,-1,37
 859 546 859 546 819.5 567.5 c 128,-1,38
 780 589 780 589 718.5 620.5 c 128,-1,39
 657 652 657 652 633 666 c 1,40,-1
 611 711 l 1,41,-1
 943 1159 l 1,42,-1
 943 1163 l 1,43,44
 908 1177 908 1177 812 1190 c 128,-1,45
 716 1203 716 1203 665 1203 c 0,46,47
 582 1203 582 1203 523 1170 c 128,-1,48
 464 1137 464 1137 430 1074.5 c 128,-1,49
 396 1012 396 1012 381 932.5 c 128,-1,50
 366 853 366 853 366 750 c 2,51,-1
 366 0 l 1,52,-1
 43 0 l 1,0,-1
EndSplineSet
Colour: ff00ff
EndChar

StartChar: Agrave
Encoding: 192 192 159
Width: 1326
VWidth: 0
Flags: HMW
LayerCount: 2
Fore
SplineSet
409 1701 m 1,0,-1
 513 1738 l 1,1,-1
 646 1403 l 1,2,-1
 595 1372 l 1,3,-1
 409 1701 l 1,0,-1
464 534 m 1,4,-1
 837 534 l 1,5,-1
 657 1060 l 1,6,-1
 464 534 l 1,4,-1
46 0 m 1,7,-1
 54 58 l 1,8,-1
 199 101 l 1,9,-1
 637 1246 l 1,10,-1
 739 1268 l 1,11,-1
 1141 95 l 1,12,-1
 1276 64 l 1,13,-1
 1268 0 l 1,14,-1
 806 0 l 1,15,-1
 816 58 l 1,16,-1
 985 101 l 1,17,-1
 861 455 l 1,18,-1
 436 455 l 1,19,-1
 305 95 l 1,20,-1
 490 63 l 1,21,-1
 480 0 l 1,22,-1
 46 0 l 1,7,-1
EndSplineSet
Colour: ffff00
EndChar

StartChar: Aacute
Encoding: 193 193 160
Width: 1326
VWidth: 0
Flags: HMW
LayerCount: 2
Fore
SplineSet
518 1402 m 1,0,-1
 646 1732 l 1,1,-1
 749 1693 l 1,2,-1
 567 1372 l 1,3,-1
 518 1402 l 1,0,-1
464 534 m 1,4,-1
 837 534 l 1,5,-1
 657 1060 l 1,6,-1
 464 534 l 1,4,-1
46 0 m 1,7,-1
 54 58 l 1,8,-1
 199 101 l 1,9,-1
 637 1246 l 1,10,-1
 739 1268 l 1,11,-1
 1141 95 l 1,12,-1
 1276 64 l 1,13,-1
 1268 0 l 1,14,-1
 806 0 l 1,15,-1
 816 58 l 1,16,-1
 985 101 l 1,17,-1
 861 455 l 1,18,-1
 436 455 l 1,19,-1
 305 95 l 1,20,-1
 490 63 l 1,21,-1
 480 0 l 1,22,-1
 46 0 l 1,7,-1
EndSplineSet
Colour: ffff00
EndChar

StartChar: Acircumflex
Encoding: 194 194 161
Width: 1326
VWidth: 0
Flags: HMW
LayerCount: 2
Fore
SplineSet
453 1402 m 1,0,-1
 621 1582 l 1,1,-1
 676 1596 l 1,2,-1
 854 1410 l 1,3,-1
 814 1373 l 1,4,-1
 641 1495 l 1,5,-1
 632 1495 l 1,6,-1
 483 1372 l 1,7,-1
 453 1402 l 1,0,-1
464 534 m 1,8,-1
 837 534 l 1,9,-1
 657 1060 l 1,10,-1
 464 534 l 1,8,-1
46 0 m 1,11,-1
 54 58 l 1,12,-1
 199 101 l 1,13,-1
 637 1246 l 1,14,-1
 739 1268 l 1,15,-1
 1141 95 l 1,16,-1
 1276 64 l 1,17,-1
 1268 0 l 1,18,-1
 806 0 l 1,19,-1
 816 58 l 1,20,-1
 985 101 l 1,21,-1
 861 455 l 1,22,-1
 436 455 l 1,23,-1
 305 95 l 1,24,-1
 490 63 l 1,25,-1
 480 0 l 1,26,-1
 46 0 l 1,11,-1
EndSplineSet
Colour: ffff00
EndChar

StartChar: Atilde
Encoding: 195 195 162
Width: 1326
VWidth: 0
Flags: HMW
LayerCount: 2
Fore
SplineSet
425 1382 m 1,0,1
 429 1396 l 2,2,3
 433 1410 433 1410 445 1437 c 128,-1,4
 457 1464 457 1464 472.5 1483 c 128,-1,5
 488 1502 488 1502 514.5 1515 c 128,-1,6
 541 1528 541 1528 572 1521 c 2,7,-1
 775 1479 l 1,8,9
 797 1473 797 1473 816 1486.5 c 128,-1,10
 835 1500 835 1500 843 1516 c 2,11,-1
 851 1533 l 1,12,-1
 893 1531 l 1,13,14
 891 1524 891 1524 887.5 1513.5 c 128,-1,15
 884 1503 884 1503 870.5 1476 c 128,-1,16
 857 1449 857 1449 841 1429.5 c 128,-1,17
 825 1410 825 1410 797 1397.5 c 128,-1,18
 769 1385 769 1385 738 1392 c 2,19,-1
 537 1434 l 2,20,21
 517 1439 517 1439 497.5 1423.5 c 128,-1,22
 478 1408 478 1408 468 1390 c 2,23,-1
 458 1372 l 1,24,-1
 425 1382 l 1,0,1
464 534 m 1,25,-1
 837 534 l 1,26,-1
 657 1060 l 1,27,-1
 464 534 l 1,25,-1
46 0 m 1,28,-1
 54 58 l 1,29,-1
 199 101 l 1,30,-1
 637 1246 l 1,31,-1
 739 1268 l 1,32,-1
 1141 95 l 1,33,-1
 1276 64 l 1,34,-1
 1268 0 l 1,35,-1
 806 0 l 1,36,-1
 816 58 l 1,37,-1
 985 101 l 1,38,-1
 861 455 l 1,39,-1
 436 455 l 1,40,-1
 305 95 l 1,41,-1
 490 63 l 1,42,-1
 480 0 l 1,43,-1
 46 0 l 1,28,-1
EndSplineSet
Colour: ffff00
EndChar

StartChar: Adieresis
Encoding: 196 196 163
Width: 1326
VWidth: 0
Flags: HMW
LayerCount: 2
Fore
SplineSet
1014 1455 m 0,0,1
 1014 1491 1014 1491 1033 1511.5 c 128,-1,2
 1052 1532 1052 1532 1083 1532 c 0,3,4
 1115 1532 1115 1532 1135.5 1511.5 c 128,-1,5
 1156 1491 1156 1491 1156 1455 c 0,6,7
 1156 1417 1156 1417 1136 1395 c 128,-1,8
 1116 1373 1116 1373 1083 1373 c 0,9,10
 1051 1373 1051 1373 1032.5 1395.5 c 128,-1,11
 1014 1418 1014 1418 1014 1455 c 0,0,1
746 1455 m 0,12,13
 746 1491 746 1491 765 1511.5 c 128,-1,14
 784 1532 784 1532 815 1532 c 0,15,16
 847 1532 847 1532 867 1511.5 c 128,-1,17
 887 1491 887 1491 887 1455 c 0,18,19
 887 1417 887 1417 867.5 1395 c 128,-1,20
 848 1373 848 1373 816 1373 c 128,-1,21
 784 1373 784 1373 765 1395.5 c 128,-1,22
 746 1418 746 1418 746 1455 c 0,12,13
464 534 m 1,23,-1
 837 534 l 1,24,-1
 657 1060 l 1,25,-1
 464 534 l 1,23,-1
46 0 m 1,26,-1
 54 58 l 1,27,-1
 199 101 l 1,28,-1
 637 1246 l 1,29,-1
 739 1268 l 1,30,-1
 1141 95 l 1,31,-1
 1276 64 l 1,32,-1
 1268 0 l 1,33,-1
 806 0 l 1,34,-1
 816 58 l 1,35,-1
 985 101 l 1,36,-1
 861 455 l 1,37,-1
 436 455 l 1,38,-1
 305 95 l 1,39,-1
 490 63 l 1,40,-1
 480 0 l 1,41,-1
 46 0 l 1,26,-1
EndSplineSet
Colour: ffff00
EndChar

StartChar: Aring
Encoding: 197 197 164
Width: 1326
VWidth: 0
Flags: HMW
LayerCount: 2
Fore
SplineSet
550 1543 m 0,0,1
 550 1492 550 1492 576.5 1451 c 128,-1,2
 603 1410 603 1410 649 1410 c 0,3,4
 691 1410 691 1410 715 1440.5 c 128,-1,5
 739 1471 739 1471 739 1527 c 0,6,7
 739 1579 739 1579 711.5 1619 c 128,-1,8
 684 1659 684 1659 639 1659 c 0,9,10
 595 1659 595 1659 572.5 1625 c 128,-1,11
 550 1591 550 1591 550 1543 c 0,0,1
483 1531 m 0,12,13
 483 1601 483 1601 531.5 1652 c 128,-1,14
 580 1703 580 1703 650 1703 c 0,15,16
 721 1703 721 1703 764 1657.5 c 128,-1,17
 807 1612 807 1612 807 1540 c 0,18,19
 807 1470 807 1470 759.5 1417.5 c 128,-1,20
 712 1365 712 1365 638 1365 c 0,21,22
 568 1365 568 1365 525.5 1410 c 128,-1,23
 483 1455 483 1455 483 1531 c 0,12,13
464 534 m 1,24,-1
 837 534 l 1,25,-1
 657 1060 l 1,26,-1
 464 534 l 1,24,-1
46 0 m 1,27,-1
 54 58 l 1,28,-1
 199 101 l 1,29,-1
 637 1246 l 1,30,-1
 739 1268 l 1,31,-1
 1141 95 l 1,32,-1
 1276 64 l 1,33,-1
 1268 0 l 1,34,-1
 806 0 l 1,35,-1
 816 58 l 1,36,-1
 985 101 l 1,37,-1
 861 455 l 1,38,-1
 436 455 l 1,39,-1
 305 95 l 1,40,-1
 490 63 l 1,41,-1
 480 0 l 1,42,-1
 46 0 l 1,27,-1
EndSplineSet
Colour: ffff00
EndChar

StartChar: Ccedilla
Encoding: 199 199 165
Width: 1096
VWidth: 0
Flags: HMW
LayerCount: 2
Fore
SplineSet
492 -354 m 1,0,1
 535 -339 535 -339 565 -312.5 c 128,-1,2
 595 -286 595 -286 595 -263 c 0,3,4
 595 -251 595 -251 591 -238.5 c 128,-1,5
 587 -226 587 -226 583 -218 c 128,-1,6
 579 -210 579 -210 567.5 -196.5 c 128,-1,7
 556 -183 556 -183 552.5 -179 c 128,-1,8
 549 -175 549 -175 533 -160 c 128,-1,9
 517 -145 517 -145 515 -143 c 1,10,-1
 597 -25 l 1,11,12
 483 -24 483 -24 383 19 c 128,-1,13
 283 62 283 62 209 140.5 c 128,-1,14
 135 219 135 219 92.5 337.5 c 128,-1,15
 50 456 50 456 50 599 c 0,16,17
 50 690 50 690 72 782 c 128,-1,18
 94 874 94 874 142 962.5 c 128,-1,19
 190 1051 190 1051 258.5 1119 c 128,-1,20
 327 1187 327 1187 429.5 1228.5 c 128,-1,21
 532 1270 532 1270 653 1270 c 0,22,23
 874 1270 874 1270 1004 1171 c 1,24,-1
 973 836 l 1,25,-1
 905 846 l 1,26,-1
 869 1086 l 1,27,28
 785 1195 785 1195 601 1195 c 0,29,30
 438 1195 438 1195 325.5 1043 c 128,-1,31
 213 891 213 891 213 651 c 0,32,33
 213 383 213 383 339.5 233.5 c 128,-1,34
 466 84 466 84 669 84 c 0,35,36
 769 84 769 84 862 132 c 128,-1,37
 955 180 955 180 1026 252 c 1,38,-1
 1055 195 l 1,39,40
 1000 122 1000 122 896 58.5 c 128,-1,41
 792 -5 792 -5 667 -21 c 1,42,-1
 619 -91 l 1,43,44
 708 -170 708 -170 708 -242 c 0,45,46
 708 -345 708 -345 508 -405 c 1,47,-1
 492 -354 l 1,0,1
EndSplineSet
Colour: ffff00
EndChar

StartChar: Egrave
Encoding: 200 200 166
Width: 1098
VWidth: 0
Flags: HMW
LayerCount: 2
Fore
SplineSet
350 1701 m 1,0,-1
 454 1738 l 1,1,-1
 587 1403 l 1,2,-1
 536 1372 l 1,3,-1
 350 1701 l 1,0,-1
47 1185 m 1,4,-1
 56 1244 l 1,5,-1
 1007 1244 l 1,6,-1
 976 925 l 1,7,-1
 909 934 l 1,8,-1
 879 1173 l 1,9,-1
 376 1173 l 1,10,-1
 376 668 l 1,11,-1
 691 668 l 1,12,-1
 731 797 l 1,13,-1
 803 808 l 1,14,-1
 770 419 l 1,15,-1
 704 408 l 1,16,-1
 679 594 l 1,17,-1
 376 594 l 1,18,-1
 376 75 l 1,19,-1
 905 75 l 1,20,-1
 991 324 l 1,21,-1
 1053 313 l 1,22,-1
 1023 0 l 1,23,-1
 53 0 l 1,24,-1
 59 58 l 1,25,-1
 228 96 l 1,26,-1
 228 1151 l 1,27,-1
 47 1185 l 1,4,-1
EndSplineSet
Colour: ffff00
EndChar

StartChar: Eacute
Encoding: 201 201 167
Width: 1098
VWidth: 0
Flags: HMW
LayerCount: 2
Fore
SplineSet
400 1402 m 1,0,-1
 528 1732 l 1,1,-1
 631 1693 l 1,2,-1
 449 1372 l 1,3,-1
 400 1402 l 1,0,-1
47 1185 m 1,4,-1
 56 1244 l 1,5,-1
 1007 1244 l 1,6,-1
 976 925 l 1,7,-1
 909 934 l 1,8,-1
 879 1173 l 1,9,-1
 376 1173 l 1,10,-1
 376 668 l 1,11,-1
 691 668 l 1,12,-1
 731 797 l 1,13,-1
 803 808 l 1,14,-1
 770 419 l 1,15,-1
 704 408 l 1,16,-1
 679 594 l 1,17,-1
 376 594 l 1,18,-1
 376 75 l 1,19,-1
 905 75 l 1,20,-1
 991 324 l 1,21,-1
 1053 313 l 1,22,-1
 1023 0 l 1,23,-1
 53 0 l 1,24,-1
 59 58 l 1,25,-1
 228 96 l 1,26,-1
 228 1151 l 1,27,-1
 47 1185 l 1,4,-1
EndSplineSet
Colour: ffff00
EndChar

StartChar: Edieresis
Encoding: 203 203 168
Width: 1098
VWidth: 0
Flags: HMW
LayerCount: 2
Fore
SplineSet
951 1455 m 0,0,1
 951 1491 951 1491 970 1511.5 c 128,-1,2
 989 1532 989 1532 1020 1532 c 0,3,4
 1052 1532 1052 1532 1072.5 1511.5 c 128,-1,5
 1093 1491 1093 1491 1093 1455 c 0,6,7
 1093 1417 1093 1417 1073 1395 c 128,-1,8
 1053 1373 1053 1373 1020 1373 c 0,9,10
 988 1373 988 1373 969.5 1395.5 c 128,-1,11
 951 1418 951 1418 951 1455 c 0,0,1
683 1455 m 0,12,13
 683 1491 683 1491 702 1511.5 c 128,-1,14
 721 1532 721 1532 752 1532 c 0,15,16
 784 1532 784 1532 804 1511.5 c 128,-1,17
 824 1491 824 1491 824 1455 c 0,18,19
 824 1417 824 1417 804.5 1395 c 128,-1,20
 785 1373 785 1373 753 1373 c 128,-1,21
 721 1373 721 1373 702 1395.5 c 128,-1,22
 683 1418 683 1418 683 1455 c 0,12,13
47 1185 m 1,23,-1
 56 1244 l 1,24,-1
 1007 1244 l 1,25,-1
 976 925 l 1,26,-1
 909 934 l 1,27,-1
 879 1173 l 1,28,-1
 376 1173 l 1,29,-1
 376 668 l 1,30,-1
 691 668 l 1,31,-1
 731 797 l 1,32,-1
 803 808 l 1,33,-1
 770 419 l 1,34,-1
 704 408 l 1,35,-1
 679 594 l 1,36,-1
 376 594 l 1,37,-1
 376 75 l 1,38,-1
 905 75 l 1,39,-1
 991 324 l 1,40,-1
 1053 313 l 1,41,-1
 1023 0 l 1,42,-1
 53 0 l 1,43,-1
 59 58 l 1,44,-1
 228 96 l 1,45,-1
 228 1151 l 1,46,-1
 47 1185 l 1,23,-1
EndSplineSet
Colour: ffff00
EndChar

StartChar: Igrave
Encoding: 204 204 169
Width: 614
VWidth: 0
Flags: HMW
LayerCount: 2
Fore
SplineSet
86 1701 m 1,0,-1
 190 1738 l 1,1,-1
 323 1403 l 1,2,-1
 272 1372 l 1,3,-1
 86 1701 l 1,0,-1
46 1187 m 1,4,-1
 54 1244 l 1,5,-1
 555 1244 l 1,6,-1
 546 1187 l 1,7,-1
 374 1156 l 1,8,-1
 374 90 l 1,9,-1
 561 63 l 1,10,-1
 551 0 l 1,11,-1
 54 0 l 1,12,-1
 61 58 l 1,13,-1
 223 96 l 1,14,-1
 223 1154 l 1,15,-1
 46 1187 l 1,4,-1
EndSplineSet
Colour: ffff00
EndChar

StartChar: Iacute
Encoding: 205 205 170
Width: 614
VWidth: 0
Flags: HMW
LayerCount: 2
Fore
SplineSet
175 1402 m 1,0,-1
 303 1732 l 1,1,-1
 406 1693 l 1,2,-1
 224 1372 l 1,3,-1
 175 1402 l 1,0,-1
46 1187 m 1,4,-1
 54 1244 l 1,5,-1
 555 1244 l 1,6,-1
 546 1187 l 1,7,-1
 374 1156 l 1,8,-1
 374 90 l 1,9,-1
 561 63 l 1,10,-1
 551 0 l 1,11,-1
 54 0 l 1,12,-1
 61 58 l 1,13,-1
 223 96 l 1,14,-1
 223 1154 l 1,15,-1
 46 1187 l 1,4,-1
EndSplineSet
Colour: ffff00
EndChar

StartChar: Icircumflex
Encoding: 206 206 171
Width: 614
VWidth: 0
Flags: HMW
LayerCount: 2
Fore
SplineSet
117 1402 m 1,0,-1
 285 1582 l 1,1,-1
 340 1596 l 1,2,-1
 518 1410 l 1,3,-1
 478 1373 l 1,4,-1
 305 1495 l 1,5,-1
 296 1495 l 1,6,-1
 147 1372 l 1,7,-1
 117 1402 l 1,0,-1
46 1187 m 1,8,-1
 54 1244 l 1,9,-1
 555 1244 l 1,10,-1
 546 1187 l 1,11,-1
 374 1156 l 1,12,-1
 374 90 l 1,13,-1
 561 63 l 1,14,-1
 551 0 l 1,15,-1
 54 0 l 1,16,-1
 61 58 l 1,17,-1
 223 96 l 1,18,-1
 223 1154 l 1,19,-1
 46 1187 l 1,8,-1
EndSplineSet
Colour: ffff00
EndChar

StartChar: Idieresis
Encoding: 207 207 172
Width: 614
VWidth: 0
Flags: HMW
LayerCount: 2
Fore
SplineSet
678 1455 m 0,0,1
 678 1491 678 1491 697 1511.5 c 128,-1,2
 716 1532 716 1532 747 1532 c 0,3,4
 779 1532 779 1532 799.5 1511.5 c 128,-1,5
 820 1491 820 1491 820 1455 c 0,6,7
 820 1417 820 1417 800 1395 c 128,-1,8
 780 1373 780 1373 747 1373 c 0,9,10
 715 1373 715 1373 696.5 1395.5 c 128,-1,11
 678 1418 678 1418 678 1455 c 0,0,1
410 1455 m 0,12,13
 410 1491 410 1491 429 1511.5 c 128,-1,14
 448 1532 448 1532 479 1532 c 0,15,16
 511 1532 511 1532 531 1511.5 c 128,-1,17
 551 1491 551 1491 551 1455 c 0,18,19
 551 1417 551 1417 531.5 1395 c 128,-1,20
 512 1373 512 1373 480 1373 c 128,-1,21
 448 1373 448 1373 429 1395.5 c 128,-1,22
 410 1418 410 1418 410 1455 c 0,12,13
46 1187 m 1,23,-1
 54 1244 l 1,24,-1
 555 1244 l 1,25,-1
 546 1187 l 1,26,-1
 374 1156 l 1,27,-1
 374 90 l 1,28,-1
 561 63 l 1,29,-1
 551 0 l 1,30,-1
 54 0 l 1,31,-1
 61 58 l 1,32,-1
 223 96 l 1,33,-1
 223 1154 l 1,34,-1
 46 1187 l 1,23,-1
EndSplineSet
Colour: ffff00
EndChar

StartChar: Ntilde
Encoding: 209 209 173
Width: 1368
VWidth: 0
Flags: HMW
LayerCount: 2
Fore
SplineSet
444 1382 m 1,0,1
 448 1396 l 2,2,3
 452 1410 452 1410 464 1437 c 128,-1,4
 476 1464 476 1464 491.5 1483 c 128,-1,5
 507 1502 507 1502 533.5 1515 c 128,-1,6
 560 1528 560 1528 591 1521 c 2,7,-1
 794 1479 l 1,8,9
 816 1473 816 1473 835 1486.5 c 128,-1,10
 854 1500 854 1500 862 1516 c 2,11,-1
 870 1533 l 1,12,-1
 912 1531 l 1,13,14
 910 1524 910 1524 906.5 1513.5 c 128,-1,15
 903 1503 903 1503 889.5 1476 c 128,-1,16
 876 1449 876 1449 860 1429.5 c 128,-1,17
 844 1410 844 1410 816 1397.5 c 128,-1,18
 788 1385 788 1385 757 1392 c 2,19,-1
 556 1434 l 2,20,21
 536 1439 536 1439 516 1423.5 c 128,-1,22
 496 1408 496 1408 486 1390 c 2,23,-1
 477 1372 l 1,24,-1
 444 1382 l 1,0,1
46 1188 m 1,25,-1
 56 1244 l 1,26,-1
 383 1244 l 1,27,-1
 1050 225 l 1,28,-1
 1050 1154 l 1,29,-1
 865 1187 l 1,30,-1
 874 1244 l 1,31,-1
 1324 1244 l 1,32,-1
 1313 1187 l 1,33,-1
 1147 1156 l 1,34,-1
 1147 -3 l 1,35,-1
 1043 -24 l 1,36,-1
 330 1047 l 1,37,-1
 330 90 l 1,38,-1
 514 63 l 1,39,-1
 504 0 l 1,40,-1
 56 0 l 1,41,-1
 62 58 l 1,42,-1
 229 96 l 1,43,-1
 229 1147 l 1,44,-1
 46 1188 l 1,25,-1
EndSplineSet
Colour: ffff00
EndChar

StartChar: Ograve
Encoding: 210 210 174
Width: 1266
VWidth: 0
Flags: HMW
LayerCount: 2
Fore
SplineSet
471 1701 m 1,0,-1
 575 1738 l 1,1,-1
 708 1403 l 1,2,-1
 657 1372 l 1,3,-1
 471 1701 l 1,0,-1
217 678 m 0,4,5
 217 551 217 551 244 440.5 c 128,-1,6
 271 330 271 330 322.5 244 c 128,-1,7
 374 158 374 158 457.5 108 c 128,-1,8
 541 58 541 58 647 58 c 0,9,10
 733 58 733 58 803 88.5 c 128,-1,11
 873 119 873 119 918.5 169.5 c 128,-1,12
 964 220 964 220 994.5 287.5 c 128,-1,13
 1025 355 1025 355 1038.5 426.5 c 128,-1,14
 1052 498 1052 498 1052 574 c 0,15,16
 1052 744 1052 744 1005 883 c 128,-1,17
 958 1022 958 1022 858 1109.5 c 128,-1,18
 758 1197 758 1197 620 1197 c 0,19,20
 534 1197 534 1197 464.5 1168 c 128,-1,21
 395 1139 395 1139 349.5 1090 c 128,-1,22
 304 1041 304 1041 273.5 973.5 c 128,-1,23
 243 906 243 906 230 832.5 c 128,-1,24
 217 759 217 759 217 678 c 0,4,5
50 620 m 0,25,26
 50 812 50 812 124.5 960 c 128,-1,27
 199 1108 199 1108 340.5 1191 c 128,-1,28
 482 1274 482 1274 669 1274 c 0,29,30
 798 1274 798 1274 903 1223 c 128,-1,31
 1008 1172 1008 1172 1076 1083.5 c 128,-1,32
 1144 995 1144 995 1181 877.5 c 128,-1,33
 1218 760 1218 760 1218 624 c 0,34,35
 1218 525 1218 525 1193.5 431.5 c 128,-1,36
 1169 338 1169 338 1118 254.5 c 128,-1,37
 1067 171 1067 171 995 108.5 c 128,-1,38
 923 46 923 46 821 9.5 c 128,-1,39
 719 -27 719 -27 599 -27 c 0,40,41
 438 -27 438 -27 311.5 60.5 c 128,-1,42
 185 148 185 148 117.5 295 c 128,-1,43
 50 442 50 442 50 620 c 0,25,26
EndSplineSet
Colour: ffff00
EndChar

StartChar: Oacute
Encoding: 211 211 175
Width: 1266
VWidth: 0
Flags: HMW
LayerCount: 2
Fore
SplineSet
561 1402 m 1,0,-1
 689 1732 l 1,1,-1
 792 1693 l 1,2,-1
 610 1372 l 1,3,-1
 561 1402 l 1,0,-1
217 678 m 0,4,5
 217 551 217 551 244 440.5 c 128,-1,6
 271 330 271 330 322.5 244 c 128,-1,7
 374 158 374 158 457.5 108 c 128,-1,8
 541 58 541 58 647 58 c 0,9,10
 733 58 733 58 803 88.5 c 128,-1,11
 873 119 873 119 918.5 169.5 c 128,-1,12
 964 220 964 220 994.5 287.5 c 128,-1,13
 1025 355 1025 355 1038.5 426.5 c 128,-1,14
 1052 498 1052 498 1052 574 c 0,15,16
 1052 744 1052 744 1005 883 c 128,-1,17
 958 1022 958 1022 858 1109.5 c 128,-1,18
 758 1197 758 1197 620 1197 c 0,19,20
 534 1197 534 1197 464.5 1168 c 128,-1,21
 395 1139 395 1139 349.5 1090 c 128,-1,22
 304 1041 304 1041 273.5 973.5 c 128,-1,23
 243 906 243 906 230 832.5 c 128,-1,24
 217 759 217 759 217 678 c 0,4,5
50 620 m 0,25,26
 50 812 50 812 124.5 960 c 128,-1,27
 199 1108 199 1108 340.5 1191 c 128,-1,28
 482 1274 482 1274 669 1274 c 0,29,30
 798 1274 798 1274 903 1223 c 128,-1,31
 1008 1172 1008 1172 1076 1083.5 c 128,-1,32
 1144 995 1144 995 1181 877.5 c 128,-1,33
 1218 760 1218 760 1218 624 c 0,34,35
 1218 525 1218 525 1193.5 431.5 c 128,-1,36
 1169 338 1169 338 1118 254.5 c 128,-1,37
 1067 171 1067 171 995 108.5 c 128,-1,38
 923 46 923 46 821 9.5 c 128,-1,39
 719 -27 719 -27 599 -27 c 0,40,41
 438 -27 438 -27 311.5 60.5 c 128,-1,42
 185 148 185 148 117.5 295 c 128,-1,43
 50 442 50 442 50 620 c 0,25,26
EndSplineSet
Colour: ffff00
EndChar

StartChar: Ocircumflex
Encoding: 212 212 176
Width: 1266
VWidth: 0
Flags: HMW
LayerCount: 2
Fore
SplineSet
503 1402 m 1,0,-1
 671 1582 l 1,1,-1
 726 1596 l 1,2,-1
 904 1410 l 1,3,-1
 864 1373 l 1,4,-1
 691 1495 l 1,5,-1
 682 1495 l 1,6,-1
 533 1372 l 1,7,-1
 503 1402 l 1,0,-1
217 678 m 0,8,9
 217 551 217 551 244 440.5 c 128,-1,10
 271 330 271 330 322.5 244 c 128,-1,11
 374 158 374 158 457.5 108 c 128,-1,12
 541 58 541 58 647 58 c 0,13,14
 733 58 733 58 803 88.5 c 128,-1,15
 873 119 873 119 918.5 169.5 c 128,-1,16
 964 220 964 220 994.5 287.5 c 128,-1,17
 1025 355 1025 355 1038.5 426.5 c 128,-1,18
 1052 498 1052 498 1052 574 c 0,19,20
 1052 744 1052 744 1005 883 c 128,-1,21
 958 1022 958 1022 858 1109.5 c 128,-1,22
 758 1197 758 1197 620 1197 c 0,23,24
 534 1197 534 1197 464.5 1168 c 128,-1,25
 395 1139 395 1139 349.5 1090 c 128,-1,26
 304 1041 304 1041 273.5 973.5 c 128,-1,27
 243 906 243 906 230 832.5 c 128,-1,28
 217 759 217 759 217 678 c 0,8,9
50 620 m 0,29,30
 50 812 50 812 124.5 960 c 128,-1,31
 199 1108 199 1108 340.5 1191 c 128,-1,32
 482 1274 482 1274 669 1274 c 0,33,34
 798 1274 798 1274 903 1223 c 128,-1,35
 1008 1172 1008 1172 1076 1083.5 c 128,-1,36
 1144 995 1144 995 1181 877.5 c 128,-1,37
 1218 760 1218 760 1218 624 c 0,38,39
 1218 525 1218 525 1193.5 431.5 c 128,-1,40
 1169 338 1169 338 1118 254.5 c 128,-1,41
 1067 171 1067 171 995 108.5 c 128,-1,42
 923 46 923 46 821 9.5 c 128,-1,43
 719 -27 719 -27 599 -27 c 0,44,45
 438 -27 438 -27 311.5 60.5 c 128,-1,46
 185 148 185 148 117.5 295 c 128,-1,47
 50 442 50 442 50 620 c 0,29,30
EndSplineSet
Colour: ffff00
EndChar

StartChar: Otilde
Encoding: 213 213 177
Width: 1266
VWidth: 0
Flags: HMW
LayerCount: 2
Fore
SplineSet
467 1382 m 1,0,1
 471 1396 l 2,2,3
 475 1410 475 1410 487 1437 c 128,-1,4
 499 1464 499 1464 514.5 1483 c 128,-1,5
 530 1502 530 1502 556.5 1515 c 128,-1,6
 583 1528 583 1528 614 1521 c 2,7,-1
 817 1479 l 1,8,9
 839 1473 839 1473 858 1486.5 c 128,-1,10
 877 1500 877 1500 885 1516 c 2,11,-1
 893 1533 l 1,12,-1
 935 1531 l 1,13,14
 933 1524 933 1524 929.5 1513.5 c 128,-1,15
 926 1503 926 1503 912.5 1476 c 128,-1,16
 899 1449 899 1449 883 1429.5 c 128,-1,17
 867 1410 867 1410 839 1397.5 c 128,-1,18
 811 1385 811 1385 780 1392 c 2,19,-1
 579 1434 l 2,20,21
 559 1439 559 1439 539.5 1423.5 c 128,-1,22
 520 1408 520 1408 510 1390 c 2,23,-1
 500 1372 l 1,24,-1
 467 1382 l 1,0,1
217 678 m 0,25,26
 217 551 217 551 244 440.5 c 128,-1,27
 271 330 271 330 322.5 244 c 128,-1,28
 374 158 374 158 457.5 108 c 128,-1,29
 541 58 541 58 647 58 c 0,30,31
 733 58 733 58 803 88.5 c 128,-1,32
 873 119 873 119 918.5 169.5 c 128,-1,33
 964 220 964 220 994.5 287.5 c 128,-1,34
 1025 355 1025 355 1038.5 426.5 c 128,-1,35
 1052 498 1052 498 1052 574 c 0,36,37
 1052 744 1052 744 1005 883 c 128,-1,38
 958 1022 958 1022 858 1109.5 c 128,-1,39
 758 1197 758 1197 620 1197 c 0,40,41
 534 1197 534 1197 464.5 1168 c 128,-1,42
 395 1139 395 1139 349.5 1090 c 128,-1,43
 304 1041 304 1041 273.5 973.5 c 128,-1,44
 243 906 243 906 230 832.5 c 128,-1,45
 217 759 217 759 217 678 c 0,25,26
50 620 m 0,46,47
 50 812 50 812 124.5 960 c 128,-1,48
 199 1108 199 1108 340.5 1191 c 128,-1,49
 482 1274 482 1274 669 1274 c 0,50,51
 798 1274 798 1274 903 1223 c 128,-1,52
 1008 1172 1008 1172 1076 1083.5 c 128,-1,53
 1144 995 1144 995 1181 877.5 c 128,-1,54
 1218 760 1218 760 1218 624 c 0,55,56
 1218 525 1218 525 1193.5 431.5 c 128,-1,57
 1169 338 1169 338 1118 254.5 c 128,-1,58
 1067 171 1067 171 995 108.5 c 128,-1,59
 923 46 923 46 821 9.5 c 128,-1,60
 719 -27 719 -27 599 -27 c 0,61,62
 438 -27 438 -27 311.5 60.5 c 128,-1,63
 185 148 185 148 117.5 295 c 128,-1,64
 50 442 50 442 50 620 c 0,46,47
EndSplineSet
Colour: ffff00
EndChar

StartChar: Odieresis
Encoding: 214 214 178
Width: 1266
VWidth: 0
Flags: HMW
LayerCount: 2
Fore
SplineSet
1064 1455 m 0,0,1
 1064 1491 1064 1491 1083 1511.5 c 128,-1,2
 1102 1532 1102 1532 1133 1532 c 0,3,4
 1165 1532 1165 1532 1185.5 1511.5 c 128,-1,5
 1206 1491 1206 1491 1206 1455 c 0,6,7
 1206 1417 1206 1417 1186 1395 c 128,-1,8
 1166 1373 1166 1373 1133 1373 c 0,9,10
 1101 1373 1101 1373 1082.5 1395.5 c 128,-1,11
 1064 1418 1064 1418 1064 1455 c 0,0,1
796 1455 m 0,12,13
 796 1491 796 1491 815 1511.5 c 128,-1,14
 834 1532 834 1532 865 1532 c 0,15,16
 897 1532 897 1532 917 1511.5 c 128,-1,17
 937 1491 937 1491 937 1455 c 0,18,19
 937 1417 937 1417 917.5 1395 c 128,-1,20
 898 1373 898 1373 866 1373 c 128,-1,21
 834 1373 834 1373 815 1395.5 c 128,-1,22
 796 1418 796 1418 796 1455 c 0,12,13
217 678 m 0,23,24
 217 551 217 551 244 440.5 c 128,-1,25
 271 330 271 330 322.5 244 c 128,-1,26
 374 158 374 158 457.5 108 c 128,-1,27
 541 58 541 58 647 58 c 0,28,29
 733 58 733 58 803 88.5 c 128,-1,30
 873 119 873 119 918.5 169.5 c 128,-1,31
 964 220 964 220 994.5 287.5 c 128,-1,32
 1025 355 1025 355 1038.5 426.5 c 128,-1,33
 1052 498 1052 498 1052 574 c 0,34,35
 1052 744 1052 744 1005 883 c 128,-1,36
 958 1022 958 1022 858 1109.5 c 128,-1,37
 758 1197 758 1197 620 1197 c 0,38,39
 534 1197 534 1197 464.5 1168 c 128,-1,40
 395 1139 395 1139 349.5 1090 c 128,-1,41
 304 1041 304 1041 273.5 973.5 c 128,-1,42
 243 906 243 906 230 832.5 c 128,-1,43
 217 759 217 759 217 678 c 0,23,24
50 620 m 0,44,45
 50 812 50 812 124.5 960 c 128,-1,46
 199 1108 199 1108 340.5 1191 c 128,-1,47
 482 1274 482 1274 669 1274 c 0,48,49
 798 1274 798 1274 903 1223 c 128,-1,50
 1008 1172 1008 1172 1076 1083.5 c 128,-1,51
 1144 995 1144 995 1181 877.5 c 128,-1,52
 1218 760 1218 760 1218 624 c 0,53,54
 1218 525 1218 525 1193.5 431.5 c 128,-1,55
 1169 338 1169 338 1118 254.5 c 128,-1,56
 1067 171 1067 171 995 108.5 c 128,-1,57
 923 46 923 46 821 9.5 c 128,-1,58
 719 -27 719 -27 599 -27 c 0,59,60
 438 -27 438 -27 311.5 60.5 c 128,-1,61
 185 148 185 148 117.5 295 c 128,-1,62
 50 442 50 442 50 620 c 0,44,45
EndSplineSet
Colour: ffff00
EndChar

StartChar: Ucircumflex
Encoding: 219 219 179
Width: 1398
VWidth: 0
Flags: HMW
LayerCount: 2
Fore
SplineSet
493 1402 m 1,0,-1
 661 1582 l 1,1,-1
 716 1596 l 1,2,-1
 894 1410 l 1,3,-1
 854 1373 l 1,4,-1
 681 1495 l 1,5,-1
 672 1495 l 1,6,-1
 523 1372 l 1,7,-1
 493 1402 l 1,0,-1
43 1187 m 1,8,-1
 52 1244 l 1,9,-1
 550 1244 l 1,10,-1
 543 1187 l 1,11,-1
 374 1156 l 1,12,-1
 374 503 l 2,13,14
 374 73 374 73 734 73 c 0,15,16
 898 73 898 73 987.5 172 c 128,-1,17
 1077 271 1077 271 1077 466 c 2,18,-1
 1078 1154 l 1,19,-1
 894 1187 l 1,20,-1
 902 1244 l 1,21,-1
 1353 1244 l 1,22,-1
 1344 1187 l 1,23,-1
 1178 1156 l 1,24,-1
 1173 503 l 2,25,26
 1171 239 1171 239 1057 106 c 128,-1,27
 943 -27 943 -27 693 -27 c 0,28,29
 226 -27 226 -27 226 465 c 2,30,-1
 226 1154 l 1,31,-1
 43 1187 l 1,8,-1
EndSplineSet
Colour: ffff00
EndChar

StartChar: Udieresis
Encoding: 220 220 180
Width: 1398
VWidth: 0
Flags: HMW
LayerCount: 2
Fore
SplineSet
1054 1455 m 0,0,1
 1054 1491 1054 1491 1073 1511.5 c 128,-1,2
 1092 1532 1092 1532 1123 1532 c 0,3,4
 1155 1532 1155 1532 1175.5 1511.5 c 128,-1,5
 1196 1491 1196 1491 1196 1455 c 0,6,7
 1196 1417 1196 1417 1176 1395 c 128,-1,8
 1156 1373 1156 1373 1123 1373 c 0,9,10
 1091 1373 1091 1373 1072.5 1395.5 c 128,-1,11
 1054 1418 1054 1418 1054 1455 c 0,0,1
786 1455 m 0,12,13
 786 1491 786 1491 805 1511.5 c 128,-1,14
 824 1532 824 1532 855 1532 c 0,15,16
 887 1532 887 1532 907 1511.5 c 128,-1,17
 927 1491 927 1491 927 1455 c 0,18,19
 927 1417 927 1417 907.5 1395 c 128,-1,20
 888 1373 888 1373 856 1373 c 128,-1,21
 824 1373 824 1373 805 1395.5 c 128,-1,22
 786 1418 786 1418 786 1455 c 0,12,13
43 1187 m 1,23,-1
 52 1244 l 1,24,-1
 550 1244 l 1,25,-1
 543 1187 l 1,26,-1
 374 1156 l 1,27,-1
 374 503 l 2,28,29
 374 73 374 73 734 73 c 0,30,31
 898 73 898 73 987.5 172 c 128,-1,32
 1077 271 1077 271 1077 466 c 2,33,-1
 1078 1154 l 1,34,-1
 894 1187 l 1,35,-1
 902 1244 l 1,36,-1
 1353 1244 l 1,37,-1
 1344 1187 l 1,38,-1
 1178 1156 l 1,39,-1
 1173 503 l 2,40,41
 1171 239 1171 239 1057 106 c 128,-1,42
 943 -27 943 -27 693 -27 c 0,43,44
 226 -27 226 -27 226 465 c 2,45,-1
 226 1154 l 1,46,-1
 43 1187 l 1,23,-1
EndSplineSet
Colour: ffff00
EndChar

StartChar: aacute
Encoding: 225 225 181
Width: 844
VWidth: 0
Flags: HMW
LayerCount: 2
Fore
SplineSet
275 1020 m 1,0,-1
 403 1350 l 1,1,-1
 506 1311 l 1,2,-1
 324 990 l 1,3,-1
 275 1020 l 1,0,-1
184 207 m 0,4,5
 184 154 184 154 218.5 112.5 c 128,-1,6
 253 71 253 71 310 71 c 0,7,8
 368 71 368 71 421.5 104.5 c 128,-1,9
 475 138 475 138 508 186 c 1,10,-1
 508 430 l 1,11,12
 344 402 344 402 264 350.5 c 128,-1,13
 184 299 184 299 184 207 c 0,4,5
47 169 m 0,14,15
 47 293 47 293 160 376.5 c 128,-1,16
 273 460 273 460 508 481 c 1,17,-1
 508 529 l 2,18,19
 508 670 508 670 468 743 c 128,-1,20
 428 816 428 816 325 816 c 0,21,22
 294 816 294 816 273 807.5 c 128,-1,23
 252 799 252 799 239.5 786.5 c 128,-1,24
 227 774 227 774 217.5 742.5 c 128,-1,25
 208 711 208 711 203.5 684 c 128,-1,26
 199 657 199 657 191 601 c 1,27,28
 81 601 81 601 81 685 c 0,29,30
 81 736 81 736 131.5 784 c 128,-1,31
 182 832 182 832 255.5 860.5 c 128,-1,32
 329 889 329 889 397 889 c 0,33,34
 521 889 521 889 578 814.5 c 128,-1,35
 635 740 635 740 635 581 c 2,36,-1
 635 230 l 2,37,38
 635 153 635 153 653.5 118 c 128,-1,39
 672 83 672 83 735 73 c 1,40,-1
 793 62 l 1,41,-1
 784 2 l 1,42,43
 699 -18 699 -18 665 -18 c 0,44,45
 596 -18 596 -18 560.5 21.5 c 128,-1,46
 525 61 525 61 525 116 c 2,47,-1
 525 131 l 1,48,-1
 517 131 l 1,49,50
 494 76 494 76 422.5 25.5 c 128,-1,51
 351 -25 351 -25 249 -25 c 0,52,53
 165 -25 165 -25 106 27.5 c 128,-1,54
 47 80 47 80 47 169 c 0,14,15
EndSplineSet
Colour: ffff00
EndChar

StartChar: acircumflex
Encoding: 226 226 182
Width: 844
VWidth: 0
Flags: HMW
LayerCount: 2
Fore
SplineSet
217 1020 m 1,0,-1
 385 1200 l 1,1,-1
 440 1214 l 1,2,-1
 618 1028 l 1,3,-1
 578 991 l 1,4,-1
 405 1113 l 1,5,-1
 396 1113 l 1,6,-1
 247 990 l 1,7,-1
 217 1020 l 1,0,-1
184 207 m 0,8,9
 184 154 184 154 218.5 112.5 c 128,-1,10
 253 71 253 71 310 71 c 0,11,12
 368 71 368 71 421.5 104.5 c 128,-1,13
 475 138 475 138 508 186 c 1,14,-1
 508 430 l 1,15,16
 344 402 344 402 264 350.5 c 128,-1,17
 184 299 184 299 184 207 c 0,8,9
47 169 m 0,18,19
 47 293 47 293 160 376.5 c 128,-1,20
 273 460 273 460 508 481 c 1,21,-1
 508 529 l 2,22,23
 508 670 508 670 468 743 c 128,-1,24
 428 816 428 816 325 816 c 0,25,26
 294 816 294 816 273 807.5 c 128,-1,27
 252 799 252 799 239.5 786.5 c 128,-1,28
 227 774 227 774 217.5 742.5 c 128,-1,29
 208 711 208 711 203.5 684 c 128,-1,30
 199 657 199 657 191 601 c 1,31,32
 81 601 81 601 81 685 c 0,33,34
 81 736 81 736 131.5 784 c 128,-1,35
 182 832 182 832 255.5 860.5 c 128,-1,36
 329 889 329 889 397 889 c 0,37,38
 521 889 521 889 578 814.5 c 128,-1,39
 635 740 635 740 635 581 c 2,40,-1
 635 230 l 2,41,42
 635 153 635 153 653.5 118 c 128,-1,43
 672 83 672 83 735 73 c 1,44,-1
 793 62 l 1,45,-1
 784 2 l 1,46,47
 699 -18 699 -18 665 -18 c 0,48,49
 596 -18 596 -18 560.5 21.5 c 128,-1,50
 525 61 525 61 525 116 c 2,51,-1
 525 131 l 1,52,-1
 517 131 l 1,53,54
 494 76 494 76 422.5 25.5 c 128,-1,55
 351 -25 351 -25 249 -25 c 0,56,57
 165 -25 165 -25 106 27.5 c 128,-1,58
 47 80 47 80 47 169 c 0,18,19
EndSplineSet
Colour: ffff00
EndChar

StartChar: atilde
Encoding: 227 227 183
Width: 844
VWidth: 0
Flags: HMW
LayerCount: 2
Fore
SplineSet
181 1000 m 1,0,1
 185 1014 l 2,2,3
 189 1028 189 1028 201 1055 c 128,-1,4
 213 1082 213 1082 228.5 1101 c 128,-1,5
 244 1120 244 1120 270.5 1133 c 128,-1,6
 297 1146 297 1146 328 1139 c 2,7,-1
 531 1097 l 1,8,9
 553 1091 553 1091 572 1104.5 c 128,-1,10
 591 1118 591 1118 599 1134 c 2,11,-1
 607 1151 l 1,12,-1
 649 1149 l 1,13,14
 647 1142 647 1142 643.5 1131.5 c 128,-1,15
 640 1121 640 1121 626.5 1094 c 128,-1,16
 613 1067 613 1067 597 1047.5 c 128,-1,17
 581 1028 581 1028 553 1015.5 c 128,-1,18
 525 1003 525 1003 494 1010 c 2,19,-1
 293 1052 l 2,20,21
 273 1057 273 1057 253.5 1041.5 c 128,-1,22
 234 1026 234 1026 224 1008 c 2,23,-1
 214 990 l 1,24,-1
 181 1000 l 1,0,1
184 207 m 0,25,26
 184 154 184 154 218.5 112.5 c 128,-1,27
 253 71 253 71 310 71 c 0,28,29
 368 71 368 71 421.5 104.5 c 128,-1,30
 475 138 475 138 508 186 c 1,31,-1
 508 430 l 1,32,33
 344 402 344 402 264 350.5 c 128,-1,34
 184 299 184 299 184 207 c 0,25,26
47 169 m 0,35,36
 47 293 47 293 160 376.5 c 128,-1,37
 273 460 273 460 508 481 c 1,38,-1
 508 529 l 2,39,40
 508 670 508 670 468 743 c 128,-1,41
 428 816 428 816 325 816 c 0,42,43
 294 816 294 816 273 807.5 c 128,-1,44
 252 799 252 799 239.5 786.5 c 128,-1,45
 227 774 227 774 217.5 742.5 c 128,-1,46
 208 711 208 711 203.5 684 c 128,-1,47
 199 657 199 657 191 601 c 1,48,49
 81 601 81 601 81 685 c 0,50,51
 81 736 81 736 131.5 784 c 128,-1,52
 182 832 182 832 255.5 860.5 c 128,-1,53
 329 889 329 889 397 889 c 0,54,55
 521 889 521 889 578 814.5 c 128,-1,56
 635 740 635 740 635 581 c 2,57,-1
 635 230 l 2,58,59
 635 153 635 153 653.5 118 c 128,-1,60
 672 83 672 83 735 73 c 1,61,-1
 793 62 l 1,62,-1
 784 2 l 1,63,64
 699 -18 699 -18 665 -18 c 0,65,66
 596 -18 596 -18 560.5 21.5 c 128,-1,67
 525 61 525 61 525 116 c 2,68,-1
 525 131 l 1,69,-1
 517 131 l 1,70,71
 494 76 494 76 422.5 25.5 c 128,-1,72
 351 -25 351 -25 249 -25 c 0,73,74
 165 -25 165 -25 106 27.5 c 128,-1,75
 47 80 47 80 47 169 c 0,35,36
EndSplineSet
Colour: ffff00
EndChar

StartChar: adieresis
Encoding: 228 228 184
Width: 844
VWidth: 0
Flags: HMW
LayerCount: 2
Fore
SplineSet
777 1072 m 0,0,1
 777 1108 777 1108 796 1128.5 c 128,-1,2
 815 1149 815 1149 846 1149 c 0,3,4
 878 1149 878 1149 898.5 1128.5 c 128,-1,5
 919 1108 919 1108 919 1072 c 0,6,7
 919 1034 919 1034 899 1012 c 128,-1,8
 879 990 879 990 846 990 c 0,9,10
 814 990 814 990 795.5 1012.5 c 128,-1,11
 777 1035 777 1035 777 1072 c 0,0,1
509 1072 m 0,12,13
 509 1108 509 1108 528 1128.5 c 128,-1,14
 547 1149 547 1149 578 1149 c 0,15,16
 610 1149 610 1149 630 1128.5 c 128,-1,17
 650 1108 650 1108 650 1072 c 0,18,19
 650 1034 650 1034 630.5 1012 c 128,-1,20
 611 990 611 990 579 990 c 128,-1,21
 547 990 547 990 528 1012.5 c 128,-1,22
 509 1035 509 1035 509 1072 c 0,12,13
184 207 m 0,23,24
 184 154 184 154 218.5 112.5 c 128,-1,25
 253 71 253 71 310 71 c 0,26,27
 368 71 368 71 421.5 104.5 c 128,-1,28
 475 138 475 138 508 186 c 1,29,-1
 508 430 l 1,30,31
 344 402 344 402 264 350.5 c 128,-1,32
 184 299 184 299 184 207 c 0,23,24
47 169 m 0,33,34
 47 293 47 293 160 376.5 c 128,-1,35
 273 460 273 460 508 481 c 1,36,-1
 508 529 l 2,37,38
 508 670 508 670 468 743 c 128,-1,39
 428 816 428 816 325 816 c 0,40,41
 294 816 294 816 273 807.5 c 128,-1,42
 252 799 252 799 239.5 786.5 c 128,-1,43
 227 774 227 774 217.5 742.5 c 128,-1,44
 208 711 208 711 203.5 684 c 128,-1,45
 199 657 199 657 191 601 c 1,46,47
 81 601 81 601 81 685 c 0,48,49
 81 736 81 736 131.5 784 c 128,-1,50
 182 832 182 832 255.5 860.5 c 128,-1,51
 329 889 329 889 397 889 c 0,52,53
 521 889 521 889 578 814.5 c 128,-1,54
 635 740 635 740 635 581 c 2,55,-1
 635 230 l 2,56,57
 635 153 635 153 653.5 118 c 128,-1,58
 672 83 672 83 735 73 c 1,59,-1
 793 62 l 1,60,-1
 784 2 l 1,61,62
 699 -18 699 -18 665 -18 c 0,63,64
 596 -18 596 -18 560.5 21.5 c 128,-1,65
 525 61 525 61 525 116 c 2,66,-1
 525 131 l 1,67,-1
 517 131 l 1,68,69
 494 76 494 76 422.5 25.5 c 128,-1,70
 351 -25 351 -25 249 -25 c 0,71,72
 165 -25 165 -25 106 27.5 c 128,-1,73
 47 80 47 80 47 169 c 0,33,34
EndSplineSet
Colour: ffff00
EndChar

StartChar: aring
Encoding: 229 229 185
Width: 844
VWidth: 0
Flags: HMW
LayerCount: 2
Fore
SplineSet
272 1168 m 0,0,1
 272 1116 272 1116 298.5 1075.5 c 128,-1,2
 325 1035 325 1035 371 1035 c 0,3,4
 413 1035 413 1035 437 1065.5 c 128,-1,5
 461 1096 461 1096 461 1152 c 0,6,7
 461 1204 461 1204 433.5 1244 c 128,-1,8
 406 1284 406 1284 361 1284 c 0,9,10
 317 1284 317 1284 294.5 1250 c 128,-1,11
 272 1216 272 1216 272 1168 c 0,0,1
205 1156 m 0,12,13
 205 1226 205 1226 253.5 1277 c 128,-1,14
 302 1328 302 1328 372 1328 c 0,15,16
 443 1328 443 1328 486 1282.5 c 128,-1,17
 529 1237 529 1237 529 1165 c 0,18,19
 529 1095 529 1095 481.5 1042.5 c 128,-1,20
 434 990 434 990 360 990 c 0,21,22
 290 990 290 990 247.5 1035 c 128,-1,23
 205 1080 205 1080 205 1156 c 0,12,13
184 207 m 0,24,25
 184 154 184 154 218.5 112.5 c 128,-1,26
 253 71 253 71 310 71 c 0,27,28
 368 71 368 71 421.5 104.5 c 128,-1,29
 475 138 475 138 508 186 c 1,30,-1
 508 430 l 1,31,32
 344 402 344 402 264 350.5 c 128,-1,33
 184 299 184 299 184 207 c 0,24,25
47 169 m 0,34,35
 47 293 47 293 160 376.5 c 128,-1,36
 273 460 273 460 508 481 c 1,37,-1
 508 529 l 2,38,39
 508 670 508 670 468 743 c 128,-1,40
 428 816 428 816 325 816 c 0,41,42
 294 816 294 816 273 807.5 c 128,-1,43
 252 799 252 799 239.5 786.5 c 128,-1,44
 227 774 227 774 217.5 742.5 c 128,-1,45
 208 711 208 711 203.5 684 c 128,-1,46
 199 657 199 657 191 601 c 1,47,48
 81 601 81 601 81 685 c 0,49,50
 81 736 81 736 131.5 784 c 128,-1,51
 182 832 182 832 255.5 860.5 c 128,-1,52
 329 889 329 889 397 889 c 0,53,54
 521 889 521 889 578 814.5 c 128,-1,55
 635 740 635 740 635 581 c 2,56,-1
 635 230 l 2,57,58
 635 153 635 153 653.5 118 c 128,-1,59
 672 83 672 83 735 73 c 1,60,-1
 793 62 l 1,61,-1
 784 2 l 1,62,63
 699 -18 699 -18 665 -18 c 0,64,65
 596 -18 596 -18 560.5 21.5 c 128,-1,66
 525 61 525 61 525 116 c 2,67,-1
 525 131 l 1,68,-1
 517 131 l 1,69,70
 494 76 494 76 422.5 25.5 c 128,-1,71
 351 -25 351 -25 249 -25 c 0,72,73
 165 -25 165 -25 106 27.5 c 128,-1,74
 47 80 47 80 47 169 c 0,34,35
EndSplineSet
Colour: ffff00
EndChar

StartChar: ccedilla
Encoding: 231 231 186
Width: 765
VWidth: 0
Flags: HMW
LayerCount: 2
Fore
SplineSet
327 -359 m 1,0,1
 370 -344 370 -344 400 -317.5 c 128,-1,2
 430 -291 430 -291 430 -268 c 0,3,4
 430 -256 430 -256 426 -243.5 c 128,-1,5
 422 -231 422 -231 418 -223 c 128,-1,6
 414 -215 414 -215 402.5 -201.5 c 128,-1,7
 391 -188 391 -188 387.5 -184 c 128,-1,8
 384 -180 384 -180 368 -165 c 128,-1,9
 352 -150 352 -150 350 -148 c 1,10,-1
 432 -30 l 1,11,12
 425 -30 425 -30 418 -30 c 0,13,14
 250 -30 250 -30 151 94.5 c 128,-1,15
 52 219 52 219 52 405 c 0,16,17
 52 622 52 622 168 755 c 128,-1,18
 284 888 284 888 452 888 c 0,19,20
 569 888 569 888 626 840.5 c 128,-1,21
 683 793 683 793 683 726 c 0,22,23
 683 643 683 643 588 627 c 1,24,25
 557 714 557 714 514 762 c 128,-1,26
 471 810 471 810 404 810 c 0,27,28
 312 810 312 810 252 722 c 128,-1,29
 192 634 192 634 192 480 c 0,30,31
 192 301 192 301 270.5 185 c 128,-1,32
 349 69 349 69 484 69 c 0,33,34
 606 69 606 69 703 148 c 1,35,-1
 724 102 l 1,36,37
 694 61 694 61 635 27.5 c 128,-1,38
 576 -6 576 -6 505 -21 c 1,39,-1
 454 -96 l 1,40,41
 543 -175 543 -175 543 -247 c 0,42,43
 543 -350 543 -350 343 -410 c 1,44,-1
 327 -359 l 1,0,1
EndSplineSet
Colour: ffff00
EndChar

StartChar: ecircumflex
Encoding: 234 234 187
Width: 765
VWidth: 0
Flags: HMW
LayerCount: 2
Fore
SplineSet
259 1020 m 1,0,-1
 427 1200 l 1,1,-1
 482 1214 l 1,2,-1
 660 1028 l 1,3,-1
 620 991 l 1,4,-1
 447 1113 l 1,5,-1
 438 1113 l 1,6,-1
 289 990 l 1,7,-1
 259 1020 l 1,0,-1
195 507 m 1,8,-1
 546 530 l 1,9,10
 553 550 553 550 553 610 c 0,11,12
 553 701 553 701 510.5 755 c 128,-1,13
 468 809 468 809 395 809 c 0,14,15
 312 809 312 809 255.5 730.5 c 128,-1,16
 199 652 199 652 195 507 c 1,8,-1
52 420 m 0,17,18
 52 528 52 528 86 618.5 c 128,-1,19
 120 709 120 709 176 766 c 128,-1,20
 232 823 232 823 301.5 854.5 c 128,-1,21
 371 886 371 886 444 886 c 0,22,23
 559 886 559 886 626.5 810 c 128,-1,24
 694 734 694 734 694 582 c 0,25,26
 694 517 694 517 677 451 c 1,27,-1
 193 445 l 1,28,29
 195 372 195 372 212.5 308 c 128,-1,30
 230 244 230 244 263.5 191.5 c 128,-1,31
 297 139 297 139 352.5 108.5 c 128,-1,32
 408 78 408 78 480 78 c 0,33,34
 543 78 543 78 594 94 c 128,-1,35
 645 110 645 110 701 148 c 1,36,-1
 720 104 l 1,37,38
 667 42 667 42 587 6 c 128,-1,39
 507 -30 507 -30 411 -30 c 0,40,41
 339 -30 339 -30 275 -1.5 c 128,-1,42
 211 27 211 27 161 81 c 128,-1,43
 111 135 111 135 81.5 222.5 c 128,-1,44
 52 310 52 310 52 420 c 0,17,18
EndSplineSet
Colour: ffff00
EndChar

StartChar: edieresis
Encoding: 235 235 188
Width: 765
VWidth: 0
Flags: HMW
LayerCount: 2
Fore
SplineSet
820 1072 m 0,0,1
 820 1108 820 1108 839 1128.5 c 128,-1,2
 858 1149 858 1149 889 1149 c 0,3,4
 921 1149 921 1149 941.5 1128.5 c 128,-1,5
 962 1108 962 1108 962 1072 c 0,6,7
 962 1034 962 1034 942 1012 c 128,-1,8
 922 990 922 990 889 990 c 0,9,10
 857 990 857 990 838.5 1012.5 c 128,-1,11
 820 1035 820 1035 820 1072 c 0,0,1
552 1072 m 0,12,13
 552 1108 552 1108 571 1128.5 c 128,-1,14
 590 1149 590 1149 621 1149 c 0,15,16
 653 1149 653 1149 673 1128.5 c 128,-1,17
 693 1108 693 1108 693 1072 c 0,18,19
 693 1034 693 1034 673.5 1012 c 128,-1,20
 654 990 654 990 622 990 c 128,-1,21
 590 990 590 990 571 1012.5 c 128,-1,22
 552 1035 552 1035 552 1072 c 0,12,13
195 507 m 1,23,-1
 546 530 l 1,24,25
 553 550 553 550 553 610 c 0,26,27
 553 701 553 701 510.5 755 c 128,-1,28
 468 809 468 809 395 809 c 0,29,30
 312 809 312 809 255.5 730.5 c 128,-1,31
 199 652 199 652 195 507 c 1,23,-1
52 420 m 0,32,33
 52 528 52 528 86 618.5 c 128,-1,34
 120 709 120 709 176 766 c 128,-1,35
 232 823 232 823 301.5 854.5 c 128,-1,36
 371 886 371 886 444 886 c 0,37,38
 559 886 559 886 626.5 810 c 128,-1,39
 694 734 694 734 694 582 c 0,40,41
 694 517 694 517 677 451 c 1,42,-1
 193 445 l 1,43,44
 195 372 195 372 212.5 308 c 128,-1,45
 230 244 230 244 263.5 191.5 c 128,-1,46
 297 139 297 139 352.5 108.5 c 128,-1,47
 408 78 408 78 480 78 c 0,48,49
 543 78 543 78 594 94 c 128,-1,50
 645 110 645 110 701 148 c 1,51,-1
 720 104 l 1,52,53
 667 42 667 42 587 6 c 128,-1,54
 507 -30 507 -30 411 -30 c 0,55,56
 339 -30 339 -30 275 -1.5 c 128,-1,57
 211 27 211 27 161 81 c 128,-1,58
 111 135 111 135 81.5 222.5 c 128,-1,59
 52 310 52 310 52 420 c 0,32,33
EndSplineSet
Colour: ffff00
EndChar

StartChar: iacute
Encoding: 237 237 189
Width: 543
VWidth: 0
Flags: HMW
LayerCount: 2
Fore
SplineSet
44 0 m 1,0,-1
 56 55 l 1,1,-1
 207 87 l 1,2,-1
 207 772 l 1,3,-1
 55 814 l 1,4,-1
 63 865 l 1,5,-1
 322 887 l 1,6,-1
 338 871 l 1,7,-1
 338 87 l 1,8,-1
 498 57 l 1,9,-1
 487 0 l 1,10,-1
 44 0 l 1,0,-1
103 1020 m 1,11,-1
 231 1350 l 1,12,-1
 334 1311 l 1,13,-1
 152 990 l 1,14,-1
 103 1020 l 1,11,-1
EndSplineSet
Colour: ffff00
EndChar

StartChar: icircumflex
Encoding: 238 238 190
Width: 545
VWidth: 0
Flags: HMW
LayerCount: 2
Fore
SplineSet
46 0 m 1,0,-1
 58 55 l 1,1,-1
 209 87 l 1,2,-1
 209 772 l 1,3,-1
 57 814 l 1,4,-1
 65 865 l 1,5,-1
 324 887 l 1,6,-1
 340 871 l 1,7,-1
 340 87 l 1,8,-1
 500 57 l 1,9,-1
 489 0 l 1,10,-1
 46 0 l 1,0,-1
47 1020 m 1,11,-1
 215 1200 l 1,12,-1
 270 1214 l 1,13,-1
 448 1028 l 1,14,-1
 408 991 l 1,15,-1
 235 1113 l 1,16,-1
 226 1113 l 1,17,-1
 77 990 l 1,18,-1
 47 1020 l 1,11,-1
EndSplineSet
Colour: ffff00
EndChar

StartChar: idieresis
Encoding: 239 239 191
Width: 570
VWidth: 0
Flags: HMW
LayerCount: 2
Fore
SplineSet
46 0 m 1,0,-1
 58 55 l 1,1,-1
 209 87 l 1,2,-1
 209 772 l 1,3,-1
 57 814 l 1,4,-1
 65 865 l 1,5,-1
 324 887 l 1,6,-1
 340 871 l 1,7,-1
 340 87 l 1,8,-1
 500 57 l 1,9,-1
 489 0 l 1,10,-1
 46 0 l 1,0,-1
608 1072 m 0,11,12
 608 1108 608 1108 627 1128.5 c 128,-1,13
 646 1149 646 1149 677 1149 c 0,14,15
 709 1149 709 1149 729.5 1128.5 c 128,-1,16
 750 1108 750 1108 750 1072 c 0,17,18
 750 1034 750 1034 730 1012 c 128,-1,19
 710 990 710 990 677 990 c 0,20,21
 645 990 645 990 626.5 1012.5 c 128,-1,22
 608 1035 608 1035 608 1072 c 0,11,12
340 1072 m 0,23,24
 340 1108 340 1108 359 1128.5 c 128,-1,25
 378 1149 378 1149 409 1149 c 0,26,27
 441 1149 441 1149 461 1128.5 c 128,-1,28
 481 1108 481 1108 481 1072 c 0,29,30
 481 1034 481 1034 461.5 1012 c 128,-1,31
 442 990 442 990 410 990 c 128,-1,32
 378 990 378 990 359 1012.5 c 128,-1,33
 340 1035 340 1035 340 1072 c 0,23,24
EndSplineSet
Colour: ffff00
EndChar

StartChar: ntilde
Encoding: 241 241 192
Width: 1070
VWidth: 0
Flags: HMW
LayerCount: 2
Fore
SplineSet
302 1000 m 1,0,1
 306 1014 l 2,2,3
 310 1028 310 1028 322 1055 c 128,-1,4
 334 1082 334 1082 349.5 1101 c 128,-1,5
 365 1120 365 1120 391.5 1133 c 128,-1,6
 418 1146 418 1146 449 1139 c 2,7,-1
 652 1097 l 1,8,9
 674 1091 674 1091 693 1104.5 c 128,-1,10
 712 1118 712 1118 720 1134 c 2,11,-1
 728 1151 l 1,12,-1
 770 1149 l 1,13,14
 768 1142 768 1142 764.5 1131.5 c 128,-1,15
 761 1121 761 1121 747.5 1094 c 128,-1,16
 734 1067 734 1067 718 1047.5 c 128,-1,17
 702 1028 702 1028 674 1015.5 c 128,-1,18
 646 1003 646 1003 615 1010 c 2,19,-1
 414 1052 l 2,20,21
 394 1057 394 1057 374 1041.5 c 128,-1,22
 354 1026 354 1026 344 1008 c 2,23,-1
 335 990 l 1,24,-1
 302 1000 l 1,0,1
48 0 m 1,25,-1
 56 52 l 1,26,-1
 209 86 l 1,27,-1
 209 755 l 1,28,-1
 54 794 l 1,29,-1
 61 846 l 1,30,-1
 326 876 l 1,31,-1
 338 862 l 1,32,-1
 328 730 l 1,33,-1
 336 730 l 1,34,35
 386 792 386 792 471 841 c 128,-1,36
 556 890 556 890 647 890 c 0,37,38
 754 890 754 890 816 817 c 128,-1,39
 878 744 878 744 878 600 c 2,40,-1
 878 86 l 1,41,-1
 1019 58 l 1,42,-1
 1012 0 l 1,43,-1
 599 0 l 1,44,-1
 607 52 l 1,45,-1
 747 86 l 1,46,-1
 747 568 l 2,47,48
 747 676 747 676 699.5 728.5 c 128,-1,49
 652 781 652 781 577 781 c 0,50,51
 507 781 507 781 453 755.5 c 128,-1,52
 399 730 399 730 339 670 c 1,53,-1
 339 86 l 1,54,-1
 485 58 l 1,55,-1
 475 0 l 1,56,-1
 48 0 l 1,25,-1
EndSplineSet
Colour: ffff00
EndChar

StartChar: ograve
Encoding: 242 242 193
Width: 893
VWidth: 0
Flags: HMW
LayerCount: 2
Fore
SplineSet
254 1319 m 1,0,-1
 358 1356 l 1,1,-1
 491 1021 l 1,2,-1
 440 990 l 1,3,-1
 254 1319 l 1,0,-1
192 483 m 0,4,5
 192 369 192 369 223 273.5 c 128,-1,6
 254 178 254 178 320.5 116 c 128,-1,7
 387 54 387 54 479 54 c 0,8,9
 582 54 582 54 643 148.5 c 128,-1,10
 704 243 704 243 704 380 c 0,11,12
 704 457 704 457 686.5 531.5 c 128,-1,13
 669 606 669 606 635.5 668 c 128,-1,14
 602 730 602 730 547.5 768 c 128,-1,15
 493 806 493 806 426 806 c 0,16,17
 317 806 317 806 254.5 713.5 c 128,-1,18
 192 621 192 621 192 483 c 0,4,5
51 411 m 0,19,20
 51 630 51 630 172.5 760.5 c 128,-1,21
 294 891 294 891 469 891 c 0,22,23
 582 891 582 891 668.5 831 c 128,-1,24
 755 771 755 771 800 669 c 128,-1,25
 845 567 845 567 845 439 c 0,26,27
 845 234 845 234 728.5 103.5 c 128,-1,28
 612 -27 612 -27 444 -27 c 0,29,30
 266 -27 266 -27 158.5 94 c 128,-1,31
 51 215 51 215 51 411 c 0,19,20
EndSplineSet
Colour: ffff00
EndChar

StartChar: oacute
Encoding: 243 243 194
Width: 893
VWidth: 0
Flags: HMW
LayerCount: 2
Fore
SplineSet
344 1020 m 1,0,-1
 472 1350 l 1,1,-1
 575 1311 l 1,2,-1
 393 990 l 1,3,-1
 344 1020 l 1,0,-1
192 483 m 0,4,5
 192 369 192 369 223 273.5 c 128,-1,6
 254 178 254 178 320.5 116 c 128,-1,7
 387 54 387 54 479 54 c 0,8,9
 582 54 582 54 643 148.5 c 128,-1,10
 704 243 704 243 704 380 c 0,11,12
 704 457 704 457 686.5 531.5 c 128,-1,13
 669 606 669 606 635.5 668 c 128,-1,14
 602 730 602 730 547.5 768 c 128,-1,15
 493 806 493 806 426 806 c 0,16,17
 317 806 317 806 254.5 713.5 c 128,-1,18
 192 621 192 621 192 483 c 0,4,5
51 411 m 0,19,20
 51 630 51 630 172.5 760.5 c 128,-1,21
 294 891 294 891 469 891 c 0,22,23
 582 891 582 891 668.5 831 c 128,-1,24
 755 771 755 771 800 669 c 128,-1,25
 845 567 845 567 845 439 c 0,26,27
 845 234 845 234 728.5 103.5 c 128,-1,28
 612 -27 612 -27 444 -27 c 0,29,30
 266 -27 266 -27 158.5 94 c 128,-1,31
 51 215 51 215 51 411 c 0,19,20
EndSplineSet
Colour: ffff00
EndChar

StartChar: ocircumflex
Encoding: 244 244 195
Width: 893
VWidth: 0
Flags: HMW
LayerCount: 2
Fore
SplineSet
286 1020 m 1,0,-1
 454 1200 l 1,1,-1
 509 1214 l 1,2,-1
 687 1028 l 1,3,-1
 647 991 l 1,4,-1
 474 1113 l 1,5,-1
 465 1113 l 1,6,-1
 316 990 l 1,7,-1
 286 1020 l 1,0,-1
192 483 m 0,8,9
 192 369 192 369 223 273.5 c 128,-1,10
 254 178 254 178 320.5 116 c 128,-1,11
 387 54 387 54 479 54 c 0,12,13
 582 54 582 54 643 148.5 c 128,-1,14
 704 243 704 243 704 380 c 0,15,16
 704 457 704 457 686.5 531.5 c 128,-1,17
 669 606 669 606 635.5 668 c 128,-1,18
 602 730 602 730 547.5 768 c 128,-1,19
 493 806 493 806 426 806 c 0,20,21
 317 806 317 806 254.5 713.5 c 128,-1,22
 192 621 192 621 192 483 c 0,8,9
51 411 m 0,23,24
 51 630 51 630 172.5 760.5 c 128,-1,25
 294 891 294 891 469 891 c 0,26,27
 582 891 582 891 668.5 831 c 128,-1,28
 755 771 755 771 800 669 c 128,-1,29
 845 567 845 567 845 439 c 0,30,31
 845 234 845 234 728.5 103.5 c 128,-1,32
 612 -27 612 -27 444 -27 c 0,33,34
 266 -27 266 -27 158.5 94 c 128,-1,35
 51 215 51 215 51 411 c 0,23,24
EndSplineSet
Colour: ffff00
EndChar

StartChar: otilde
Encoding: 245 245 196
Width: 893
VWidth: 0
Flags: HMW
LayerCount: 2
Fore
SplineSet
250 1000 m 1,0,1
 254 1014 l 2,2,3
 258 1028 258 1028 270 1055 c 128,-1,4
 282 1082 282 1082 297.5 1101 c 128,-1,5
 313 1120 313 1120 339.5 1133 c 128,-1,6
 366 1146 366 1146 397 1139 c 2,7,-1
 600 1097 l 1,8,9
 622 1091 622 1091 641 1104.5 c 128,-1,10
 660 1118 660 1118 668 1134 c 2,11,-1
 676 1151 l 1,12,-1
 718 1149 l 1,13,14
 716 1142 716 1142 712.5 1131.5 c 128,-1,15
 709 1121 709 1121 695.5 1094 c 128,-1,16
 682 1067 682 1067 666 1047.5 c 128,-1,17
 650 1028 650 1028 622 1015.5 c 128,-1,18
 594 1003 594 1003 563 1010 c 2,19,-1
 362 1052 l 2,20,21
 342 1057 342 1057 322 1041.5 c 128,-1,22
 302 1026 302 1026 292 1008 c 2,23,-1
 283 990 l 1,24,-1
 250 1000 l 1,0,1
192 483 m 0,25,26
 192 369 192 369 223 273.5 c 128,-1,27
 254 178 254 178 320.5 116 c 128,-1,28
 387 54 387 54 479 54 c 0,29,30
 582 54 582 54 643 148.5 c 128,-1,31
 704 243 704 243 704 380 c 0,32,33
 704 457 704 457 686.5 531.5 c 128,-1,34
 669 606 669 606 635.5 668 c 128,-1,35
 602 730 602 730 547.5 768 c 128,-1,36
 493 806 493 806 426 806 c 0,37,38
 317 806 317 806 254.5 713.5 c 128,-1,39
 192 621 192 621 192 483 c 0,25,26
51 411 m 0,40,41
 51 630 51 630 172.5 760.5 c 128,-1,42
 294 891 294 891 469 891 c 0,43,44
 582 891 582 891 668.5 831 c 128,-1,45
 755 771 755 771 800 669 c 128,-1,46
 845 567 845 567 845 439 c 0,47,48
 845 234 845 234 728.5 103.5 c 128,-1,49
 612 -27 612 -27 444 -27 c 0,50,51
 266 -27 266 -27 158.5 94 c 128,-1,52
 51 215 51 215 51 411 c 0,40,41
EndSplineSet
Colour: ffff00
EndChar

StartChar: odieresis
Encoding: 246 246 197
Width: 893
VWidth: 0
Flags: HMW
LayerCount: 2
Fore
SplineSet
846 1072 m 0,0,1
 846 1108 846 1108 865 1128.5 c 128,-1,2
 884 1149 884 1149 915 1149 c 0,3,4
 947 1149 947 1149 967.5 1128.5 c 128,-1,5
 988 1108 988 1108 988 1072 c 0,6,7
 988 1034 988 1034 968 1012 c 128,-1,8
 948 990 948 990 915 990 c 0,9,10
 883 990 883 990 864.5 1012.5 c 128,-1,11
 846 1035 846 1035 846 1072 c 0,0,1
578 1072 m 0,12,13
 578 1108 578 1108 597 1128.5 c 128,-1,14
 616 1149 616 1149 647 1149 c 0,15,16
 679 1149 679 1149 699 1128.5 c 128,-1,17
 719 1108 719 1108 719 1072 c 0,18,19
 719 1034 719 1034 699.5 1012 c 128,-1,20
 680 990 680 990 648 990 c 128,-1,21
 616 990 616 990 597 1012.5 c 128,-1,22
 578 1035 578 1035 578 1072 c 0,12,13
192 483 m 0,23,24
 192 369 192 369 223 273.5 c 128,-1,25
 254 178 254 178 320.5 116 c 128,-1,26
 387 54 387 54 479 54 c 0,27,28
 582 54 582 54 643 148.5 c 128,-1,29
 704 243 704 243 704 380 c 0,30,31
 704 457 704 457 686.5 531.5 c 128,-1,32
 669 606 669 606 635.5 668 c 128,-1,33
 602 730 602 730 547.5 768 c 128,-1,34
 493 806 493 806 426 806 c 0,35,36
 317 806 317 806 254.5 713.5 c 128,-1,37
 192 621 192 621 192 483 c 0,23,24
51 411 m 0,38,39
 51 630 51 630 172.5 760.5 c 128,-1,40
 294 891 294 891 469 891 c 0,41,42
 582 891 582 891 668.5 831 c 128,-1,43
 755 771 755 771 800 669 c 128,-1,44
 845 567 845 567 845 439 c 0,45,46
 845 234 845 234 728.5 103.5 c 128,-1,47
 612 -27 612 -27 444 -27 c 0,48,49
 266 -27 266 -27 158.5 94 c 128,-1,50
 51 215 51 215 51 411 c 0,38,39
EndSplineSet
Colour: ffff00
EndChar

StartChar: ugrave
Encoding: 249 249 198
Width: 1026
VWidth: 0
Flags: HMW
LayerCount: 2
Fore
SplineSet
258 1319 m 1,0,-1
 362 1356 l 1,1,-1
 495 1021 l 1,2,-1
 444 990 l 1,3,-1
 258 1319 l 1,0,-1
41 800 m 1,4,-1
 49 853 l 1,5,-1
 298 874 l 1,6,-1
 314 857 l 1,7,-1
 314 317 l 2,8,9
 314 86 314 86 486 86 c 0,10,11
 601 86 601 86 692 187 c 1,12,-1
 692 754 l 1,13,-1
 535 790 l 1,14,-1
 541 850 l 1,15,-1
 807 874 l 1,16,-1
 821 857 l 1,17,-1
 821 223 l 2,18,19
 821 148 821 148 842 114.5 c 128,-1,20
 863 81 863 81 920 70 c 1,21,-1
 974 58 l 1,22,-1
 967 -1 l 1,23,24
 899 -21 899 -21 841 -21 c 0,25,26
 776 -21 776 -21 740 19 c 128,-1,27
 704 59 704 59 704 120 c 2,28,-1
 704 132 l 1,29,-1
 692 132 l 1,30,31
 641 56 641 56 568.5 16 c 128,-1,32
 496 -24 496 -24 414 -24 c 0,33,34
 186 -24 186 -24 186 275 c 2,35,-1
 186 757 l 1,36,-1
 41 800 l 1,4,-1
EndSplineSet
Colour: ffff00
EndChar

StartChar: uacute
Encoding: 250 250 199
Width: 1026
VWidth: 0
Flags: HMW
LayerCount: 2
Fore
SplineSet
324 1020 m 1,0,-1
 452 1350 l 1,1,-1
 555 1311 l 1,2,-1
 373 990 l 1,3,-1
 324 1020 l 1,0,-1
41 800 m 1,4,-1
 49 853 l 1,5,-1
 298 874 l 1,6,-1
 314 857 l 1,7,-1
 314 317 l 2,8,9
 314 86 314 86 486 86 c 0,10,11
 601 86 601 86 692 187 c 1,12,-1
 692 754 l 1,13,-1
 535 790 l 1,14,-1
 541 850 l 1,15,-1
 807 874 l 1,16,-1
 821 857 l 1,17,-1
 821 223 l 2,18,19
 821 148 821 148 842 114.5 c 128,-1,20
 863 81 863 81 920 70 c 1,21,-1
 974 58 l 1,22,-1
 967 -1 l 1,23,24
 899 -21 899 -21 841 -21 c 0,25,26
 776 -21 776 -21 740 19 c 128,-1,27
 704 59 704 59 704 120 c 2,28,-1
 704 132 l 1,29,-1
 692 132 l 1,30,31
 641 56 641 56 568.5 16 c 128,-1,32
 496 -24 496 -24 414 -24 c 0,33,34
 186 -24 186 -24 186 275 c 2,35,-1
 186 757 l 1,36,-1
 41 800 l 1,4,-1
EndSplineSet
Colour: ffff00
EndChar

StartChar: ucircumflex
Encoding: 251 251 200
Width: 1026
VWidth: 0
Flags: HMW
LayerCount: 2
Fore
SplineSet
274 1020 m 1,0,-1
 442 1200 l 1,1,-1
 497 1214 l 1,2,-1
 675 1028 l 1,3,-1
 635 991 l 1,4,-1
 462 1113 l 1,5,-1
 453 1113 l 1,6,-1
 304 990 l 1,7,-1
 274 1020 l 1,0,-1
41 800 m 1,8,-1
 49 853 l 1,9,-1
 298 874 l 1,10,-1
 314 857 l 1,11,-1
 314 317 l 2,12,13
 314 86 314 86 486 86 c 0,14,15
 601 86 601 86 692 187 c 1,16,-1
 692 754 l 1,17,-1
 535 790 l 1,18,-1
 541 850 l 1,19,-1
 807 874 l 1,20,-1
 821 857 l 1,21,-1
 821 223 l 2,22,23
 821 148 821 148 842 114.5 c 128,-1,24
 863 81 863 81 920 70 c 1,25,-1
 974 58 l 1,26,-1
 967 -1 l 1,27,28
 899 -21 899 -21 841 -21 c 0,29,30
 776 -21 776 -21 740 19 c 128,-1,31
 704 59 704 59 704 120 c 2,32,-1
 704 132 l 1,33,-1
 692 132 l 1,34,35
 641 56 641 56 568.5 16 c 128,-1,36
 496 -24 496 -24 414 -24 c 0,37,38
 186 -24 186 -24 186 275 c 2,39,-1
 186 757 l 1,40,-1
 41 800 l 1,8,-1
EndSplineSet
Colour: ffff00
EndChar

StartChar: udieresis
Encoding: 252 252 201
Width: 1026
VWidth: 0
Flags: HMW
LayerCount: 2
Fore
SplineSet
835 1072 m 0,0,1
 835 1108 835 1108 854 1128.5 c 128,-1,2
 873 1149 873 1149 904 1149 c 0,3,4
 936 1149 936 1149 956.5 1128.5 c 128,-1,5
 977 1108 977 1108 977 1072 c 0,6,7
 977 1034 977 1034 957 1012 c 128,-1,8
 937 990 937 990 904 990 c 0,9,10
 872 990 872 990 853.5 1012.5 c 128,-1,11
 835 1035 835 1035 835 1072 c 0,0,1
567 1072 m 0,12,13
 567 1108 567 1108 586 1128.5 c 128,-1,14
 605 1149 605 1149 636 1149 c 0,15,16
 668 1149 668 1149 688 1128.5 c 128,-1,17
 708 1108 708 1108 708 1072 c 0,18,19
 708 1034 708 1034 688.5 1012 c 128,-1,20
 669 990 669 990 637 990 c 128,-1,21
 605 990 605 990 586 1012.5 c 128,-1,22
 567 1035 567 1035 567 1072 c 0,12,13
41 800 m 1,23,-1
 49 853 l 1,24,-1
 298 874 l 1,25,-1
 314 857 l 1,26,-1
 314 317 l 2,27,28
 314 86 314 86 486 86 c 0,29,30
 601 86 601 86 692 187 c 1,31,-1
 692 754 l 1,32,-1
 535 790 l 1,33,-1
 541 850 l 1,34,-1
 807 874 l 1,35,-1
 821 857 l 1,36,-1
 821 223 l 2,37,38
 821 148 821 148 842 114.5 c 128,-1,39
 863 81 863 81 920 70 c 1,40,-1
 974 58 l 1,41,-1
 967 -1 l 1,42,43
 899 -21 899 -21 841 -21 c 0,44,45
 776 -21 776 -21 740 19 c 128,-1,46
 704 59 704 59 704 120 c 2,47,-1
 704 132 l 1,48,-1
 692 132 l 1,49,50
 641 56 641 56 568.5 16 c 128,-1,51
 496 -24 496 -24 414 -24 c 0,52,53
 186 -24 186 -24 186 275 c 2,54,-1
 186 757 l 1,55,-1
 41 800 l 1,23,-1
EndSplineSet
Colour: ffff00
EndChar

